<?xml version="1.0" standalone="no"?>
<!DOCTYPE svg PUBLIC "-//W3C//DTD SVG 1.1//EN" "http://www.w3.org/Graphics/SVG/1.1/DTD/svg11.dtd">
<svg width="100%" height="100%" viewBox="0 0 350 418" version="1.1" xmlns="http://www.w3.org/2000/svg" xmlns:xlink="http://www.w3.org/1999/xlink" xml:space="preserve" style="fill-rule:evenodd;clip-rule:evenodd;stroke-linejoin:round;stroke-miterlimit:1.41421;">
    <g transform="matrix(0.968927,0,0,0.968927,-72.1419,23.917)">
        <g transform="matrix(1.03207,0,0,1.03207,74.4555,-24.684)">
            <path d="M194.489,376.472L35.976,376.472C33.807,376.472 30.691,375.808 28.703,374.921C28.277,374.739 27.893,374.463 27.558,374.134L22.562,369.13C22.24,368.802 21.965,368.419 21.782,367.992C20.88,366.014 20.224,362.888 20.224,360.727L20.224,16.698C20.224,14.544 20.88,11.419 21.782,9.439C21.965,9.012 22.224,8.63 22.562,8.301L27.558,3.29C27.893,2.954 28.291,2.686 28.718,2.495C30.705,1.609 33.822,0.953 35.976,0.953L167.353,0.953C169.996,0.953 173.283,2.312 175.146,4.176L287.408,116.43C289.273,118.302 290.633,121.579 290.633,124.23L290.633,282.424C282.736,279.558 274.238,277.993 265.404,277.993C237.685,277.993 213.283,293.4 200.364,316.047L35.165,316.047L35.167,360.603L36.099,361.536L191.117,361.536C191.728,366.687 192.871,371.684 194.489,376.472ZM106.208,271.785L123.737,270.687C124.116,273.534 124.889,275.703 126.055,277.194C127.953,279.607 130.664,280.814 134.189,280.814C136.819,280.814 138.845,280.197 140.269,278.963C141.692,277.729 142.404,276.299 142.404,274.672C142.404,273.127 141.726,271.744 140.371,270.524C139.015,269.304 135.87,268.152 130.935,267.067C122.855,265.25 117.094,262.837 113.65,259.828C110.18,256.818 108.444,252.982 108.444,248.318C108.444,245.254 109.332,242.36 111.108,239.635C112.884,236.91 115.555,234.768 119.12,233.209C122.686,231.65 127.573,230.871 133.782,230.871C141.401,230.871 147.21,232.287 151.209,235.121C155.208,237.954 157.588,242.462 158.347,248.643L140.981,249.66C140.52,246.976 139.55,245.024 138.073,243.804C136.595,242.584 134.555,241.974 131.952,241.974C129.81,241.974 128.197,242.428 127.112,243.336C126.028,244.244 125.485,245.349 125.485,246.651C125.485,247.6 125.933,248.454 126.827,249.213C127.695,249.999 129.756,250.731 133.009,251.409C141.062,253.144 146.83,254.9 150.315,256.676C153.799,258.452 156.334,260.655 157.92,263.285C159.506,265.915 160.299,268.857 160.299,272.11C160.299,275.933 159.242,279.458 157.127,282.684C155.012,285.911 152.057,288.358 148.261,290.025C144.465,291.693 139.679,292.527 133.904,292.527C123.764,292.527 116.741,290.574 112.837,286.67C108.933,282.766 106.723,277.804 106.208,271.785ZM84.327,267.148L100.473,272.029C99.389,276.557 97.68,280.339 95.349,283.376C93.017,286.413 90.123,288.704 86.666,290.249C83.209,291.795 78.809,292.567 73.468,292.567C66.988,292.567 61.694,291.625 57.586,289.741C53.479,287.856 49.934,284.542 46.951,279.797C43.969,275.052 42.477,268.979 42.477,261.577C42.477,251.707 45.101,244.122 50.347,238.822C55.594,233.521 63.016,230.871 72.614,230.871C80.124,230.871 86.028,232.389 90.326,235.426C94.623,238.462 97.816,243.126 99.904,249.416L83.636,253.036C83.066,251.219 82.47,249.891 81.846,249.05C80.816,247.64 79.555,246.556 78.064,245.797C76.573,245.037 74.905,244.658 73.061,244.658C68.886,244.658 65.687,246.339 63.463,249.701C61.782,252.195 60.942,256.113 60.942,261.455C60.942,268.07 61.945,272.605 63.951,275.059C65.958,277.513 68.777,278.739 72.411,278.739C75.935,278.739 78.599,277.75 80.402,275.77C82.205,273.791 83.514,270.917 84.327,267.148ZM163.675,231.887L182.952,231.887L196.374,274.794L209.591,231.887L228.3,231.887L206.175,291.51L186.206,291.51L163.675,231.887ZM160.433,15.895L36.099,15.895L35.151,16.829L35.16,203.297L275.694,203.297L275.689,131.098L164.251,131.098C163.244,131.098 162.265,130.694 161.548,129.976C160.829,129.257 160.416,128.287 160.416,127.264L160.433,15.895Z" style="fill:white;"/>
        </g>
        <g id="Elipse.svg" transform="matrix(1.23032,0,0,1.23032,-21.9558,-83.8044)">
            <path d="M301,290C330.624,290 355,314.376 355,344C355,373.624 330.624,398 301,398C271.376,398 247,373.624 247,344C247,314.376 271.376,290 301,290ZM286.941,341.809L294.669,356.904C294.669,356.904 307.229,326.226 327.034,316.004C326.551,323.304 324.619,329.639 328,337.43C319.305,339.378 301.432,361.291 295.636,372.004C287.424,361.778 277.763,353.987 271,351.552L286.941,341.809Z" style="fill:white;"/>
        </g>
    </g>
</svg>
