<?xml version="1.0" encoding="UTF-8" standalone="no"?>
<!DOCTYPE svg PUBLIC "-//W3C//DTD SVG 1.1//EN" "http://www.w3.org/Graphics/SVG/1.1/DTD/svg11.dtd">
<svg width="100%" height="100%" viewBox="0 0 200 50" version="1.1" xmlns="http://www.w3.org/2000/svg" xmlns:xlink="http://www.w3.org/1999/xlink" xml:space="preserve" xmlns:serif="http://www.serif.com/" style="fill-rule:evenodd;clip-rule:evenodd;stroke-linejoin:round;stroke-miterlimit:1.41421;">
    <g transform="matrix(1,0,0,1,0,-5.89807)">
        <g transform="matrix(0.931897,0,0,0.931897,22.4993,22.0803)">
            <g transform="matrix(1,0,0,1,3.79,17.213)">
                <text x="0px" y="0px" style="font-family:'ArialMT', 'Arial', sans-serif;font-size:12px;">Arraste y suelte el documento</text>
            </g>
            <g transform="matrix(1.25282,0,0,1.25282,33.1184,27.9218)">
                <text x="0px" y="0px" style="font-family:'ArialMT', 'Arial', sans-serif;font-size:8px;">o clic para seleccionar</text>
            </g>
        </g>
        <g transform="matrix(0.0326837,0,0,0.0326837,81.635,-1.54379)">
            <path d="M836,818.105L286,818.105L286,622.083L368.833,622.083L368.833,735.271L753.167,735.271L753.167,622.083L836,622.083L836,818.105Z" style="fill:rgb(112,114,116);fill-rule:nonzero;"/>
            <path d="M401.284,818.105C401.284,818.105 736.671,806.219 836,696.537L836,818.105L401.284,818.105Z" style="fill:rgb(96,96,96);fill-rule:nonzero;"/>
            <path d="M468.427,475.911L468.427,681.661L653.573,681.661L653.573,475.911L733.017,475.911L561,303.895L388.983,475.911L468.427,475.911Z" style="fill:rgb(29,170,42);fill-rule:nonzero;"/>
            <path d="M468.427,681.661C468.427,681.661 622.443,661.232 653.573,588.34L653.573,681.661L468.427,681.661Z" style="fill:rgb(38,141,21);fill-rule:nonzero;"/>
            <path d="M441.482,438.094L561,316.855L585.778,339.913C585.778,339.913 542.639,354.045 441.482,438.094Z" style="fill:rgb(102,207,108);fill-rule:nonzero;"/>
        </g>
    </g>
</svg>
