<?xml version="1.0" standalone="no"?>
<!DOCTYPE svg PUBLIC "-//W3C//DTD SVG 1.1//EN" "http://www.w3.org/Graphics/SVG/1.1/DTD/svg11.dtd" >
<svg>
<metadata>
Created by FontForge 20090622 at Fri May 25 18:42:32 2018
 By deploy user
(c) COPYRIGHT H. BERTHOLD AG 1992 Alle Rechte vorbehalten.
</metadata>
<defs>
<font id="BaskervilleBQ-Regular" horiz-adv-x="292" >
  <font-face 
    font-family="Baskerville BQ"
    font-weight="550"
    font-stretch="normal"
    units-per-em="1000"
    panose-1="0 0 0 0 0 0 0 0 0 0"
    ascent="800"
    descent="-200"
    x-height="440"
    cap-height="706"
    bbox="-186 -291 1019 919"
    underline-thickness="50"
    underline-position="-75"
    unicode-range="U+0020-U+FB02"
  />
<missing-glyph 
 />
    <glyph glyph-name=".notdef" 
 />
    <glyph glyph-name=".null" horiz-adv-x="0" 
 />
    <glyph glyph-name="nonmarkingreturn" 
 />
    <glyph glyph-name="space" unicode=" " 
 />
    <glyph glyph-name="space" unicode="&#xa0;" 
 />
    <glyph glyph-name="numbersign" unicode="#" horiz-adv-x="667" 
d="M390 410h-100l-14 -97h101zM332 0l38 259h-101l-38 -259h-58l36 259h-167v54h175l13 97h-167v57h174l32 241h63l-34 -241h100l31 241h60l-33 -241h168v-57h-175l-13 -97h168v-54h-175l-35 -259h-62z" />
    <glyph glyph-name="dollar" unicode="$" horiz-adv-x="542" 
d="M293 38q10 2 34.5 9t48.5 27q21 17 34.5 42t13.5 54q0 7 -2.5 20.5t-11.5 29.5q-14 24 -41 40.5t-76 40.5v-263zM255 676q-6 0 -16 -0.5t-23 -4.5q-8 -2 -23 -8.5t-29.5 -19.5t-25.5 -32.5t-11 -48.5q0 -14 5 -33t25 -42q14 -15 28 -24.5t19 -12.5q12 -8 25 -13.5
l26 -11.5v251zM293 817v-106q3 0 19 -2t30 -6q33 -9 64.5 -31.5t50.5 -51.5q3 -3 11 -19t8 -35q0 -13 -4 -21t-9.5 -12.5t-12 -6.5t-11.5 -2q-8 0 -14.5 2.5t-8.5 4.5q-16 12 -18.5 31t-7.5 36q-5 14 -10.5 23t-9.5 13q-17 20 -35 27.5t-42 12.5v-265q1 -1 13 -6t28.5 -13
t35 -18t32.5 -19q9 -6 25 -18.5t31 -32t26 -46.5t11 -62q0 -8 -1.5 -21t-6.5 -32q-4 -11 -11.5 -27.5t-20.5 -34t-33.5 -34.5t-49.5 -29l-15.5 -6t-16 -5t-20 -4l-27.5 -5v-110h-38v111q-10 1 -24 3t-31 6.5t-37 13t-41 22.5q-6 4 -15.5 11t-21.5 18q-14 14 -29.5 35
t-15.5 42q0 13 5 22t12 14t13.5 7t11.5 2q13 0 26 -10q14 -10 21.5 -28.5l13.5 -32.5l8 -16t13 -20.5t20.5 -21t30.5 -17.5q8 -3 16.5 -5t23.5 -5v282l-28 12.5l-28 12.5l-26 12t-25 14q-12 7 -26.5 18t-28 29t-22.5 43.5t-9 60.5q0 58 27.5 104t82.5 69q22 9 41 12.5
t42 6.5v104h38z" />
    <glyph glyph-name="percent" unicode="%" horiz-adv-x="792" 
d="M623 426q-14 -1 -23 -8t-12 -10q-18 -22 -32 -72.5t-14 -122.5q0 -3 0.5 -21.5t3.5 -44t10.5 -53t21.5 -49.5q12 -18 22.5 -23.5t21.5 -5.5t21 6t17 15q17 21 31 71t14 119q0 65 -13.5 111t-28.5 66q-11 14 -21 18.5t-19 3.5zM619 444q24 1 42.5 -8.5t24.5 -14.5
q22 -16 37 -40t24.5 -52t14 -57t4.5 -54q0 -39 -7 -70t-18.5 -54.5t-24.5 -40t-25 -26.5q-5 -5 -24 -16.5t-45 -11.5q-18 0 -44 12t-52 47q-16 22 -25.5 47.5t-14 48t-5.5 40t-1 25.5q0 47 15 98.5t47 86.5q3 3 9.5 9t16.5 13t23 12t28 6zM168 679q-14 -1 -23.5 -8
t-12.5 -11q-18 -21 -31.5 -72t-13.5 -122q0 -3 0.5 -22t3.5 -44t10 -53t21 -49q12 -18 22.5 -23.5t21.5 -5.5q12 0 21.5 6t17.5 15q17 21 30.5 71t13.5 119q0 64 -13 110t-28 66q-11 15 -21 19t-19 4zM163 696q25 1 43 -8.5t24 -13.5q22 -16 37.5 -40t25 -52t14 -57t4.5 -54
q0 -39 -7.5 -70t-18.5 -55t-24.5 -40.5t-25.5 -26.5q-5 -4 -23.5 -16t-44.5 -12q-18 0 -44.5 12t-51.5 47q-16 22 -25.5 47.5t-14 48t-6 40.5t-1.5 26q0 23 4 48t12 50t19.5 47t27.5 39l9.5 9.5t16.5 13t22.5 11.5t27.5 6zM541 694l-246 -694h-45l246 694h45z" />
    <glyph glyph-name="ampersand" unicode="&#x26;" horiz-adv-x="729" 
d="M224 361l-17.5 -11.5t-16.5 -12.5q-20 -16 -31.5 -33.5t-18.5 -33.5t-9 -30t-2 -24q0 -33 15 -66t38 -56q5 -5 14 -12.5t21 -14.5t28 -11.5t36 -4.5q23 0 42 6.5t33 15t24 17.5l16 14l-37.5 53.5l-36.5 53.5l-50 74.5zM279 425l11.5 7.5t10.5 7.5q26 18 49 45t23 62
q-1 34 -24.5 57.5t-58.5 23.5q-10 0 -16.5 -1.5t-9.5 -2.5q-17 -6 -26.5 -14.5t-14.5 -18t-6.5 -19t-1.5 -16.5q0 -26 16.5 -56t47.5 -75zM436 414h217l-1 -26q-3 -2 -16.5 -6t-25.5 -11q-18 -10 -30 -24t-21.5 -30.5t-17 -34l-15.5 -34.5t-19.5 -38.5t-34.5 -54.5l19 -25.5
l19 -25.5q3 -4 11.5 -13.5t22 -20t31.5 -18.5t39 -8q17 0 31.5 6t25 13.5t18 15l10.5 10.5l21 -29q-11 -14 -22 -25q-35 -35 -64.5 -43.5t-51.5 -8.5q-8 0 -24 1.5t-37 9.5q-36 13 -58.5 35.5t-46.5 49.5l-15 -15.5t-15 -14.5q-45 -42 -82.5 -53.5t-65.5 -11.5
q-29 0 -51.5 6.5t-40 16t-29.5 19.5t-20 18q-27 28 -40 58t-13 68q0 52 21.5 90t48.5 64t53 41l37 21q-23 34 -41 67.5t-18 78.5q0 29 7 46.5t13 27.5q20 31 55.5 45.5t70.5 14.5q34 0 69 -13t56 -41q5 -6 13 -21.5t8 -38.5q0 -8 -2.5 -21.5t-13.5 -31.5q-20 -37 -54.5 -58
t-70.5 -38l37 -54l37 -54l41 -57l42 -57l18 31.5t25 51.5q1 2 7 20.5t6 35.5q0 18 -6 29t-16.5 18t-23.5 11t-27 7v29z" />
    <glyph glyph-name="quoteright" unicode="&#x2019;" horiz-adv-x="250" 
d="M56 434q24 19 45.5 38.5t32.5 49.5l4.5 14t2.5 24q0 13 -3 26t-4 16q-2 -1 -12 -3.5t-19 -2.5q-24 0 -40.5 17t-16.5 42q0 5 1 12t6 16q8 14 23.5 22.5t31.5 8.5q11 0 21 -3.5t18 -8.5q27 -17 38.5 -45.5t11.5 -58.5q0 -46 -21 -85t-57 -66q-10 -8 -22 -15t-35 -18z" />
    <glyph glyph-name="parenleft" unicode="(" 
d="M225 -215l-12 18t-11 18q-8 13 -14.5 25t-12.5 26q-12 24 -27.5 64t-29.5 93.5t-24 118.5t-10 139q0 22 1.5 52t6.5 67.5t15 82t27 95.5q16 48 39 97q12 26 25.5 50.5l27.5 49.5h52l-29.5 -48t-27.5 -50q-11 -23 -26.5 -62.5t-29.5 -92t-24 -116t-10 -135.5
q0 -23 1.5 -45.5t3.5 -45.5q11 -103 33 -171.5t40 -106.5q6 -14 12.5 -26l14 -25.5t18.5 -30.5l26 -41h-55z" />
    <glyph glyph-name="parenright" unicode=")" 
d="M66 781q5 -9 11 -18t11 -18q14 -22 27 -50q12 -24 27.5 -64t29.5 -93.5t24 -119t10 -138.5q0 -45 -8 -120t-42 -177q-8 -25 -18 -49.5t-21 -47.5q-11 -26 -25 -51l-28 -50l-52 1l29.5 48t27.5 50q11 23 26.5 62.5t29.5 92t24 116t10 135.5q0 19 -2 58t-10 89.5t-23.5 108
t-42.5 114.5q-17 35 -33.5 62l-36.5 59h55z" />
    <glyph glyph-name="asterisk" unicode="*" horiz-adv-x="417" 
d="M219 551q8 6 14 11l12.5 10.5t14.5 13.5l20 20q11 13 24 24.5t33 11.5q15 0 26 -11t11 -27q-1 -17 -11.5 -25t-14.5 -10q-11 -6 -22.5 -8t-33.5 -9q-30 -9 -61 -21l24.5 -11t38.5 -12t37 -8.5t23 -10.5q14 -9 18 -19.5t4 -17.5q0 -11 -5 -18t-11.5 -10.5t-12.5 -4.5
t-9 -1q-8 0 -15 2.5t-9 3.5q-11 6 -18 14.5l-22 25.5q-5 6 -10 11t-11 10l-14 11.5l-20 15.5l6 -35.5t8 -34.5l8.5 -28.5t3.5 -28.5q0 -26 -13 -34t-24 -8t-23.5 7.5t-12.5 33.5q0 8 1 13.5t2.5 12t4 14.5t5.5 20q4 14 6.5 27t5.5 39l-27.5 -22.5t-39.5 -37.5l-22.5 -21.5
t-29.5 -10.5q-15 0 -25.5 10.5t-10.5 26.5q0 14 8 22.5t19 13.5t23 8t21 5q18 5 36 11.5t35 13.5q-19 9 -31 13.5t-21.5 7t-18 4.5l-21.5 5q-17 4 -32.5 15t-15.5 32q0 11 5 17.5t11 10.5t11.5 5t8.5 1q4 0 10.5 -1.5t14.5 -6.5q7 -4 11.5 -8l10 -9t11.5 -12.5t16 -17.5
t20.5 -19t21.5 -17l-3 25t-8 38l-9 29.5t-5 30.5q0 5 2.5 16t13.5 19q7 5 12 6t9 1q11 0 24 -9t13 -35q0 -14 -5.5 -31t-9.5 -31t-6.5 -28.5t-4.5 -28.5z" />
    <glyph glyph-name="plus" unicode="+" horiz-adv-x="667" 
d="M304 0v261h-262v60h262v260h60v-260h261v-60h-261v-261h-60z" />
    <glyph glyph-name="comma" unicode="," horiz-adv-x="250" 
d="M56 -165q24 18 45.5 37.5t32.5 49.5q1 3 4.5 14.5t2.5 23.5q0 13 -3 26.5t-4 15.5q-2 -1 -12 -3.5t-19 -2.5q-24 1 -40.5 17.5t-16.5 41.5q0 5 1 12t6 16q8 14 23.5 22.5t31.5 8.5q11 0 21 -3.5t18 -8.5q27 -17 38.5 -45.5t11.5 -58.5q0 -46 -21 -85t-57 -65
q-10 -8 -22 -15t-35 -19z" />
    <glyph glyph-name="hyphen" unicode="-" 
d="M255 276v-52h-221v52h221z" />
    <glyph glyph-name="period" unicode="." horiz-adv-x="250" 
d="M83 13q-12 11 -14.5 23t-2.5 18q0 25 17.5 42t41.5 17t41 -17.5t17 -41.5q0 -25 -17.5 -42t-41.5 -17q-6 0 -18 3t-23 15z" />
    <glyph glyph-name="slash" unicode="/" horiz-adv-x="417" 
d="M399 706l-332 -706h-53l332 706h53z" />
    <glyph glyph-name="zero" unicode="0" horiz-adv-x="521" 
d="M266 680q-13 1 -34 -7t-39 -34q-12 -17 -23.5 -46.5t-20.5 -68.5t-14.5 -87t-5.5 -102q0 -30 2.5 -67t9 -75t17.5 -73t28 -60q2 -3 8 -10.5t15.5 -15.5t22 -14t28.5 -6q23 0 37 10.5t19 15.5q14 16 27.5 45.5t24 69.5t17 89.5t6.5 104.5q0 108 -20 186.5t-46 111.5
q-16 21 -32 27t-27 6zM261 704q9 0 23 -1.5t30 -7t33.5 -16t34.5 -27.5q23 -23 42.5 -58t30.5 -65q11 -29 17 -57t9 -52.5t4 -43.5t1 -29q0 -13 -2.5 -47.5t-13 -78t-32 -91t-60.5 -85.5q-26 -25 -56 -39.5t-65 -14.5q-13 0 -29 2.5t-33 10t-36 21t-38 36.5q-31 36 -48.5 78
t-26.5 81t-11 69t-2 42q0 57 11 101.5t17 63.5l8.5 24.5t18.5 42.5t28.5 49.5t38.5 46.5q31 29 60.5 36.5t45.5 8.5z" />
    <glyph glyph-name="one" unicode="1" horiz-adv-x="521" 
d="M413 0h-281l1 29q31 0 49 2.5t30 13.5q14 13 16.5 28.5t3.5 32.5v496h-87v30l41.5 7.5t37.5 9.5t35 14.5t36 21.5l13 9.5t8 4.5q3 0 3.5 -2t0.5 -3v-588q1 -11 1 -21t4 -20q5 -14 15 -21t22.5 -10.5t26 -4t24.5 -0.5v-29z" />
    <glyph glyph-name="two" unicode="2" horiz-adv-x="521" 
d="M376 77q8 1 15 2t14 5q13 8 23 27t22 48h24l-40 -159h-411l10 44l37.5 31l36.5 31q13 11 25.5 23.5l24.5 24.5q23 23 44.5 47t41.5 49l27.5 36t40 63.5t36 84.5t15.5 99q0 6 -1 22t-6 33q-14 42 -47 67.5t-78 24.5q-28 0 -52 -9.5t-41.5 -27t-27.5 -41t-10 -50.5
q0 -22 8 -45t23 -39q8 -8 16 -13.5l16 -10.5q-4 -4 -15.5 -13.5t-30.5 -9.5q-13 0 -26 6.5t-23.5 19t-17 32.5t-6.5 47q0 20 5 41.5t15 40.5q7 14 21 30.5t35 31t50.5 24t68.5 9.5q15 0 32.5 -2t31.5 -6q47 -13 83.5 -44.5t53.5 -76.5q9 -24 10.5 -43t1.5 -29
q0 -24 -5 -51.5t-17.5 -58.5t-35.5 -65t-59 -72q-45 -48 -102 -93l-108 -85h252z" />
    <glyph glyph-name="three" unicode="3" horiz-adv-x="521" 
d="M317 374q26 -11 41 -18.5t26 -15.5q9 -6 22 -18t26 -30.5t22 -43.5t9 -57q0 -12 -2.5 -29.5t-10 -37.5t-22 -41t-39.5 -40q-24 -19 -49 -29.5t-47.5 -15t-40.5 -5t-29 -0.5q-30 0 -49 2.5t-32 6.5q-43 12 -74.5 43.5t-31.5 79.5q0 25 9.5 40t22 22.5t25.5 10t21 3.5
q-8 -22 -10.5 -33.5t-2.5 -23.5q0 -8 1.5 -20.5t8.5 -29.5q4 -10 12.5 -22.5t22.5 -24t34.5 -19.5t48.5 -8q37 0 63.5 14.5t43 37.5t24.5 53.5t8 62.5q0 54 -15.5 86.5t-30.5 49.5q-17 17 -32.5 21.5t-24.5 4.5t-15 -2t-10.5 -5.5l-9.5 -7.5t-12 -8q-13 -7 -26 -7
q-11 0 -19.5 4t-13.5 9.5t-7.5 11.5t-2.5 10q0 2 1 5.5t4 8.5q7 9 19 13t34 4q16 0 32 -1.5t32 -3.5q1 1 12 7t18 12q17 14 34.5 43.5t17.5 80.5q0 10 -1.5 27t-8.5 40q-13 40 -40 65.5t-72 25.5q-38 0 -58.5 -16t-26.5 -30q-3 -5 -5.5 -15.5t-2.5 -26.5q0 -26 7 -39.5
t24 -32.5q-9 -3 -16.5 -5t-17.5 -2q-27 0 -44 20t-17 47q1 18 7.5 32t9.5 19q16 24 39.5 38t46.5 21t41.5 8.5t24.5 1.5q11 0 31.5 -2t46.5 -12q11 -5 31 -15.5t39 -29.5t33 -47.5t14 -68.5q0 -41 -18 -76.5t-53 -56.5q-9 -6 -19.5 -10.5t-30.5 -9.5z" />
    <glyph glyph-name="four" unicode="4" horiz-adv-x="521" 
d="M79 211h196v229l2 47.5t3 46.5zM404 211q2 1 12 1.5t18 4.5q14 6 22 20t13 27h23l-27 -91h-103v-92q1 -2 1.5 -9t2.5 -14q4 -12 12 -18t18 -8.5t20.5 -3t20.5 -0.5v-28h-239l1 28q27 1 42 5t24 16q6 9 7.5 17.5t2.5 19.5v87h-255l327 520q2 2 4 4.5t6 2.5t4.5 -3t0.5 -4
v-482h42z" />
    <glyph glyph-name="five" unicode="5" horiz-adv-x="521" 
d="M479 703q-9 -12 -20.5 -26t-24 -27.5t-26.5 -25t-29 -17.5q-8 -3 -19.5 -5t-31.5 -2q-36 0 -71 2l-70 4l-23 -205q14 8 40 21.5t68 13.5q11 0 31.5 -3t46.5 -14q13 -6 32 -19t36 -34.5t29 -51.5t12 -71q0 -37 -7.5 -62t-13.5 -38q-16 -36 -39 -61.5t-47 -42t-45.5 -25
t-34.5 -12.5q-11 -3 -29 -6t-45 -3q-46 0 -72 10t-43 21q-17 12 -28 24.5t-17 24.5t-8 23t-2 20q0 20 11.5 37.5t34.5 17.5q10 0 22.5 -7.5t17.5 -31.5q2 -11 2.5 -19.5t0.5 -17t1 -17t5 -18.5q5 -14 22 -30t52 -16q30 1 51 11t29 16q15 10 30 27.5t27.5 42t20.5 57.5t8 75
q0 55 -13.5 86t-31.5 49q-28 28 -68 28q-31 0 -49 -13.5t-25 -21.5q-5 -6 -9 -13t-5 -9q2 -4 2 -11q-1 -9 -8 -17t-17 -7q-7 0 -10 3t-4 6.5t-1 7v5.5l43 357q53 -5 105 -8.5t105 -3.5q34 0 49.5 6.5t26.5 19.5z" />
    <glyph glyph-name="six" unicode="6" horiz-adv-x="521" 
d="M265 430q-8 0 -23.5 -3t-33.5 -14q-30 -19 -49.5 -58.5t-19.5 -113.5q0 -27 5 -66t19 -74.5t38.5 -60.5t64.5 -25q13 0 23 2.5t15 4.5q27 12 44 35.5t26.5 52t13 59t3.5 54.5q0 5 -0.5 21t-3.5 37.5t-9.5 45.5t-18.5 45q-15 26 -39.5 42.5t-54.5 15.5zM145 401
q8 6 19.5 15.5t28 17.5t38 14t48.5 6q11 0 32.5 -2.5t47.5 -14.5q17 -8 38 -23.5t39.5 -41t30.5 -61t12 -83.5q0 -14 -2 -40t-15 -59q-6 -15 -19.5 -38t-36.5 -45t-57 -37.5t-82 -15.5q-19 0 -52 6t-71 35q-19 15 -37 37t-31.5 53t-21.5 72.5t-8 95.5q0 16 1 44.5t9 66.5
q7 34 19 70.5t30 70t41.5 63.5t53.5 51q31 22 71 33.5t79 11.5q56 0 83.5 -20.5t28.5 -50.5q-1 -23 -14.5 -30t-22.5 -7q-18 0 -27 10.5t-17 24.5l-9 18.5t-12 16.5q-5 5 -15.5 10.5t-28.5 5.5q-21 0 -38 -8t-31.5 -20.5t-26.5 -28t-21 -31.5q-27 -47 -37 -93.5t-17 -98.5z
" />
    <glyph glyph-name="seven" unicode="7" horiz-adv-x="521" 
d="M131 703q-1 -2 -1 -7t3 -10q6 -8 16.5 -8t27.5 -1h312l-245 -605q-5 -11 -9.5 -22.5t-10.5 -22.5q-11 -23 -26 -28.5t-26 -5.5q-19 0 -31.5 11t-12.5 30q0 12 5 23t11 22l291 522h-192q-39 0 -59 -5t-37 -16q-20 -15 -28.5 -33t-15.5 -41h-27l30 197h25z" />
    <glyph glyph-name="eight" unicode="8" horiz-adv-x="521" 
d="M224 337l-14 -10.5t-20 -18.5q-7 -7 -16.5 -19.5t-18 -30.5t-14.5 -41t-6 -51q0 -6 0.5 -16t3 -23t8 -28t15.5 -29q18 -27 46 -41t60 -14q7 0 22 2t32 10q33 17 50 52.5t17 70.5q0 14 -4 36.5t-24 50.5q-26 36 -62.5 58t-74.5 42zM300 397l13.5 12t13.5 14q39 48 39 114
q0 6 -1 21.5t-6.5 34.5t-16.5 39t-31 34q-26 18 -56 18q-6 0 -19 -2t-29 -8q-23 -10 -36 -24.5t-19 -30t-7 -29.5t-1 -22q0 -44 16 -69.5t28 -36.5q17 -17 42 -31t70 -34zM328 383q11 -6 20.5 -12t18.5 -13q10 -7 28 -21t35 -36.5t30 -53t13 -69.5q0 -9 -3 -32t-16 -49
q-8 -17 -23.5 -35.5t-39 -33.5t-56.5 -25t-77 -10q-17 0 -51 4.5t-72 27.5q-8 5 -23 16.5t-29.5 30t-25.5 44t-11 58.5q0 45 24 83.5t61 63.5l11.5 7.5t11.5 6.5l14.5 7t21.5 9q-11 6 -31 18.5t-40 33.5t-34.5 52t-14.5 73q0 10 2.5 29.5t13.5 43.5q16 36 41.5 56.5t52 31
t49 13t33.5 2.5q34 0 67.5 -11t59.5 -31.5t42 -50.5t16 -67q0 -40 -15 -68.5t-35 -47.5t-40 -29.5z" />
    <glyph glyph-name="nine" unicode="9" horiz-adv-x="521" 
d="M257 683q-21 0 -36 -6.5t-26 -15t-18 -18t-10 -15.5q-14 -23 -24.5 -59.5t-10.5 -96.5q0 -7 0.5 -22.5t3 -36t8.5 -44t17 -45.5q3 -7 9.5 -17.5t17.5 -21t27 -18t39 -7.5q10 0 30.5 4.5t41.5 22.5q26 22 41 60t15 107q0 78 -17.5 129t-42.5 74q-20 19 -37 23t-28 3z
M374 287l-19 -14.5t-26.5 -16t-35.5 -13t-45 -5.5q-10 0 -26 1.5t-35 7t-40 16.5t-41 30q-24 22 -37.5 45.5t-20 45.5t-8 40.5t-1.5 30.5t1.5 30t7 39.5t16 46t29.5 49.5q10 12 20 22.5t22 19.5q19 14 38.5 22.5t36.5 13t31 5.5t22 1q36 0 60 -9.5t36 -17.5q21 -14 43 -37.5
t39 -58t28 -80.5t11 -104q0 -34 -4.5 -70.5t-13.5 -73t-22.5 -70.5t-32.5 -63q-7 -10 -22.5 -29.5t-41.5 -40.5q-25 -20 -49 -32t-45 -18t-38.5 -7.5t-30.5 -1.5q-52 0 -81.5 17t-43.5 34t-17.5 32t-3.5 23q1 27 16.5 36t25.5 9q8 0 12.5 -2t7.5 -4q12 -8 15 -21.5t7 -25.5
q2 -5 4.5 -12t4.5 -11q12 -23 32 -36t46 -13q24 0 59 18.5t64 68.5q11 19 22.5 50.5t19.5 82.5q2 13 2.5 25.5t1.5 24.5z" />
    <glyph glyph-name="colon" unicode=":" 
d="M125 13q-12 11 -15 23.5t-3 17.5q1 25 18.5 42t41.5 17t41 -17.5t17 -41.5q0 -25 -17.5 -42t-41.5 -17q-6 0 -18 3t-23 15zM125 350q-12 11 -15 23.5t-3 17.5q1 25 18.5 42t41.5 17t41 -18t17 -41q0 -25 -17.5 -42t-41.5 -17q-6 0 -18 3t-23 15z" />
    <glyph glyph-name="semicolon" unicode=";" 
d="M102 350q-11 11 -14 23.5t-3 17.5q1 25 18.5 42t41.5 17t41 -18t17 -41q0 -25 -17.5 -42t-41.5 -17q-6 0 -18 3t-24 15zM102 -165q24 18 45 37.5t33 49.5q1 3 4 14.5t3 23.5q0 13 -3 26.5t-4 15.5q-2 -1 -12 -3.5t-19 -2.5q-25 1 -41 17.5t-16 41.5q0 5 1 12t6 16
q8 14 23.5 22.5t31.5 8.5q11 0 21 -3.5t18 -8.5q27 -17 38.5 -45.5t11.5 -58.5q0 -46 -21 -85t-57 -65q-11 -8 -22.5 -15t-34.5 -19z" />
    <glyph glyph-name="less" unicode="&#x3c;" horiz-adv-x="667" 
d="M0 319v70l667 320v-64l-600 -291l600 -293v-64z" />
    <glyph glyph-name="equal" unicode="=" horiz-adv-x="667" 
d="M0 349v59h667v-59h-667zM0 173v58h667v-58h-667z" />
    <glyph glyph-name="greater" unicode="&#x3e;" horiz-adv-x="667" 
d="M0 61l600 293l-600 291v64l667 -320v-70l-667 -322v64z" />
    <glyph glyph-name="question" unicode="?" horiz-adv-x="437" 
d="M146 13q-11 11 -14 23.5t-3 17.5q0 25 17.5 42t41.5 17q25 0 42 -17.5t17 -41.5q-1 -25 -18.5 -42t-41.5 -17q-5 0 -17.5 3t-23.5 15zM207 197h-37v216h19q11 -14 23 -24.5t32 -10.5q32 0 50.5 36t18.5 96q0 4 -0.5 13t-2 21t-4.5 25t-9 26q-3 6 -9 15t-16 17.5t-23.5 15
t-32.5 6.5q-2 0 -10 -1t-16 -4q-25 -11 -35 -36q-1 -3 -2 -8.5t-4.5 -11t-10 -9.5t-17.5 -4q-6 0 -19 5.5t-13 26.5q0 15 7.5 25t10.5 13q20 19 52 28t58 9q39 0 71.5 -14.5t56 -40t37 -59t13.5 -71.5q0 -14 -4 -40.5t-23 -55.5q-19 -28 -46 -45t-62 -16q-18 0 -28.5 3.5
t-24.5 12.5v-159z" />
    <glyph glyph-name="at" unicode="@" horiz-adv-x="896" 
d="M572 406q-2 32 -21 57.5t-56 25.5q-36 -1 -60 -24.5t-40 -51.5q-5 -9 -14 -28t-18 -45t-16 -57.5t-7 -65.5q0 -38 8.5 -57.5t24.5 -30.5q13 -9 24 -11t17 -2q24 0 45 13q14 8 31.5 25t34.5 52q9 18 18 43.5t16 53.5t11 55t2 48zM609 497h59l-30 -136q-3 -16 -6.5 -31
t-6.5 -31q-4 -15 -7 -30l-6 -31l-6 -30q-2 -13 -4 -27.5t-2 -25.5q0 -2 0.5 -8.5t3.5 -14t9.5 -13.5t18.5 -6q19 0 42 16t48 51q7 11 18 30t20.5 45t16.5 58t7 70q0 12 -1.5 32.5t-7.5 45t-18.5 52.5t-33.5 56q-11 13 -29 31t-45 34.5t-63.5 27.5t-82.5 11q-75 0 -140.5 -32
t-113.5 -89q-26 -30 -47 -68t-35 -79.5t-21.5 -84t-7.5 -82.5q0 -17 3 -50t16.5 -71.5t41 -78t75.5 -69.5q29 -18 76 -35.5t124 -17.5q17 0 43.5 2t59 9t69.5 21.5t75 40.5q14 9 33 24t45 42l25 -30q-20 -21 -51 -47t-74.5 -48.5t-101.5 -38t-131 -15.5q-13 0 -37.5 1
t-55.5 6.5t-66 17t-69.5 31.5t-66.5 50t-56 73q-14 24 -30 70.5t-16 115.5q0 20 3.5 52t14 71.5t30.5 83.5t53 89q14 19 42 48.5t69.5 57.5t97.5 48.5t126 20.5q17 0 54 -3.5t80 -22.5q46 -20 81 -51.5t58.5 -71t35.5 -85.5t12 -94q0 -71 -26 -142.5t-78 -122.5
q-21 -20 -49 -35t-59 -15q-21 0 -34.5 6.5t-22.5 16.5t-13.5 20t-5.5 18q-2 9 -2 18.5t1 18.5q-8 -14 -16 -25q-16 -22 -33.5 -35.5t-34 -21.5t-31.5 -11t-25 -3q-8 0 -23 2t-32 12q-14 7 -27 20t-23.5 32t-17 44.5t-6.5 59.5q0 66 27 129.5t77 106.5q35 29 65 38t49 9
q22 0 38.5 -6t28 -14.5t19 -17.5t11.5 -16q5 -8 7.5 -14.5t4.5 -14.5z" />
    <glyph glyph-name="A" unicode="A" horiz-adv-x="750" 
d="M240 292h216l-54 139q-7 17 -13.5 35l-12.5 36q-7 18 -13.5 36.5l-12.5 36.5zM397 715l232 -577l13.5 -31t15.5 -30q11 -16 23.5 -25t24.5 -13t22 -5t17 -2v-32h-296v32h25q9 0 20.5 1t21.5 4.5t17 10.5t7 21q0 7 -3.5 17.5t-9.5 25.5l-57 143h-244l-49 -128l-10.5 -29
t-3.5 -21q0 -24 21 -32.5t60 -12.5v-32h-233v32q5 0 15 1.5t21 4.5q18 5 31 13.5t22 20t15.5 25.5l13.5 30l235 588h33z" />
    <glyph glyph-name="B" unicode="B" horiz-adv-x="646" 
d="M239 112q1 -8 2.5 -22.5t16.5 -28.5q16 -15 33 -18.5t38 -3.5q32 0 57 4t48 28q26 27 34.5 64.5t8.5 73.5q0 9 -1 26.5t-7.5 37t-22 38.5t-44.5 32q-15 7 -30.5 11t-34.5 5.5t-42.5 2t-55.5 0.5v-250zM240 395q50 -1 80 0.5t53 11.5q28 11 42 31t20 40.5t6.5 38t0.5 24.5
q0 10 -1 29.5t-10 40t-28.5 37.5t-55.5 21q-15 2 -42.5 2t-65.5 -1zM326 706q43 1 82.5 -2t78.5 -26q14 -9 21.5 -16.5l12.5 -12.5q13 -14 20.5 -29.5t11 -30t4.5 -26t1 -18.5q0 -34 -9.5 -55.5t-17.5 -32.5q-18 -24 -41.5 -38.5t-46.5 -22.5t-41.5 -10.5t-24.5 -3.5
q4 -1 25 -3.5t40 -7.5q36 -9 61 -23t42 -30t27 -32.5t15 -31.5q7 -20 8.5 -37.5t1.5 -25.5q0 -43 -14 -76.5t-46 -62.5q-13 -11 -29 -21t-33 -15q-29 -11 -65 -13.5t-98 -2.5h-285v34q35 2 55.5 4.5t33.5 15.5q11 11 14 25.5t4 42.5v480q-1 17 -4 33t-19 27q-13 8 -30 9.5
t-47 3.5v31h292z" />
    <glyph glyph-name="C" unicode="C" horiz-adv-x="750" 
d="M690 705l10 -255l-32 1q-5 15 -9.5 30t-9.5 30q-2 6 -7.5 18.5t-14.5 29t-21 34t-27 32.5q-23 22 -47.5 34.5t-47 18.5t-41 7.5t-28.5 1.5q-12 0 -38 -2.5t-55 -16.5q-27 -12 -54 -36.5t-48.5 -62.5t-34.5 -90.5t-13 -119.5q0 -69 17 -133t64 -116q8 -8 28 -26t51 -31
q14 -6 37.5 -11.5t59.5 -5.5q48 0 85.5 12t65 29t46 36.5t29.5 33.5q15 20 23.5 36t13.5 24l37 -29q-11 -23 -17.5 -32.5l-14.5 -20.5l-23 -27.5t-38 -36.5t-53.5 -37t-68.5 -29q-14 -4 -40.5 -8t-64.5 -4q-72 0 -132.5 19.5t-114.5 68.5q-60 55 -86 122.5t-26 147.5
q0 16 2 44.5t11 64.5t26.5 75t48.5 76q10 12 30 31t52 39q12 7 30 16.5t41.5 17.5t53 13.5t65.5 5.5q43 0 79 -8t64.5 -19.5t49.5 -24l35 -20.5q3 6 6 11t5.5 10.5l5.5 12.5t7 19h28z" />
    <glyph glyph-name="D" unicode="D" horiz-adv-x="792" 
d="M240 151q1 -33 2.5 -54t11.5 -33q11 -15 38 -21t67 -6q67 0 120 23t88 85q17 30 26 64t13.5 64.5t5.5 53.5t1 31q0 10 -1.5 37t-9 61.5t-23.5 72t-46 67.5q-24 25 -55 41.5t-65 24.5q-17 4 -33.5 6t-36.5 2.5t-45 0t-58 -1.5v-518zM352 706h19t19 -1q15 0 36 -2t47.5 -9
t56 -19.5t61.5 -33.5q20 -14 45.5 -38t48 -60t38 -84.5t15.5 -112.5q0 -57 -14 -108t-41.5 -93t-68.5 -73.5t-96 -49.5q-15 -5 -30 -8.5t-33 -6.5t-40.5 -4.5t-53.5 -2.5h-332v33q9 1 18 1t18 1q25 2 36 6t19 16q10 13 12 30.5t2 48.5v455q0 14 -0.5 20t-2.5 14
q-5 18 -15 28t-23 14t-28.5 4.5t-30.5 0.5v34h318z" />
    <glyph glyph-name="E" unicode="E" horiz-adv-x="646" 
d="M546 706l20 -174h-32q-15 46 -27 71t-30 40q-22 20 -48 23t-53 4h-137v-278h67q20 1 37 4t33 17q17 16 21.5 37t6.5 41h31v-240h-32q0 2 -1 19.5t-6 32.5q-6 21 -19 31.5t-27 15t-26.5 5.5t-17.5 1h-67v-232q0 -30 8.5 -48.5t39.5 -29.5q23 -8 45.5 -9t46.5 -1
q5 0 26 0.5t41 4.5q28 5 47.5 16t33 23.5t21.5 25.5t13 23q2 4 7.5 17t10.5 28q4 11 6.5 22.5t4.5 22.5h30l-13 -219h-578v34h17t17 1q15 2 32.5 5.5t26.5 17.5q8 11 9.5 26.5l2.5 26.5v484q0 17 -3 35.5t-18 29.5q-13 9 -30.5 10.5t-47.5 3.5v32h511z" />
    <glyph glyph-name="F" unicode="F" horiz-adv-x="562" 
d="M545 706l19 -172h-31q-15 44 -26.5 68t-28.5 39q-23 22 -50.5 26t-56.5 4h-133v-279h76q20 1 34.5 3.5t28.5 16.5q16 17 19.5 37t5.5 41h32v-240h-33q1 22 -2 44t-20 39q-3 3 -12.5 9.5t-23.5 10.5q-5 1 -12.5 1.5t-19.5 1.5h-73v-218v-16.5t1 -16.5q2 -24 8.5 -42
t32.5 -24q12 -3 32 -4t31 -2v-33h-315v34q38 2 59.5 4.5t33.5 19.5q9 12 10.5 30t1.5 47v466v9t-1.5 15.5t-6 17.5t-13.5 16q-12 8 -30 10.5t-48 4.5v32h511z" />
    <glyph glyph-name="G" unicode="G" horiz-adv-x="792" 
d="M680 706l4 -243l-31 1q-2 5 -5.5 22t-10.5 34q-6 17 -20 45.5t-40 56t-65.5 47t-97.5 19.5q-28 0 -47.5 -4t-29.5 -8q-43 -15 -74.5 -46.5t-50.5 -72.5q-14 -30 -21.5 -62.5t-11.5 -61.5t-4.5 -50.5t-0.5 -29.5q0 -89 20.5 -151.5t54 -102t76 -57.5t86.5 -18q28 0 52 5.5
t43.5 14t33.5 17t21 14.5q19 16 21.5 27.5t2.5 22.5v88q-1 17 -5.5 31t-22.5 22q-14 6 -34 6.5t-51 1.5v33h307v-32q-26 0 -41.5 -1.5t-26.5 -9.5q-8 -6 -12.5 -12.5t-6.5 -13t-2.5 -12t-0.5 -8.5v-165q-26 -5 -43 -9t-30 -7.5t-24 -7.5t-26 -10q-23 -9 -66 -22.5
t-106 -13.5q-15 0 -40.5 2t-56 10.5t-64.5 25t-67 45.5q-59 52 -87.5 124t-28.5 149q0 51 10.5 93.5t25.5 76t31.5 57.5t28.5 38q50 57 119 88.5t145 31.5q11 0 29 -1.5t41 -6t49 -13t53 -22.5q12 -6 23 -13l22 -14l6.5 11.5t5 9.5t5 12l6.5 19h30z" />
    <glyph glyph-name="H" unicode="H" horiz-adv-x="833" 
d="M341 706v-31q-10 -1 -19 -1t-18 -1q-39 -2 -50 -22t-12 -56v-199h350v195q-1 29 -5.5 43.5t-16.5 23.5q-13 11 -30 12.5t-47 3.5v32h306v-32q-8 -1 -15 -1t-14 -1q-14 -1 -28 -3.5t-24 -13.5q-13 -12 -15.5 -30t-3.5 -33v-478v-10t1 -10q0 -4 0.5 -11t4 -15.5t10.5 -16
t19 -11.5q11 -4 28 -5t41 -2v-33h-317v32q37 2 60 4.5t34 19.5q8 10 9.5 24.5t2.5 39.5v231h-351v-232q0 -19 3 -39.5t20 -32.5q15 -10 32.5 -11t49.5 -3v-33h-318l1 34q34 3 57.5 6t34.5 16q9 10 11 23.5t2 24.5v511q0 3 -0.5 10.5t-3.5 15.5q-5 12 -15.5 18.5t-24 9.5
t-28 4t-27.5 2v31h306z" />
    <glyph glyph-name="I" unicode="I" horiz-adv-x="375" 
d="M341 706v-33q-31 -1 -49.5 -2.5t-31.5 -10.5q-9 -7 -13 -17.5t-5.5 -20t-1 -17t0.5 -8.5v-479v-22t2.5 -21t8.5 -18.5t17 -14.5q13 -7 33.5 -7.5t43.5 -0.5v-34h-318v34h13.5t13.5 1q15 0 34.5 2.5t30.5 16.5q10 12 12 29.5t3 46.5v469q-1 23 -4 33.5t-12 20.5
q-11 13 -29.5 16t-55.5 5v32h307z" />
    <glyph glyph-name="J" unicode="J" horiz-adv-x="354" 
d="M331 706v-32q-7 0 -13 -0.5t-13 -0.5q-17 -2 -35.5 -5t-28.5 -20q-5 -8 -7.5 -20t-3.5 -32v-595q0 -29 -1.5 -58.5t-9.5 -56.5q-12 -41 -36 -72.5t-56.5 -53.5t-71 -33t-80.5 -11q-4 0 -19 0.5t-34.5 4.5t-41 12t-38.5 22q-13 11 -20.5 25t-7.5 31q0 23 15 39.5t39 16.5
q21 0 36 -15t14 -36v-8t-2 -10q-2 -5 -2.5 -8t-0.5 -8q0 -14 15.5 -23t42.5 -9q35 1 55.5 8t33.5 15q23 15 36 35.5t19.5 43.5t8 48t1.5 49v638q-1 18 -3 38.5t-18 32.5q-12 10 -30 12.5t-49 3.5v32h306z" />
    <glyph glyph-name="K" unicode="K" horiz-adv-x="750" 
d="M722 673q-4 0 -21.5 -1t-32.5 -5q-26 -6 -49.5 -22t-60.5 -50l-170 -156l256 -344q7 -8 14.5 -17.5t16.5 -17.5q17 -14 37 -18t60 -8v-34h-308v33q11 1 23 1.5t23 1.5q8 2 17.5 5t9.5 15q-1 6 -8 17t-16 23l-203 271l-71 -66v-188q2 -33 9.5 -48t24.5 -23
q13 -6 28.5 -6.5t43.5 -2.5v-33h-317l1 33q24 1 39 1.5t26 4.5q14 4 22 12.5t12 19.5t5 23.5t1 24.5v473q0 29 -5 43t-17 23q-13 11 -29.5 12l-47.5 3v33h305v-34l-47.5 -1.5t-30.5 -11.5q-13 -10 -18 -27t-5 -48v-225l236 222q17 16 30 30.5t12 25.5q0 7 -5 15
q-5 7 -13.5 11t-18 6t-19.5 2.5t-17 1.5v33h278v-33z" />
    <glyph glyph-name="L" unicode="L" horiz-adv-x="625" 
d="M339 706l-1 -33q-29 -2 -47 -4t-30 -10q-16 -11 -18.5 -28t-2.5 -34v-471q0 -5 1 -20t9 -32q11 -23 31 -29.5t44 -8.5h90q30 1 51 5t46 23q15 11 24 22l13 16q20 28 27 55.5t14 60.5h32l-12 -218h-582l1 33q30 2 49 4t31 10q18 12 21.5 33.5t3.5 39.5v477q0 19 -4.5 35.5
t-21.5 27.5q-14 9 -29 10l-45 3v33h305z" />
    <glyph glyph-name="M" unicode="M" horiz-adv-x="958" 
d="M922 706l-1 -34q-29 -2 -46 -3.5t-29 -9.5q-20 -12 -23.5 -34t-2.5 -43l4 -450q0 -26 1 -40.5t6 -25.5q5 -12 13 -19t19.5 -10t27 -3.5t36.5 -1.5v-32h-314v33q13 1 25.5 1t25.5 2q19 3 30 11t16.5 19.5t7 26t1.5 30.5l-1 355q1 75 6 152l-16 -43.5l-16 -42.5l-226 -544
h-34l-218 527l-18 47.5t-17 47.5l-2 -146.5t-1 -146.5q0 -97 3 -194q0 -22 4.5 -45t24.5 -37q10 -7 22 -11t22.5 -6t19 -2.5t11.5 -0.5v-33h-253l1 33q22 3 34 6t23 8q15 6 23 15t12.5 20.5t6 24.5t2.5 27l7 439v21.5t-2 23.5t-6 22.5t-12 17.5q-12 10 -31 12.5t-51 2.5v33
h212l169 -403q6 -16 12.5 -31.5t12.5 -32.5l18 -49l18 -50l232 566h211z" />
    <glyph glyph-name="N" unicode="N" horiz-adv-x="792" 
d="M766 706v-35q-5 0 -16 -0.5t-25 -4.5q-21 -5 -33 -16t-17.5 -25.5t-7 -32t-1.5 -35.5v-563h-47l-371 518l-39 57l-16 26l-16 26v-471v-7.5t0.5 -16t1.5 -20t4 -19.5q6 -22 20.5 -33t30.5 -15.5t29 -5t18 -0.5v-33h-253l1 34q29 2 43 5.5t27 12.5q25 18 29.5 46t5.5 55
v461q-1 8 -2 15t-5 14q-11 20 -32.5 24t-59.5 6v33h203l307 -428l22.5 -31.5t22.5 -32.5l16.5 -26l17.5 -26v403q-1 14 -1.5 28t-5.5 27q-5 16 -15 26t-22.5 15.5t-26.5 7.5l-29 4v33h242z" />
    <glyph glyph-name="O" unicode="O" horiz-adv-x="854" 
d="M416 691q-9 0 -24 -1.5t-33 -6t-38 -13.5t-40 -24q-22 -16 -41.5 -40t-34.5 -58t-23.5 -79.5t-8.5 -103.5q0 -7 0.5 -24t2.5 -39.5t5.5 -49t10.5 -51.5q9 -35 23 -61t29 -44t30.5 -30t29.5 -19q38 -20 71.5 -24t47.5 -4q11 0 33 2t48.5 10t55 24t51.5 45q28 34 48 98.5
t20 164.5q0 61 -8.5 107.5t-24 81.5t-36.5 59t-45 40q-20 13 -56 27t-93 13zM419 724q19 0 51 -2t70.5 -12.5t80 -32.5t80.5 -62q15 -15 32.5 -37.5t32.5 -54.5t25 -73.5t10 -94.5q0 -35 -5 -67t-16 -65q-8 -22 -23.5 -54t-44 -64.5t-71 -61.5t-103.5 -45q-14 -4 -44.5 -9.5
t-70.5 -5.5q-15 0 -41.5 2t-59.5 10t-70 24t-72 44q-18 15 -40.5 39t-42 59t-33 81.5t-13.5 106.5q0 20 3.5 61.5t23.5 91.5q8 21 25.5 51t47.5 61t73.5 58t103.5 41q23 5 45 7.5t46 3.5z" />
    <glyph glyph-name="P" unicode="P" horiz-adv-x="583" 
d="M240 370q29 -1 51.5 -1t40.5 1t32.5 4.5t28.5 9.5q13 6 26 16.5t23.5 27t17 40t6.5 55.5q0 6 -0.5 23.5t-6.5 39t-19.5 42.5t-38.5 33q-13 7 -28.5 10t-29 4.5t-24 1.5h-13.5q-17 0 -33.5 -0.5t-33.5 -1.5zM239 109v-14t4 -21q5 -16 17 -24t26.5 -12t30 -4.5t28.5 -0.5
v-33h-316v33q35 2 57 5t34 17q10 11 11.5 25.5t1.5 28.5v491q0 17 -3 32.5t-17 26.5t-31 12t-48 3v32h312h24.5t24.5 -1q10 -1 27.5 -3t38.5 -9t42.5 -21t40.5 -38q11 -14 23.5 -41t12.5 -70q0 -11 -2 -28.5t-9 -38.5t-21 -42t-39 -39q-34 -24 -71 -30.5t-78 -8.5h-121v-227
z" />
    <glyph glyph-name="Q" unicode="Q" horiz-adv-x="854" 
d="M416 691q-9 0 -23.5 -1.5t-32 -6t-37.5 -12.5t-40 -23q-23 -17 -43 -41t-35 -58t-23.5 -79.5t-8.5 -104.5q0 -7 0.5 -29.5t3.5 -52.5t10 -63.5t20 -63.5q20 -48 50 -75.5t61 -41.5t59 -17.5t46 -3.5q40 0 71.5 9t55 22t40 28t25.5 27q19 25 31.5 57.5t20 67t10 69
t2.5 64.5q0 60 -8 105.5t-22.5 79.5t-34 58t-43.5 41q-9 7 -23.5 15.5t-34 15t-43.5 11t-54 3.5zM565 6q-14 -7 -29 -13.5l-30 -12.5l-40 -15.5l-40 -15.5l-41.5 -16.5l-40.5 -16.5q16 1 31 1.5t31 0.5q33 0 60 -3.5t52.5 -10.5t51 -16.5t54.5 -22.5l42.5 -18.5l43.5 -18.5
q36 -17 69.5 -29.5t74.5 -12.5q6 0 16.5 0.5t23.5 3.5t27.5 9t27.5 17q24 21 31 50q2 5 3.5 12.5t8.5 7.5q3 -1 6.5 -4t3.5 -10q0 -12 -4.5 -24t-5.5 -14q-8 -17 -24 -38.5t-51 -45.5q-40 -27 -70.5 -34t-52.5 -7q-11 0 -32 2.5t-47 12.5q-26 9 -54.5 24t-57 32.5l-56 34.5
l-50.5 31q-53 30 -88 40t-63 10q-36 0 -53 -10t-30 -19q-5 -4 -11 -7t-13 -3q-4 0 -13 4t-8 18q0 8 3 11l5 5q8 6 31 13t50 18q21 8 48.5 20.5t70.5 35.5q-14 1 -38 2t-53.5 7t-63.5 18.5t-68 35.5q-21 15 -47.5 39.5t-50 61t-39 87t-15.5 116.5q0 52 9 92.5t23 72
t30.5 54.5t30.5 38q8 9 26 26.5t47 34.5q31 20 64 31.5t62 17t51.5 7t34.5 1.5q73 0 138.5 -22.5t119.5 -72.5q16 -15 36 -38.5t37.5 -57t29 -77.5t11.5 -101q0 -42 -6.5 -77t-16.5 -62.5t-21.5 -48t-21.5 -34.5q-41 -57 -98 -94q-14 -8 -28.5 -15.5t-43.5 -17.5z" />
    <glyph glyph-name="R" unicode="R" horiz-adv-x="729" 
d="M239 367h82q8 0 15 0.5t15 1.5q6 0 17 1.5t24 5.5t27 13t25 24q11 14 19.5 40.5t8.5 65.5q0 51 -13.5 78t-32.5 42q-20 16 -41 21.5l-29 7.5q-16 2 -46 2.5t-71 0.5v-304zM279 706q46 0 82 -1.5t63.5 -6.5t49.5 -13.5t41 -21.5q16 -11 25.5 -21t14.5 -17q8 -11 20 -36.5
t12 -63.5q0 -57 -32.5 -99t-84.5 -62q-23 -9 -46 -12.5l-30 -4.5q36 -9 55.5 -16.5t33.5 -19.5t29 -31.5l38 -51.5l97 -136l15.5 -20t16.5 -19q17 -15 33.5 -17.5t37.5 -2.5v-33h-162q-14 13 -23.5 23t-19 22.5t-20.5 29.5t-27 44l-34.5 58l-36.5 58q-22 33 -37 52t-31 30
q-20 13 -46.5 14.5t-73.5 0.5v-210q0 -19 2.5 -40t19.5 -34q14 -11 33 -13t51 -3v-32h-316l1 32q38 2 58.5 5.5t32.5 20.5q8 10 10.5 24.5t2.5 38.5v466q0 19 -2.5 39t-19.5 33q-14 10 -30.5 11t-46.5 3v33h244z" />
    <glyph glyph-name="S" unicode="S" horiz-adv-x="542" 
d="M458 712l3 -191h-32q-2 9 -4.5 18.5t-5.5 18.5q-2 9 -7 22.5t-14 29t-23.5 31.5t-36.5 28q-10 6 -31 13.5t-52 7.5q-6 0 -19 -1t-28.5 -6.5t-31 -16t-25.5 -29.5q-3 -6 -8 -18t-4 -31q0 -18 4 -29.5t8 -18.5q11 -20 33 -38.5t64 -41.5q40 -22 72 -38l57 -29.5t44.5 -27
t34.5 -29.5q27 -29 37.5 -63t10.5 -73q0 -10 -2.5 -36.5t-13.5 -54.5q-6 -15 -20 -37t-37 -41.5t-56.5 -33.5t-79.5 -14q-27 0 -51 5t-44 12t-34.5 14t-22.5 12l-22 16l-22 16q-2 -6 -5 -12t-5 -12q-4 -9 -7 -18.5t-7 -18.5h-31v224h33q2 -9 6.5 -27.5t14.5 -41.5
q6 -13 18.5 -34.5t35 -42t54.5 -35.5t77 -15q8 0 24.5 1.5t36.5 9.5q9 3 23 11t27 22.5t22.5 35.5t9.5 50q0 9 -1.5 21.5t-7 27t-16.5 29.5t-29 29q-23 18 -63.5 39.5l-101.5 52.5q-29 15 -45 24t-30 19q-26 19 -40.5 39t-22 39.5t-9.5 36.5t-2 31q0 32 7 53t13 32
q26 49 74.5 72.5t101.5 23.5q29 0 62.5 -8t59.5 -21q10 -5 18.5 -11l17.5 -13q9 13 12.5 19.5t9.5 21.5h24z" />
    <glyph glyph-name="T" unicode="T" horiz-adv-x="667" 
d="M637 706l17 -178h-29q-8 28 -18 53.5t-30 47.5q-25 28 -54 33t-64 6h-73v-561q2 -27 7.5 -40.5t17.5 -21.5q15 -8 31 -9l47 -3v-33h-316l1 33q8 1 16.5 1t16.5 1q16 2 33 5.5t28 17.5q7 9 9 20.5t2 33.5v556h-77q-11 -1 -21 -1t-21 -2q-29 -4 -47 -14.5t-34 -35.5
q-19 -28 -27 -52t-11 -35h-30l19 178h607z" />
    <glyph glyph-name="U" unicode="U" horiz-adv-x="792" 
d="M321 706v-32q-19 -1 -33 -2t-24.5 -4t-18 -8t-13.5 -14q-11 -16 -12 -57v-339q0 -26 1 -55t9 -54q10 -30 30 -52t46 -35.5t56 -20t59 -6.5q47 0 95 16.5t79 54.5q15 19 23 40t11.5 43.5t3.5 45.5v46v290v13.5t-1 13.5q-2 33 -9.5 48t-24.5 23q-14 8 -31 9t-32 3v33h240
v-32q-12 -2 -23 -3.5t-22 -5.5q-19 -7 -29.5 -18.5t-16 -26t-7 -30.5t-1.5 -33v-287q-1 -27 -1.5 -47.5t-2 -36.5t-4.5 -29.5t-7 -26.5q-8 -24 -20.5 -42.5t-25.5 -31t-25 -21t-20 -12.5q-41 -23 -81.5 -31.5t-86.5 -8.5q-45 0 -80.5 6t-62.5 16t-47 23.5t-35 27.5
q-32 29 -47 67q-8 19 -11 38t-4 57v364q-1 18 -1.5 30t-2.5 20q-5 17 -15.5 25.5t-23.5 12t-28 4t-28 1.5v31h305z" />
    <glyph glyph-name="V" unicode="V" horiz-adv-x="792" 
d="M300 706v-32q-18 0 -33.5 -1t-26.5 -4t-17.5 -10t-6.5 -20q0 -8 4 -18.5t8 -18.5l125 -299l36 -87l18 -48.5t17 -48.5l187 469q7 17 10.5 27.5t3.5 19.5q0 13 -9 24q-11 11 -30 11.5t-48 1.5v34h243l-1 -33q-19 -1 -40.5 -4t-38.5 -14q-14 -9 -22 -24.5t-19 -44.5
l-245 -598h-39l-265 618q-3 8 -8.5 17.5t-10.5 16.5q-15 19 -37.5 25t-44.5 8v33h290z" />
    <glyph glyph-name="W" unicode="W" horiz-adv-x="1021" 
d="M296 706l-1 -32q-19 -2 -31.5 -2.5t-20.5 -2.5q-7 -2 -17.5 -8.5t-10.5 -26.5q0 -9 8 -35l84 -293l12 -41t11 -41q5 -19 8.5 -38t8.5 -38l171 558h32l141 -409q5 -17 11 -34t11 -34l11.5 -39l11.5 -38l10.5 42.5t11.5 42.5l103 350q2 9 5 21t3 21q0 18 -11 28t-31 12.5
t-51 3.5v33h243l-1 -33q-1 0 -6.5 -0.5t-13.5 -1.5t-17 -2.5t-16 -3.5q-29 -9 -40 -28t-19 -45l-178 -604h-38l-186 536l-165 -536h-41l-184 602q-9 27 -15.5 39.5t-17.5 22.5q-15 12 -33 16.5t-36 6.5v31h284z" />
    <glyph glyph-name="X" unicode="X" horiz-adv-x="771" 
d="M346 706l-1 -33q-8 0 -16 -0.5t-16 -0.5q-20 -2 -30 -7t-10 -19q0 -6 3 -12t9 -16l124 -183l126 166q11 14 16.5 23t5.5 17q0 4 -1.5 9.5t-9.5 10.5q-10 7 -28.5 8.5l-44.5 3.5v33h260v-34q-17 -1 -29.5 -2.5t-22 -3t-17 -4t-16.5 -6.5t-16 -8.5t-14 -11t-15 -15.5
t-18 -23l-151 -199l187 -276q9 -12 17.5 -24.5t18.5 -23.5q23 -26 46.5 -33t56.5 -10v-32h-308v31q23 1 39.5 2t25.5 6q8 5 9.5 12t1.5 10q0 8 -4 16t-8 15l-149 219l-159 -208q-10 -13 -15.5 -21.5t-5.5 -16.5t4 -13q9 -14 29.5 -16t51.5 -4v-32h-263v32q2 0 18 1t29 3
q43 9 68.5 33.5t50.5 59.5l167 219l-168 247l-18 26t-22 25q-13 11 -27.5 17t-27 8t-23 2.5t-15.5 0.5v32h305z" />
    <glyph glyph-name="Y" unicode="Y" horiz-adv-x="729" 
d="M313 706v-33h-15t-18.5 -0.5t-18.5 -1.5t-14 -4q-2 -2 -7 -6.5t-5 -14.5q0 -6 2.5 -11.5l7.5 -16.5l151 -263l154 256q1 2 6.5 11t5.5 19q-1 9 -6 15.5t-22 10.5q-10 2 -27.5 3t-42.5 3v33h253v-33q-20 -2 -34 -4.5t-24 -6t-18 -8t-16 -11.5q-12 -11 -18.5 -19.5
t-14.5 -21.5l-175 -289v-208q0 -19 2.5 -28.5t7.5 -18.5q7 -10 19 -15.5t26 -7.5t27.5 -2.5t23.5 -0.5v-32h-318v32q7 1 13.5 1.5t13.5 0.5q16 1 34 3.5t30 16.5q8 8 11 21t4 36v200l-187 300q-12 19 -23.5 30.5t-24 18t-28.5 9t-38 4.5v33h303z" />
    <glyph glyph-name="Z" unicode="Z" horiz-adv-x="625" 
d="M597 706v-15l-447 -651h235q11 0 21 0.5t21 1.5q10 0 22.5 1.5t27 6.5t29.5 15t29 29q10 13 18 28t13 28.5l8.5 23.5t4.5 14h34l-20 -188h-583v17l446 648h-220q-14 0 -39.5 -2.5t-54.5 -22.5q-31 -21 -43.5 -48t-22.5 -61h-34l20 175h535z" />
    <glyph glyph-name="bracketleft" unicode="[" 
d="M281 783v-35h-101v-927h101v-36h-181v998h181z" />
    <glyph glyph-name="backslash" unicode="\" horiz-adv-x="354" 
d="M36 706h59l229 -724h-60z" />
    <glyph glyph-name="bracketright" unicode="]" 
d="M10 -215v35h101v926h-101v37h181v-998h-181z" />
    <glyph glyph-name="asciicircum" unicode="^" horiz-adv-x="729" 
d="M497 350l-131 274l-134 -274h-76l180 356h63l174 -356h-76z" />
    <glyph glyph-name="underscore" unicode="_" horiz-adv-x="500" 
d="M-10 -206v59h520v-59h-520z" />
    <glyph glyph-name="quoteleft" unicode="&#x2018;" horiz-adv-x="250" 
d="M192 694q-25 -19 -46 -38.5t-33 -49.5q-1 -3 -4 -14t-3 -23q0 -14 3 -27t5 -16q2 1 11.5 3.5t19.5 2.5q24 0 40.5 -17t16.5 -42q0 -4 -1 -11.5t-6 -16.5q-8 -14 -24 -22.5t-32 -8.5q-5 0 -16 2t-23 10q-27 17 -38.5 45.5t-11.5 58.5q0 47 21 85.5t57 65.5q11 8 22.5 15
t34.5 18z" />
    <glyph glyph-name="a" unicode="a" horiz-adv-x="479" 
d="M299 248l-27 -9.5l-27 -9.5l-13.5 -4l-13.5 -4q-4 -1 -14.5 -4t-23.5 -9.5t-25 -17.5t-19 -28q-6 -15 -6 -34q0 -3 0.5 -11t4.5 -17q5 -13 20 -28t48 -15q30 0 52 12.5t44 29.5v149zM385 87q1 -15 6 -28.5t24 -13.5q8 0 12.5 2t6.5 4q11 7 16.5 17t10.5 31h31
q-2 -10 -6 -22.5t-9 -21.5q-3 -7 -9.5 -17t-17 -19.5t-26.5 -16t-37 -6.5q-37 0 -54.5 15.5t-24.5 29.5q-3 8 -4 15t-3 15l-22 -21t-37 -26q-30 -19 -50.5 -23.5t-37.5 -4.5q-53 0 -83 30t-30 83q0 27 6.5 46t16 32t20.5 21.5t21 13.5q33 17 64 23t66 14q31 7 64 20v52
q0 27 -4 38q-2 8 -7 17t-14 16.5t-23 12.5t-34 5q-5 0 -13 -0.5t-17 -3.5t-18 -9.5t-16 -18.5q-4 -8 -5 -12t-3 -17l-2.5 -13t-6.5 -15t-14.5 -12t-24.5 -5q-29 0 -38 13t-9 25q0 8 4.5 19t15.5 25q18 21 41.5 32.5t46 17t40 6t24.5 0.5q67 0 104 -21.5t50 -49.5q5 -8 6 -16
l3 -25v-253z" />
    <glyph glyph-name="b" unicode="b" horiz-adv-x="562" 
d="M162 112q1 -2 6.5 -10.5t11.5 -15.5q14 -18 29.5 -29t30.5 -17t28 -7.5t22 -1.5q29 0 47 9t27 16q26 22 42.5 61t16.5 109q0 38 -7 73.5t-32 65.5q-13 14 -24.5 21.5t-18.5 10.5q-15 7 -29 8t-20 1q-42 0 -69 -15.5t-38 -26.5q-5 -5 -10 -12t-13 -21v-219zM162 390
q14 14 29 26q17 13 35 20.5t34 11t29 4t20 0.5q11 0 28.5 -1.5t38.5 -7.5t43.5 -19t43.5 -37q9 -10 18.5 -25t17.5 -35t13.5 -46t5.5 -57q0 -13 -2 -35.5t-10 -48.5t-24.5 -54t-46.5 -52q-21 -17 -41 -26t-38 -13.5t-33 -5.5t-25 -1q-48 0 -81.5 13.5t-72.5 38.5
q-13 -13 -19 -21t-15 -23h-35v627q0 8 -0.5 14.5t-5.5 14.5q-4 7 -11 11.5t-15 6.5t-17 3t-16 1v29q33 4 54 7t37 7t29.5 8.5l31.5 10.5v-346z" />
    <glyph glyph-name="c" unicode="c" horiz-adv-x="458" 
d="M435 100q-8 -19 -13.5 -28.5t-11.5 -17.5q-18 -25 -40.5 -39t-44.5 -20.5t-39.5 -8t-26.5 -1.5q-13 0 -38.5 3t-56.5 17q-44 19 -68.5 48.5t-36.5 60t-14.5 58t-2.5 41.5q0 32 4.5 54t8.5 34q23 71 80 111t130 40q50 0 80 -15t44 -28q1 -2 5 -6t8.5 -10t8 -14.5
t3.5 -17.5q-1 -11 -8.5 -24.5t-33.5 -13.5q-14 0 -22 4t-13 6q0 1 -1.5 14t-4.5 22q-8 23 -27 33.5t-42 10.5q-29 0 -53 -15t-39 -38q-11 -17 -21 -48t-10 -79q0 -2 0.5 -18t4.5 -38.5t12.5 -48.5t24 -47.5t40.5 -36t61 -14.5q6 0 17.5 1t25 5.5t28 13t26.5 23.5q7 8 13 18
t11 21z" />
    <glyph glyph-name="d" unicode="d" horiz-adv-x="562" 
d="M386 341q-2 2 -9 10.5t-15 16.5q-10 10 -32.5 23t-59.5 13q-8 0 -25.5 -2.5t-37.5 -13.5q-28 -17 -49.5 -56.5t-21.5 -111.5q0 -50 11 -85t29.5 -57.5t42 -32.5t48.5 -10q27 0 53.5 12t45.5 32q6 7 10.5 13.5l9.5 13.5v235zM475 81q0 -8 1.5 -15t7.5 -14q8 -11 22 -13
t39 -3l-1 -31q-24 0 -40.5 -1t-31.5 -2.5t-31.5 -5l-39.5 -8.5q-2 7 -4 13t-3.5 12.5t-3 15t-3.5 21.5l-23 -19t-31 -20.5t-42 -16t-56 -6.5q-8 0 -29 2t-44 11q-20 8 -41 24t-39 42.5t-29.5 63.5t-11.5 87q0 12 2 38t12.5 56.5t31.5 61.5t60 52q32 18 60.5 22t40.5 4
q5 0 16.5 -1t26.5 -4t31.5 -9t31.5 -16l13 -10t19 -17v235q0 9 -1.5 14t-3.5 9q-8 14 -25.5 16t-45.5 2v30q36 3 59 5.5t40 6.5t31.5 9.5l34.5 13.5v-655z" />
    <glyph glyph-name="e" unicode="e" horiz-adv-x="479" 
d="M346 274q-1 20 -3 45t-10 45q-3 7 -9.5 15.5t-16.5 16t-25 13t-34 5.5q-9 0 -26 -2.5t-34 -16.5q-28 -23 -36.5 -56t-12.5 -65h207zM137 237q0 -24 1.5 -50t7 -51t18 -46.5t35.5 -37.5q9 -7 28 -15t48 -8q8 0 22 1.5t32 9.5q27 11 45 29t35 40l27 -16l-15 -21t-15 -20
q-20 -24 -41.5 -37t-42 -19.5t-37.5 -8t-29 -1.5q-10 0 -25.5 1t-34.5 6t-40 15t-42 28q-27 23 -41.5 49t-21.5 50.5t-8 44.5t-1 32q0 10 1 27t5.5 38t13.5 44.5t26 46.5q7 10 20.5 24.5t34 28t48.5 22.5t64 9q8 0 29.5 -2t44.5 -12q10 -5 25 -14t30.5 -24t28.5 -37.5
t21 -52.5q3 -11 4.5 -22.5t2 -22t1 -18t0.5 -9.5z" />
    <glyph glyph-name="f" unicode="f" 
d="M278 440v-32h-96v-326q1 -8 2 -17.5t6 -17.5q7 -11 23 -13.5t39 -4.5v-29h-228l1 29q8 1 15.5 1.5t15.5 1.5q26 4 32.5 17.5t6.5 37.5v321h-76v32h76v54q0 11 0.5 21.5t0.5 21.5q0 9 1.5 26.5t8 38.5t20 42.5t38.5 39.5q14 10 37.5 21t62.5 11q52 -1 76.5 -22t24.5 -47
q0 -19 -12 -31t-31 -12q-16 0 -27.5 10t-12.5 27v9.5t-2 13t-8 11.5t-19 5q-10 0 -18.5 -3t-16.5 -8q-26 -17 -30.5 -44.5t-5.5 -54.5v-130h96z" />
    <glyph glyph-name="g" unicode="g" horiz-adv-x="500" 
d="M232 423q-8 0 -26 -3.5t-33 -22.5q-12 -15 -20 -43t-8 -70v-13t2.5 -25.5t7.5 -30.5t16 -28q7 -8 16 -13q14 -8 25 -10t18 -2q40 0 63.5 34t23.5 106q0 3 -0.5 22.5t-8 41.5t-25 39.5t-51.5 17.5zM364 400q2 2 3.5 3t3.5 3q1 1 2 1.5t2 1.5q3 2 11 9t19.5 14t26.5 12.5
t31 5.5q29 0 39.5 -15t10.5 -27q0 -18 -10.5 -27.5t-27.5 -9.5q-5 0 -12.5 2t-15.5 11q-3 5 -8 11t-20 6q-10 0 -18.5 -3.5t-22.5 -14.5q7 -13 15 -35t8 -57q0 -14 -4.5 -40.5t-27.5 -54.5q-14 -17 -39.5 -33t-73.5 -22q-14 -2 -31 -3.5t-34 -3.5t-33 -6t-28 -11
q-2 -1 -10.5 -7t-8.5 -17t10.5 -14.5t27.5 -4.5q42 -2 82 -2.5t82 -4.5q47 -4 71 -12t42 -24q14 -11 28.5 -34.5t14.5 -65.5q0 -12 -2.5 -34.5t-14.5 -49.5q-9 -19 -25 -40t-42.5 -39t-63 -30t-85.5 -12q-17 0 -56 4.5t-83 27.5q-25 13 -41 28.5t-25 31.5t-12 30.5t-3 26.5
q0 7 1.5 18t7 23t15.5 23.5t27 20.5q7 4 17 7.5t26 7.5q9 2 17.5 3.5t22.5 2.5h4h4q0 -1 -0.5 -1t-0.5 -1q-3 -2 -7 -4l-8 -4q-11 -7 -20 -16q-9 -8 -20.5 -25.5t-11.5 -47.5q0 -8 2 -22t12 -31q14 -23 35 -35t42 -17.5t37.5 -6.5t21.5 -1q34 0 57.5 7t35.5 13q6 3 17 9
t22.5 17.5t19.5 27.5t8 39q0 7 -2 22t-15 30q-16 20 -44 27t-77 12q-43 3 -89 9q-4 1 -22 4.5t-35 9.5q-18 7 -29 17.5t-17 22t-8 21.5t-2 18q0 7 2 17.5t12 22.5q11 14 27.5 22t48.5 18l-22.5 10.5t-20.5 13.5q-16 12 -31.5 38t-15.5 72q0 37 13 67t35.5 51t54 32.5
t67.5 11.5q13 0 42 -4t59 -22q9 -5 17 -11.5z" />
    <glyph glyph-name="h" unicode="h" horiz-adv-x="562" 
d="M181 392l14 10l14 10q6 4 18 11t28.5 13.5t37 11t43.5 4.5q10 0 33 -3t47 -17q21 -12 33 -27.5t17 -33.5t6 -38t1 -42v-220q0 -7 0.5 -12t4.5 -11q8 -13 23.5 -15t41.5 -4v-29h-229v29q24 3 39 4.5t23 10.5q8 8 8.5 16t1.5 11v208v15.5t-1 15.5q-2 23 -7.5 41.5
t-25.5 32.5q-7 5 -21 10t-35 5q-24 0 -49 -8t-45 -22q-8 -6 -14 -11.5t-8 -7.5v-275q0 -1 0.5 -6t2 -11t5 -12t10.5 -9q9 -5 26 -6t26 -2v-29h-230l1 29q5 1 10 1.5t11 0.5q11 1 22 3.5t19 12.5q7 8 8 19.5t1 13.5v547q0 11 -1 16.5t-4 10.5q-8 14 -25 16.5t-46 2.5v30
q28 2 47.5 4t36.5 5t35.5 9l44.5 15z" />
    <glyph glyph-name="i" unicode="i" horiz-adv-x="271" 
d="M181 82q0 -1 0.5 -12.5t5.5 -19.5q7 -11 23 -14.5t41 -5.5v-30h-228l1 31q25 2 40 4.5t23 12.5q3 5 4.5 9.5t2.5 15.5v256q0 9 -1 16.5t-6 15.5q-10 16 -30 17.5t-39 1.5v31q35 3 58 7t40 8.5t31.5 10t33.5 13.5v-368zM97 567q-16 16 -16 38q0 23 16 38t38 15
q23 0 38 -15.5t15 -37.5q0 -23 -16 -38t-38 -15q-15 0 -24 5.5t-13 9.5z" />
    <glyph glyph-name="j" unicode="j" horiz-adv-x="250" 
d="M84 567q-15 17 -15 38q0 23 16 38t38 15q23 0 38 -16t15 -38q0 -23 -16 -38t-38 -15q-15 0 -24 6t-14 10zM175 -85q0 -2 -0.5 -21t-2.5 -35q-1 -9 -5 -24t-13 -32t-23 -35t-36 -33q-12 -8 -33.5 -17t-55.5 -9q-48 0 -75 18.5t-27 43.5q0 3 1.5 9.5t6.5 13.5
q7 8 15.5 10.5t12.5 1.5q8 0 13.5 -2t7.5 -4q9 -7 15.5 -17.5t14.5 -18.5q15 -13 34 -13q17 0 30 10t21 24q7 14 8.5 31t2.5 46v467q-1 5 -1 10t-1 10q-3 13 -11.5 19.5t-19 9t-22 2.5h-21.5v30q36 4 59 7.5t40 8.5t31.5 11l33.5 14v-536z" />
    <glyph glyph-name="k" unicode="k" horiz-adv-x="521" 
d="M177 253l140 111q5 5 9.5 10t4.5 13q-1 11 -13 16.5t-32 7.5v29h184v-29q-14 -3 -24 -6.5t-21 -8.5t-24.5 -13.5t-33.5 -22.5l-103 -81l175 -201q11 -11 19.5 -18.5t17 -12.5t19 -9t25.5 -9v-29h-201v29q8 1 18 1.5t16 5.5t6 9q0 3 -5 9.5t-7 8.5l-146 166l-24 -19v-133
q0 -8 1.5 -18t8.5 -17q7 -6 18.5 -8.5t30.5 -4.5v-29h-216v29q8 1 20.5 2t19.5 3q18 4 24 13.5t6 26.5v556q0 2 -0.5 8.5t-3.5 12.5q-8 14 -25.5 17t-46.5 5v30q28 2 47 4t36 5.5t35 9t45 14.5v-483z" />
    <glyph glyph-name="l" unicode="l" horiz-adv-x="271" 
d="M181 77q0 -2 0.5 -11.5t6.5 -17.5q8 -11 23.5 -14.5t39.5 -4.5v-29h-229v29q22 1 35.5 3.5t21 8t10.5 14.5t3 23v553q0 12 -5 22q-8 14 -25.5 16.5t-46.5 3.5l1 29q28 1 47.5 2.5t37 5.5t36 10t44.5 16v-659z" />
    <glyph glyph-name="m" unicode="m" horiz-adv-x="854" 
d="M832 0h-227v29q26 1 42 4.5t24 15.5q3 5 3.5 10.5t0.5 12.5v234q0 5 -0.5 15t-4.5 22q-9 29 -33.5 42.5t-52.5 13.5q-21 0 -40 -6q-24 -8 -40 -19t-34 -28q1 -9 1.5 -17.5t1.5 -17.5v-237q0 -28 14 -36t56 -9v-29h-228v29q24 1 39.5 3.5t23.5 11.5q7 8 7.5 16.5t0.5 11.5
v226v12.5t-2 19.5t-7.5 23t-15.5 22q-13 11 -31 18q-5 2 -14.5 3.5t-23.5 1.5q-37 0 -60.5 -13.5t-50.5 -36.5v-271q1 -21 6 -28q8 -11 24 -14.5t41 -5.5v-29h-228v29q42 2 56.5 11.5t14.5 36.5v263q0 3 -1.5 12.5t-9.5 16.5q-10 8 -25.5 9.5t-39.5 1.5v30q25 4 41.5 7
t31.5 7t30.5 10t38.5 16q6 -20 8.5 -32t5.5 -32l22.5 17t35.5 22t48 19t59 8q43 -1 68 -15.5t37 -27.5l8 -10.5t10 -16.5l22 18t36.5 23.5t48.5 20t60 8.5q39 0 75 -18t50 -58q5 -14 6 -30t2 -45v-233v-7.5t3 -11.5q4 -7 12.5 -11t18.5 -6t19.5 -2.5t15.5 -0.5v-29z" />
    <glyph glyph-name="n" unicode="n" horiz-adv-x="562" 
d="M473 72q0 -9 1 -14t3 -9q7 -12 23.5 -15.5t42.5 -4.5v-29h-228v29q8 1 16.5 1.5t16.5 2.5q4 0 13.5 2.5t17.5 11.5q5 5 5.5 11t0.5 14v225q-1 26 -6.5 49.5t-30.5 39.5q-12 8 -25.5 11t-27.5 3q-23 0 -42 -6.5t-33.5 -15t-24.5 -17.5t-15 -14v-272q1 -28 16.5 -36
t55.5 -10v-29h-229l1 29q13 0 32.5 2.5t29.5 13.5q6 8 7 16t1 16v263v9.5t-5 13.5q-8 14 -25 16t-46 2l1 30q30 4 50 8.5t35 9t27.5 9.5t28.5 12l6.5 -22.5t4 -15t2 -12.5t2.5 -14l15.5 11.5l15.5 11.5q7 5 19.5 12.5t30 14t38.5 11.5t47 5q28 0 49.5 -7.5t36 -18.5
t23.5 -23.5t14 -23.5q6 -16 7 -30.5l2 -30.5v-246z" />
    <glyph glyph-name="o" unicode="o" horiz-adv-x="542" 
d="M270 419q-11 0 -26.5 -2.5t-32 -11t-31.5 -25t-25 -43.5q-7 -18 -10.5 -38t-5 -38t-2 -31t-0.5 -17q0 -5 0.5 -21.5t4 -39t12 -46.5t24.5 -44q14 -17 31 -28q9 -5 23.5 -9.5t38.5 -4.5q42 0 68.5 19t40.5 48.5t19 64.5t5 67q0 3 -0.5 17t-2.5 33t-6 40.5t-12 38.5
q-2 4 -7.5 14t-14.5 20q-36 39 -91 37zM274 452q24 0 43.5 -4t27.5 -6q40 -11 69 -32t48 -50t28 -64.5t9 -74.5q0 -10 -1 -27.5t-6.5 -40t-16.5 -47t-31 -47.5q-23 -27 -48.5 -42t-49.5 -21.5t-44 -8t-32 -1.5q-11 0 -37.5 2t-57.5 13q-47 18 -74 48.5t-40 62.5t-16 60.5
t-3 42.5q0 55 14 90t27 54q24 35 57 55.5t73 29.5q20 5 36.5 6.5t24.5 1.5z" />
    <glyph glyph-name="p" unicode="p" horiz-adv-x="562" 
d="M177 85l6 -6t7 -5q32 -28 58.5 -35.5t44.5 -7.5q5 0 18.5 1.5t27.5 7.5q37 15 62 61t25 130q0 39 -5.5 63.5t-11.5 40.5q-4 9 -8 16.5t-10 15.5q-8 11 -16 18t-12 9q-19 11 -35.5 14t-24.5 3t-28 -4t-42 -18q-11 -8 -20.5 -17.5t-17 -19t-12.5 -17t-6 -9.5v-241z
M177 -213q0 -2 1 -9.5t4 -14.5q8 -14 23.5 -15.5t42.5 -0.5v-30h-230l1 30q37 1 52.5 6.5t17.5 31.5v549q-1 10 -3 18t-10 15q-11 11 -29.5 12t-32.5 2v30q18 3 31.5 5.5t29 6.5t34.5 11.5l48 19.5q8 -30 15 -64l21 17.5t31 20.5t41.5 17t53.5 7q12 0 35 -2.5t51 -16.5
q41 -20 64 -50.5t34.5 -62t14 -58.5t2.5 -38t-1.5 -32t-9.5 -48q-4 -15 -15.5 -41.5t-34 -52t-58 -44t-87.5 -18.5q-27 0 -48.5 5.5t-38.5 13t-29.5 15.5t-20.5 14v-249z" />
    <glyph glyph-name="q" unicode="q" horiz-adv-x="542" 
d="M380 349q-5 6 -14.5 15.5t-24 19.5t-33.5 17t-43 7q-8 0 -26 -3t-37 -17q-26 -19 -45.5 -61.5t-19.5 -114.5q0 -77 25.5 -118t59.5 -54q8 -3 18 -5t27 -2q37 0 61 13.5t53 35.5zM467 -206q0 -1 0.5 -9t2.5 -15q5 -14 16 -18t24 -5h27v-30h-227v30h12h10.5t9.5 1
q25 3 31.5 15.5t7.5 35.5l-1 243q-17 -14 -32.5 -24t-32 -16.5t-34.5 -10t-41 -3.5q-10 0 -24.5 1t-31.5 6t-35.5 15t-37.5 28q-11 10 -23 25t-22 36t-16.5 48.5t-6.5 62.5q0 48 14 95q23 66 76 106.5t124 40.5q21 0 37.5 -3t31.5 -9t30 -14t32 -18l28 13.5t19.5 10.5
l15.5 9.5l16 10.5v-658z" />
    <glyph glyph-name="r" unicode="r" horiz-adv-x="375" 
d="M182 76l2 -16.5t9 -15.5q8 -8 27.5 -10.5t44.5 -4.5v-29h-241v29q24 2 39.5 5t23.5 12q3 5 4.5 9t2.5 14v259q0 8 -1 16.5t-5 16.5q-8 14 -25 16t-45 3l1 30q24 3 41 5.5t32 6.5t31 10.5l39 16.5l6.5 -23t4 -16.5t3 -16.5t3.5 -24q4 4 7.5 8t7.5 8l13.5 14t24 20t33 17.5
t41.5 7.5q18 0 30 -6t19 -14.5t10 -18t3 -16.5q0 -17 -11 -30.5t-29 -12.5q-6 0 -10 1t-6 2q-9 5 -13 13.5t-12 15.5t-15 8t-12 1q-26 0 -45 -17.5t-33 -35.5v-258z" />
    <glyph glyph-name="s" unicode="s" horiz-adv-x="375" 
d="M319 441l2 -145h-24q-1 2 -5 17.5t-10 28.5q-14 29 -40.5 51.5t-61.5 22.5q-26 0 -44.5 -16.5t-18.5 -43.5q0 -17 9 -32t38 -32q27 -14 63.5 -30t60.5 -34l16.5 -14.5t18 -21.5t14 -30.5t5.5 -41.5q0 -20 -4.5 -35t-6.5 -23q-11 -25 -27.5 -40t-34 -22.5t-33 -9.5
t-24.5 -2q-23 0 -43 6t-35.5 13.5t-26.5 15.5t-17 13q-11 -18 -18 -36h-25v154l24 -1q1 -7 5 -21.5t12 -31.5t22.5 -33t38.5 -26q17 -8 30 -9.5t21 -1.5q11 0 19.5 2t12.5 4q19 7 31 23t12 37q0 18 -7.5 30.5t-19.5 22.5t-26 17l-27 14l-33 16t-32 17q-36 21 -58 47.5
t-22 71.5q0 14 1.5 24.5t6.5 22.5q3 9 11 22t21.5 24t33 19t46.5 8q22 0 39 -5.5t29.5 -13.5t21.5 -16t15 -14q7 10 10 15.5t10 22.5h24z" />
    <glyph glyph-name="t" unicode="t" 
d="M161 598v-158h117v-32h-117v-281v-10t2 -21t8 -23.5t18 -18.5q3 -2 10 -4t16 -2q24 0 41 15t31 32l22 -19q-20 -26 -39 -45t-51 -30q-4 -2 -15.5 -4.5t-25.5 -2.5q-18 0 -35 5.5t-31 16.5q-4 2 -7.5 6t-9.5 12q-15 22 -17.5 45t-3.5 48l3 281h-56v23q13 4 32 12t39 34
q20 29 26 59t8 62h35z" />
    <glyph glyph-name="u" unicode="u" horiz-adv-x="542" 
d="M170 440v-316q2 -23 7.5 -42.5t27.5 -32.5q14 -8 27 -10t18 -2q13 0 34.5 5t47.5 23q11 8 16.5 13t14.5 14v263q-1 12 -4 23t-14 19t-28.5 9t-30.5 2v32h163v-365q1 -8 2.5 -16t7.5 -15q8 -9 25 -10.5l41 -3.5l-1 -30q-25 0 -42.5 -0.5t-33.5 -2t-33 -3.5l-42 -5
q-6 30 -9 62q-8 -6 -21 -17t-31.5 -21t-42.5 -17.5t-53 -7.5q-38 0 -72.5 17t-50.5 54q-5 12 -7 24.5t-3 38.5v234q-1 13 -2 19t-4 12q-8 12 -24 15.5t-42 5.5v32h159z" />
    <glyph glyph-name="v" unicode="v" horiz-adv-x="521" 
d="M210 440l-1 -29q-6 0 -13 -1t-13.5 -3t-10.5 -7t-4 -14q0 -6 2 -11.5l4 -11.5l111 -250l112 251q3 9 5 13.5t2 9.5q-1 14 -14 18t-34 6v29h154l-1 -29q-19 -2 -30.5 -5.5t-18 -8.5t-10.5 -12.5l-9 -17.5l-168 -367h-28l-170 367l-7.5 14.5t-5.5 8.5q-14 16 -29.5 18
t-21.5 3v29h199z" />
    <glyph glyph-name="w" unicode="w" horiz-adv-x="729" 
d="M206 440l-1 -29q-20 -2 -32 -6.5t-12 -18.5q0 -4 2 -10.5t4 -10.5l83 -246l121 321h34l114 -323l99 251q2 5 3.5 10.5t1.5 10.5q0 14 -13.5 17t-34.5 5v29h149l-1 -29q-29 -3 -42.5 -12t-25.5 -36l-144 -363h-35l-113 316l-121 -316h-37l-130 366l-7.5 16.5t-10 13
t-17.5 9.5t-29 6v29h195z" />
    <glyph glyph-name="x" unicode="x" horiz-adv-x="542" 
d="M517 411q-14 -1 -24 -1.5t-18.5 -3t-17 -8.5t-18.5 -16l-127 -139l135 -169l11.5 -13t8.5 -9q20 -19 37 -21t28 -2v-29h-219v29q8 0 16 0.5t17 0.5q1 0 9 0.5t8 9.5q0 3 -3 7.5t-7 9.5l-99 125l-110 -120l-7.5 -10.5t-2.5 -8.5t5 -9q6 -5 19 -5h18v-29h-164v29
q18 0 33.5 2t29.5 13q8 6 13 12t12 13l130 143l-123 154q-5 5 -11.5 13t-11.5 12q-8 7 -17.5 11t-18 6t-15 2.5t-9.5 0.5v29h207v-29q-15 0 -27 -1.5t-12 -12.5q1 -5 5 -9.5t9 -12.5l82 -102l90 98q7 8 11 13t4 11q0 2 -1 5.5t-6 5.5q-3 2 -16 3l-26 2v29h173v-29z" />
    <glyph glyph-name="y" unicode="y" horiz-adv-x="521" 
d="M214 440v-29q-9 0 -18 -1t-17 -6q-2 -1 -6.5 -5t-4.5 -13q0 -5 2.5 -10t6.5 -14l110 -243l112 248q7 17 7 22q0 9 -6 13.5t-14 6.5t-16.5 2h-12.5v29h153v-29q-2 -1 -13.5 -1.5t-21.5 -4.5q-17 -7 -24.5 -19t-9.5 -17l-8 -16l-177 -394l-39 -83t-40 -82q-8 -15 -17 -30
t-21 -27t-27.5 -19.5t-34.5 -7.5q-17 0 -34 9.5t-17 30.5q0 8 3 15t5 9q5 -1 8 -1h9q17 1 42.5 12t49.5 43q21 26 44.5 71.5t55.5 115.5l-168 356q-8 15 -16 22.5t-16 11.5t-16.5 5t-15.5 1v29h203z" />
    <glyph glyph-name="z" unicode="z" horiz-adv-x="437" 
d="M401 440v-29l-269 -375h150q19 0 32 7t32 36q7 10 11.5 17.5l9 15.5t8.5 16.5l9 19.5h27l-9 -148h-377v31l271 376h-144q-14 0 -21 -1t-13 -4q-9 -5 -17.5 -16.5t-16.5 -25t-14 -27t-10 -21.5h-29l16 128h354z" />
    <glyph glyph-name="braceleft" unicode="{" horiz-adv-x="354" 
d="M152 583q1 36 9 70t36 60q13 11 26 17t18 8q14 5 36 6.5t36 3.5v-6q-23 -6 -41.5 -14.5t-32.5 -29.5q-19 -27 -20.5 -59.5t-1.5 -62.5v-99v-52.5t-2 -52.5q0 -2 -0.5 -11.5t-2.5 -22.5t-6.5 -27t-12.5 -25q-11 -16 -24.5 -24t-30.5 -14q7 -2 20 -7.5t27 -19.5
q13 -14 20 -31.5t9.5 -40.5t3 -51.5t0.5 -65.5v-111q0 -43 2.5 -65.5t12.5 -42.5q14 -28 33.5 -39t46.5 -19v-5q-8 1 -16 1.5t-16 1.5q-6 0 -16 1t-22.5 5t-26.5 11t-26 20q-15 15 -22.5 34t-11 39.5t-4 41t-0.5 39.5v163q0 28 -3 57t-21 53q-12 16 -24 22t-20 8v5q6 2 19 7
t24 19q10 12 15 29.5t7 37t2.5 37.5t0.5 32v169z" />
    <glyph glyph-name="bar" unicode="|" horiz-adv-x="229" 
d="M85 -250v998h59v-998h-59z" />
    <glyph glyph-name="braceright" unicode="}" horiz-adv-x="354" 
d="M203 -43q-1 -11 -1 -21.5v-21.5q-1 -35 -9 -69t-36 -60q-13 -12 -26 -18t-18 -8q-14 -5 -36 -6.5l-36 -2.5v5q23 6 41.5 15t32.5 29q19 27 20.5 60t1.5 62v100v52.5t2 52.5q1 22 5 44.5t17 41.5q14 20 31 27.5t24 9.5q-7 2 -20 8t-26 20q-14 14 -21 31.5t-9.5 40t-3 51.5
t-0.5 65v152q0 5 -1 17.5t-5.5 28t-13.5 31t-26 27.5q-11 8 -23.5 12.5t-25.5 8.5v6q8 -1 15.5 -1.5t15.5 -1.5q6 -1 16.5 -2t24 -5t27.5 -12t27 -22q14 -15 21 -33.5t10 -38.5t3.5 -40t0.5 -39v-162q0 -28 3 -57t21 -53q12 -16 24 -22t20 -9v-5q-5 -2 -18.5 -6.5
t-24.5 -18.5q-10 -12 -15 -30t-7 -37t-2 -38v-32v-126z" />
    <glyph glyph-name="asciitilde" unicode="~" horiz-adv-x="729" 
d="M341 269l-10.5 5t-20 8.5t-25.5 8t-27 3.5q-17 0 -30 -5.5t-23.5 -15t-19.5 -21l-18 -23.5l-33 55q4 6 13.5 19t25 26.5t36.5 23.5t49 10q30 0 58 -11t54 -24l33 -15q25 -11 37.5 -15.5t27.5 -4.5q32 1 54.5 20.5t41.5 42.5l31 -55q-37 -47 -68 -62t-60 -15
q-21 0 -40.5 7t-56.5 24z" />
    <glyph glyph-name="exclamdown" unicode="&#xa1;" 
d="M166 665q12 -12 14.5 -24t2.5 -18q0 -24 -17.5 -41t-41.5 -17t-41 17.5t-17 41.5t17.5 41t41.5 17q6 0 18 -3t23 -14zM106 459q0 3 2.5 12t16.5 9q13 0 15.5 -10t2.5 -12l30 -403q0 -6 -0.5 -16.5t-5.5 -20t-15.5 -16.5t-29.5 -7q-20 0 -30 7.5t-14 17.5t-4.5 20t-0.5 15
z" />
    <glyph glyph-name="sterling" unicode="&#xa3;" horiz-adv-x="792" 
d="M249 73q-42 14 -65 19t-45 5q-37 0 -57.5 -12.5t-20.5 -32.5q0 -3 1 -7t6 -11q6 -8 19 -14t35 -6q27 0 47.5 7t36 16.5t26 19.5t17.5 16zM547 341v-30h-163l-3 -28t-7 -43.5t-13.5 -53t-22.5 -55.5q-6 -11 -12.5 -21l-13.5 -21q51 -13 96.5 -22.5t97.5 -9.5
q51 0 80.5 10.5t48.5 21.5q4 2 19 12t24 27q5 8 6 15t1 16l15 2q1 -3 2 -12t0 -20q-1 -12 -6 -33t-22 -46q-7 -10 -20 -24t-32.5 -26.5t-46 -21t-60.5 -8.5q-8 0 -21.5 1t-33.5 6q-18 4 -35.5 10.5t-38 15.5t-45 21.5l-57.5 29.5q-2 -2 -12 -10.5t-19 -14.5
q-20 -13 -41 -20.5t-40 -11.5t-33.5 -5t-21.5 -1q-3 0 -13 0.5t-22.5 3t-26 7.5t-25.5 15q-5 4 -12 13t-7 25q0 32 32 49.5t90 17.5q36 0 68 -6.5t67 -14.5l7 19t5.5 17.5t4 22t2.5 32.5q2 29 2.5 59t1.5 60h-148v30l149 1q2 20 3 41t3 41q3 30 8.5 56t14.5 50t23 46.5
t34 45.5q22 24 38.5 37t28.5 21q7 5 20.5 12t31.5 13.5t40 11t48 4.5q7 0 23.5 -1.5t35.5 -8.5q25 -9 40 -24t22.5 -30.5t9.5 -30.5t2 -24q0 -6 -2 -21.5t-11 -30.5q-15 -25 -41 -31.5t-51 -9.5q8 11 19.5 30t11.5 52q0 6 -1 17t-6 24t-14.5 26t-26.5 22q-23 13 -52 13
q-21 0 -42.5 -8t-38.5 -22q-27 -23 -41.5 -55.5t-20.5 -68.5t-7.5 -72.5t-3.5 -67.5q-1 -15 -1.5 -29t-2.5 -29h161z" />
    <glyph glyph-name="fraction" unicode="&#x2044;" horiz-adv-x="125" 
d="M204 706l-249 -706h-37l249 706h37z" />
    <glyph glyph-name="section" unicode="&#xa7;" horiz-adv-x="437" 
d="M149 487q-1 -2 -6 -10t-10 -19t-9.5 -25t-4.5 -27q0 -7 2 -18.5t12 -24.5q12 -17 34 -34t58 -42l35.5 -25t35.5 -23q1 3 5 10.5t8 18.5t7 23.5t3 26.5q0 6 -2 19t-11 26q-14 23 -57 54zM321 217l12 -11.5t12 -12.5q8 -8 21 -30t13 -56q0 -19 -8 -45.5t-27.5 -50.5
t-53.5 -41t-86 -17q-11 0 -36 3t-54 17q-13 6 -27.5 16t-26 22.5t-19 28t-7.5 32.5t9.5 31t28.5 14q8 0 14 -2.5t8 -4.5q13 -9 15 -23t7 -27q3 -9 10 -19.5t19 -19.5t29 -15t40 -6q28 0 46 8.5t29 20.5t15.5 26t4.5 26q0 6 -1.5 15t-8.5 20q-9 16 -25 27.5l-45 31.5
q-17 13 -35 25l-36 25q-34 23 -51.5 39.5t-29.5 33.5q-16 23 -19 43t-3 31q0 43 21 75.5t47 63.5q-22 24 -38.5 48t-15.5 59q0 23 6 38t11 23q23 35 62 52t79 17q35 0 70.5 -13t59.5 -39q3 -3 12.5 -17.5t9.5 -32.5q0 -23 -13 -30.5t-21 -7.5q-10 0 -23 7.5t-21 27.5
q-6 14 -8.5 23t-13.5 20q-7 7 -21 13.5t-38 6.5q-23 0 -39.5 -7.5t-26.5 -18t-14.5 -22t-4.5 -20.5q0 -5 2.5 -14.5t9.5 -20.5q13 -20 37 -38t65 -46l34 -25t33 -27q28 -24 47.5 -50t19.5 -65q0 -14 -2.5 -25t-4.5 -16q-8 -27 -23 -49z" />
    <glyph glyph-name="currency" unicode="&#xa4;" horiz-adv-x="667" 
d="M529 340q0 8 -1 21t-4.5 29t-11.5 34.5t-22 36.5q-7 9 -20 22t-32.5 25t-45 20.5t-58.5 8.5q-42 0 -78 -15t-62.5 -41.5t-41.5 -62.5t-15 -78t15.5 -78.5t42.5 -63t63 -41.5t78 -15q17 0 49 6t67 32q10 8 23.5 21.5t25.5 33t20 45.5t8 60zM609 107l-46 -45l-74 75
l-13.5 -10t-14.5 -10q-15 -10 -47.5 -22t-80.5 -12q-33 0 -64 7.5t-60 24.5q-9 5 -16.5 10.5l-15.5 11.5l-75 -73l-45 45l75 73l-16.5 24t-18 33.5t-14.5 44.5t-6 57q0 31 6 55.5t14.5 43.5t18 33t16.5 23l-73 73l45 45l73 -72q9 7 23 16t33.5 17.5t44.5 14.5t56 6
q17 0 53 -5.5t75 -28.5q8 -5 14.5 -10l13.5 -10l74 73l46 -46l-74 -74q11 -14 22 -31q16 -27 24 -59t8 -65q0 -8 -1 -21.5t-4 -30t-9.5 -35.5t-18.5 -38q-7 -12 -13 -20.5l-9 -12.5z" />
    <glyph glyph-name="quotesingle" unicode="'" horiz-adv-x="208" 
d="M94 445l-33 243q0 2 -1 8.5t1 14.5q2 13 8 20.5t13 11.5t14 5t11 1q3 0 9.5 -1t13.5 -6q16 -10 17 -23.5t1 -18.5l-35 -255h-19z" />
    <glyph glyph-name="quotedblleft" unicode="&#x201c;" horiz-adv-x="437" 
d="M380 694q-25 -19 -46 -38.5t-33 -49.5q-1 -3 -4 -14t-3 -23q0 -14 3 -27t5 -16q2 1 11.5 3.5t19.5 2.5q24 0 40.5 -17t16.5 -42q0 -4 -1 -11.5t-6 -16.5q-8 -14 -24 -22.5t-32 -8.5q-5 0 -16 2t-23 10q-27 17 -38.5 45.5t-11.5 58.5q0 47 21 85.5t57 65.5q11 8 23 15
t35 18zM193 694q-25 -19 -46 -38.5t-33 -49.5q-1 -3 -4 -14t-3 -23q0 -14 3.5 -27t4.5 -16q2 1 11.5 3.5t19.5 2.5q24 0 40.5 -17t16.5 -42q0 -4 -1 -11.5t-6 -16.5q-8 -14 -24 -22.5t-32 -8.5q-5 0 -16 2t-23 10q-27 17 -38.5 45.5t-11.5 58.5q0 47 21 85.5t57 65.5
q11 8 23 15t35 18z" />
    <glyph glyph-name="guillemotleft" unicode="&#xab;" horiz-adv-x="458" 
d="M403 132q12 -16 12 -26q0 -18 -19 -18q-8 0 -14.5 4.5t-12.5 9.5l-152 141q-12 12 -12 19t12 19l158 135q6 5 13 9.5t15 4.5q4 0 10.5 -3t6.5 -15q0 -8 -4 -14t-8 -11l-104 -126zM234 132q6 -9 8.5 -14.5t2.5 -11.5q0 -18 -18 -18q-8 0 -15 4.5t-12 9.5l-153 141
q-11 11 -11 19q0 6 4 10.5t7 8.5l158 135q6 5 13 9.5t15 4.5q5 0 11 -3t6 -15q0 -8 -3.5 -14t-8.5 -11l-104 -126z" />
    <glyph glyph-name="fi" unicode="&#xfb01;" horiz-adv-x="563" 
d="M473 82q0 -1 0.5 -12.5t5.5 -19.5q7 -11 23 -14.5t41 -5.5v-30h-228l1 31q25 2 40 4.5t23 12.5q3 5 4.5 9.5t2.5 15.5v256q0 9 -1 16.5t-6 15.5q-10 16 -30 17.5t-39 1.5v31q35 3 58 7t40 8.5t31.5 10t33.5 13.5v-368zM389 567q-16 16 -16 38q0 23 16 38t38 15
q23 0 38 -15.5t15 -37.5q0 -23 -16 -38t-38 -15q-15 0 -24 5.5t-13 9.5zM278 440v-32h-96v-326q1 -8 2 -17.5t6 -17.5q7 -11 23 -13.5t39 -4.5v-29h-228l1 29q8 1 15.5 1.5t15.5 1.5q26 4 32.5 17.5t6.5 37.5v321h-76v32h76v54q0 11 0.5 21.5t0.5 21.5q0 9 1.5 26.5t8 38.5
t20 42.5t38.5 39.5q14 10 37.5 21t62.5 11q52 -1 76.5 -22t24.5 -47q0 -19 -12 -31t-31 -12q-16 0 -27.5 10t-12.5 27v9.5t-2 13t-8 11.5t-19 5q-10 0 -18.5 -3t-16.5 -8q-26 -17 -30.5 -44.5t-5.5 -54.5v-130h96z" />
    <glyph glyph-name="fl" unicode="&#xfb02;" horiz-adv-x="563" 
d="M473 77q0 -2 0.5 -11.5t6.5 -17.5q8 -11 23.5 -14.5t39.5 -4.5v-29h-229v29q22 1 35.5 3.5t21 8t10.5 14.5t3 23v553q0 12 -5 22q-8 14 -25.5 16.5t-46.5 3.5l1 29q28 1 47.5 2.5t37 5.5t36 10t44.5 16v-659zM278 440v-32h-96v-326q1 -8 2 -17.5t6 -17.5q7 -11 23 -13.5
t39 -4.5v-29h-228l1 29q8 1 15.5 1.5t15.5 1.5q26 4 32.5 17.5t6.5 37.5v321h-76v32h76v54q0 11 0.5 21.5t0.5 21.5q0 9 1.5 26.5t8 38.5t20 42.5t38.5 39.5q14 10 37.5 21t62.5 11q52 -1 76.5 -22t24.5 -47q0 -19 -12 -31t-31 -12q-16 0 -27.5 10t-12.5 27v9.5t-2 13
t-8 11.5t-19 5q-10 0 -18.5 -3t-16.5 -8q-26 -17 -30.5 -44.5t-5.5 -54.5v-130h96z" />
    <glyph glyph-name="endash" unicode="&#x2013;" horiz-adv-x="521" 
d="M505 278v-53h-469v53h469z" />
    <glyph glyph-name="dagger" unicode="&#x2020;" horiz-adv-x="583" 
d="M266 -162q1 43 1.5 91.5t-0.5 98t-5 97.5t-13 90l-11.5 44t-20.5 64q15 21 24 35.5t15 28.5t10.5 30.5t9.5 41.5l-42 -8t-41 -12q-20 -8 -41.5 -17.5t-44.5 -9.5q-26 0 -46 14.5t-20 43.5q0 5 1 11t5 14q6 12 16 19t20.5 10.5t19 4.5t11.5 1q25 0 49 -10t48 -18l17 -5
t14 -3.5t14.5 -2t18.5 -1.5q-7 30 -11.5 45.5t-9.5 30.5q-8 20 -14.5 39t-6.5 40q0 20 6 33t15 21t19 11.5t18 3.5t18 -3t18.5 -10.5t14 -20.5t5.5 -32q0 -26 -10 -48.5t-18 -47.5q-5 -15 -8 -31t-5 -32q27 2 39 4t26 7q25 8 50 18t51 10q20 0 33.5 -6t21 -14.5t10.5 -18.5
t3 -18q0 -14 -6 -24q-6 -12 -15.5 -19t-19 -10.5t-17.5 -4t-12 -0.5q-26 0 -49.5 10.5t-47.5 18.5q-14 5 -28 8t-41 8q4 -25 8 -42t9.5 -31.5t14.5 -29.5t23 -36q-8 -23 -15 -46.5t-12 -47.5q-6 -32 -10.5 -69.5t-7 -84.5t-4 -104.5t-2.5 -128.5h-42z" />
    <glyph glyph-name="periodcentered" unicode="&#xb7;" horiz-adv-x="187" 
d="M92 230q-8 0 -14.5 1.5t-8.5 3.5q-16 7 -25.5 22.5t-9.5 32.5q0 25 18 42t42 17q4 0 9.5 -0.5t12.5 -3.5q17 -7 27 -22.5t10 -33.5q0 -25 -18 -42.5t-43 -16.5z" />
    <glyph glyph-name="paragraph" unicode="&#xb6;" horiz-adv-x="667" 
d="M531 662h-33v-829h-46v829h-157v-829h-46v498q-6 1 -19.5 3t-28.5 7q-57 21 -84 68t-27 104q0 9 1 26t9 39q14 43 45.5 73t74.5 44q22 7 44.5 9t45.5 2h221v-44z" />
    <glyph glyph-name="bullet" unicode="&#x2022;" horiz-adv-x="333" 
d="M286 353q0 -19 -4 -32t-7 -20q-14 -32 -43 -49.5t-64 -17.5q-7 0 -20.5 1.5t-30.5 9.5q-32 14 -51 43t-19 64q0 25 10 47t26.5 38.5t38.5 25.5t47 9t46 -9t37 -25t25 -38t9 -47z" />
    <glyph glyph-name="quotesinglbase" unicode="&#x201a;" horiz-adv-x="250" 
d="M56 -165q24 18 45.5 37.5t32.5 49.5q2 5 5 15t2 23q0 8 -1 17t-6 25q-2 -1 -12 -3.5t-19 -2.5q-25 1 -41 17.5t-16 41.5q0 11 2.5 17.5t4.5 10.5q8 14 23.5 22.5t31.5 8.5q13 0 28.5 -6.5t29 -20.5t22.5 -36t9 -53q0 -11 -2.5 -29t-10.5 -38.5t-23.5 -42t-40.5 -40.5
q-11 -8 -23 -15t-35 -19z" />
    <glyph glyph-name="quotedblbase" unicode="&#x201e;" horiz-adv-x="437" 
d="M57 -165q25 18 46 37.5t32 49.5q2 3 5 14.5t3 23.5q0 13 -3.5 26.5t-4.5 15.5q-2 -1 -11.5 -3.5t-19.5 -2.5q-24 1 -40.5 17.5t-16.5 41.5q0 5 1 12t6 16q8 14 24 22.5t31 8.5q11 0 21.5 -3.5t18.5 -8.5q27 -17 38.5 -45.5t11.5 -58.5q0 -46 -21 -85t-57 -65
q-11 -8 -23 -15t-35 -19zM244 -165q25 18 46 37.5t32 49.5q2 3 5 14.5t3 23.5q0 13 -3.5 26.5t-4.5 15.5q-2 -1 -11.5 -3.5t-19.5 -2.5q-24 1 -40.5 17.5t-16.5 41.5q0 5 1 12t6 16q8 14 24 22.5t31 8.5q11 0 21.5 -3.5t18.5 -8.5q27 -17 38.5 -45.5t11.5 -58.5
q-1 -46 -21.5 -85t-56.5 -65q-11 -8 -23 -15t-35 -19z" />
    <glyph glyph-name="quotedblright" unicode="&#x201d;" horiz-adv-x="437" 
d="M57 434q25 19 46 38.5t32 49.5q2 3 5 14t3 24t-3.5 26t-4.5 16q-2 -1 -11.5 -3.5t-19.5 -2.5q-24 0 -40.5 17t-16.5 42q0 5 1 12t6 16q8 14 24 22.5t31 8.5q11 0 21.5 -3.5t18.5 -8.5q27 -17 38.5 -45.5t11.5 -58.5q0 -46 -21 -85t-57 -66q-11 -8 -23 -15t-35 -18z
M244 434q25 19 46 38.5t32 49.5q2 3 5 14t3 24t-3.5 26t-4.5 16q-2 -1 -11.5 -3.5t-19.5 -2.5q-24 0 -40.5 17t-16.5 42q0 5 1 12t6 16q8 14 24 22.5t31 8.5q11 0 21.5 -3.5t18.5 -8.5q27 -17 38.5 -45.5t11.5 -58.5q-1 -46 -21.5 -85t-56.5 -66q-11 -8 -23 -15t-35 -18z
" />
    <glyph glyph-name="guillemotright" unicode="&#xbb;" horiz-adv-x="458" 
d="M55 386q-12 16 -12 26q0 18 19 18q8 0 14.5 -4.5t12.5 -9.5l153 -141q5 -6 8 -10t3 -9q0 -8 -12 -19l-158 -135q-5 -5 -12.5 -9.5t-15.5 -4.5q-4 0 -10.5 3t-6.5 15q0 8 4 14t9 11l104 126zM225 386q-12 16 -12 26q0 18 18 18q8 0 15 -4.5t12 -9.5l153 -141
q12 -12 12 -19q0 -6 -4 -10.5t-8 -8.5l-158 -135q-6 -5 -13 -9.5t-15 -4.5q-5 0 -11 3t-6 15q0 8 4 14t8 11l104 126z" />
    <glyph glyph-name="ellipsis" unicode="&#x2026;" horiz-adv-x="1000" 
d="M213 41q0 -19 -13 -33.5t-33 -13.5q-20 0 -33.5 13.5t-13.5 33.5t14 33t33 13q20 0 33 -13t13 -33zM547 41q0 -19 -13.5 -33.5t-33.5 -13.5q-20 0 -33 13.5t-13 33.5t13.5 33t33.5 13t32.5 -13t13.5 -33zM880 41q0 -19 -13.5 -33t-32.5 -14q-20 0 -33.5 13.5t-13.5 33.5
t14 33t33 13q20 0 33 -13t13 -33z" />
    <glyph glyph-name="questiondown" unicode="&#xbf;" horiz-adv-x="437" 
d="M290 665q11 -12 14 -24t3 -18q0 -24 -17.5 -41t-41.5 -17q-25 0 -42 17.5t-17 41.5t18 41t41 17q6 0 18 -3t24 -14zM229 479h37v-215h-19q-11 14 -23 24.5t-32 10.5q-32 0 -50.5 -36.5t-18.5 -96.5q0 -32 5 -51.5t11 -32.5q3 -6 9 -15t15.5 -17.5t23.5 -15t33 -6.5
q2 0 10 1t16 4q25 11 35 36q1 3 2 8.5t4.5 11t10 9.5t17.5 4q6 0 19 -5.5t13 -26.5q0 -15 -7.5 -25t-11.5 -13q-20 -19 -51.5 -28t-57.5 -9q-39 0 -71.5 14.5t-56 40t-37 59t-13.5 71.5q0 9 1 25t9 36q3 8 11 24t23 32t37 28t54 12q17 0 28 -4t25 -12v158z" />
    <glyph glyph-name="grave" unicode="`" 
d="M126 535q1 -1 3 -3.5t2 -6.5q0 -7 -8 -7q-6 0 -10 2l-227 113q-6 4 -6 6q0 3 7 3h142z" />
    <glyph glyph-name="acute" unicode="&#xb4;" 
d="M215 642q7 0 7 -3t-2 -4t-3 -1l-228 -114q-2 0 -3.5 -1t-6.5 -1q-8 0 -8 8q1 4 2.5 6.5t2.5 3.5l97 106h142z" />
    <glyph glyph-name="circumflex" unicode="&#x2c6;" 
d="M178 544q2 -1 5.5 -4.5t3.5 -9.5q0 -3 -2.5 -8t-10.5 -5q-5 0 -14 4l-111 50l-107 -52q-1 -1 -4 -2.5t-7 -1.5q-7 1 -9 5.5t-2 6.5q0 7 7 13l122 104z" />
    <glyph glyph-name="tilde" unicode="&#x2dc;" 
d="M224 620l-22 -29.5t-26.5 -28.5t-31.5 -21t-36 -8q-23 0 -51.5 10.5l-48.5 17.5q-2 1 -16.5 5t-28.5 4q-23 -1 -37 -10.5t-30 -24.5l-13 11q3 5 6.5 9.5t6.5 9.5q3 4 11.5 14t21.5 21t30.5 19.5t38.5 8.5q22 0 44.5 -8l42.5 -15q2 -1 19.5 -6.5t33.5 -5.5q24 0 39.5 11
t31.5 27z" />
    <glyph glyph-name="dieresis" unicode="&#xa8;" 
d="M-91 543q-11 11 -13 21.5t-2 15.5q0 23 15.5 37.5t36.5 14.5q22 0 37 -15t15 -37q0 -23 -15.5 -37.5t-36.5 -14.5q-5 0 -16 2.5t-21 12.5zM120 543q-10 11 -12.5 21.5t-2.5 15.5q1 23 16 37.5t37 14.5t37 -15t15 -37q-1 -23 -16.5 -37.5t-36.5 -14.5q-5 0 -15.5 2.5
t-21.5 12.5z" />
    <glyph glyph-name="cedilla" unicode="&#xb8;" 
d="M66 -3l-18 -56q23 -6 44.5 -16t33.5 -33q8 -15 8 -35q0 -7 -1.5 -17t-8.5 -23q-14 -27 -41 -40.5t-56 -13.5t-51 9t-46 23l16 24q23 -11 37 -16t27 -4q23 0 41 15t18 39q0 5 -1 11t-6 15q-9 17 -24 24.5t-32 14.5l27 79h33z" />
    <glyph glyph-name="caron" unicode="&#x2c7;" 
d="M-81 618q-2 1 -5.5 4.5t-3.5 9.5q0 3 2.5 8t10.5 5q5 0 13 -4l111 -50l108 52q1 1 4 2.5t7 1.5q7 -1 9 -5.5t2 -6.5q0 -6 -7 -13l-123 -104z" />
    <glyph glyph-name="emdash" unicode="&#x2014;" horiz-adv-x="667" 
d="M0 262v59h667v-59h-667z" />
    <glyph glyph-name="AE" unicode="&#xc6;" horiz-adv-x="958" 
d="M297 374h150v304zM877 534h-32q0 1 -3.5 13t-10.5 28.5t-16 33.5t-19 29q-22 25 -50.5 28t-58.5 4h-139v-256h69q17 0 26.5 1t17.5 4q21 7 32 21t16 28.5t6 27t1 17.5h31v-241l-31 1q-1 20 -3.5 39t-15.5 36q-16 20 -36.5 23.5t-43.5 3.5h-69v-230q0 -38 6.5 -57.5
t25.5 -30.5q23 -14 51.5 -17.5t54.5 -3.5q11 0 21 0.5t21 1.5q7 1 20 2.5t28.5 6t32.5 13.5t32 25q17 17 28 38.5t18 41t10.5 35t4.5 21.5h31l-14 -221h-578l1 36q32 2 51 4t33 13q17 13 18.5 33.5t3.5 38.5v214h-168l-96 -196q-11 -21 -15.5 -34.5t-4.5 -24.5
q0 -17 8 -26.5t20 -14.5t26 -6.5t25 -2.5v-34h-234v34q3 0 17.5 2t27.5 7q26 9 40.5 28t28.5 43l245 496q5 13 8 20t3 14q0 11 -6.5 17t-17 9.5t-25 4.5t-30.5 2v29h559z" />
    <glyph glyph-name="Oslash" unicode="&#xd8;" horiz-adv-x="854" 
d="M247 91q17 -17 33 -29q17 -12 54.5 -28.5t91.5 -16.5q15 0 39.5 3t52.5 13.5t57 32t52 57.5q22 35 38 94.5t16 153.5q0 8 -0.5 27t-3 43.5t-8.5 53t-17 55.5l-8 17.5t-9 16.5zM613 613q-8 9 -14 14.5t-15 12.5t-23.5 15.5t-34 16t-44.5 13t-54 5.5q-12 0 -31 -2
t-42.5 -8.5t-48.5 -20t-48 -37.5q-16 -17 -31 -40.5t-27 -56.5t-19.5 -75t-7.5 -95q0 -65 9 -111.5t17 -70.5q6 -16 14.5 -32.5t10.5 -19.5zM738 717l-60 -79l21 -20l20 -21q12 -14 26.5 -36t27 -51.5t21 -68t8.5 -85.5q0 -50 -9.5 -90t-23 -71t-29 -53.5t-27.5 -37.5
q-8 -9 -27 -28t-47 -38q-31 -20 -63 -31.5t-60 -17t-50 -6.5t-34 -1q-47 0 -90 8.5t-85 28.5q-12 6 -23.5 12.5t-23.5 14.5l-65 -84l-28 21l64 84q-11 9 -20.5 18t-18.5 19q-32 34 -50 69.5t-27 68t-11 59.5t-2 44q0 42 7 82.5t23 78.5q22 54 58.5 95t82.5 68t99 41t109 14
q63 0 105 -12.5t65 -23.5q13 -6 25 -13t23 -15l62 78z" />
    <glyph glyph-name="OE" unicode="&#x152;" horiz-adv-x="1000" 
d="M484 663q-37 8 -57 11t-39 3q-8 0 -21.5 -1t-29.5 -4.5t-33.5 -12t-35.5 -23.5q-18 -16 -35.5 -42t-31 -61.5t-21.5 -81.5t-8 -103q1 -88 18 -145t40 -89q7 -10 19.5 -24t35.5 -29q33 -21 61.5 -25.5t42.5 -4.5q4 0 16 0.5t26 5t27.5 14.5t20.5 28q3 8 4 14.5t2 20.5z
M916 532h-32q-14 44 -25.5 67.5t-27.5 39.5q-23 22 -47.5 25t-53.5 4h-144v-258h71q6 0 13 1q5 1 11.5 1t11.5 2q18 4 29 14t18 22.5t10 28t5 30.5h31v-241l-33 1q-1 17 -2 28.5t-3 19.5q-6 22 -18.5 33.5t-27 16.5t-27 5.5t-17.5 0.5h-72v-236v-13.5t2 -19.5
q5 -38 34 -53.5t93 -15.5h24.5t25.5 1q46 5 80 21t58 57q21 35 27.5 63t8.5 42h31l-13 -219h-457q-26 -3 -52.5 -5.5t-52.5 -2.5q-15 0 -39.5 1.5t-55.5 9t-64.5 23t-66.5 42.5q-18 15 -39 39t-39 58.5t-29.5 80t-11.5 104.5q0 13 1 34.5t6 48.5t15.5 58t29.5 63
q24 40 52 67.5t55.5 44.5t52 26t41.5 13q13 3 33.5 6t51.5 3q25 0 49.5 -2.5t50.5 -5.5h409z" />
    <glyph glyph-name="ae" unicode="&#xe6;" horiz-adv-x="729" 
d="M303 243q-3 -1 -14 -3.5t-26 -6.5t-32 -9t-31 -11t-27.5 -13.5t-23.5 -18.5q-11 -14 -15.5 -28t-4.5 -31q0 -5 0.5 -14t5.5 -20q2 -6 6.5 -14t12.5 -14.5t20 -11.5t29 -5q23 0 41.5 8t32 19t22 21.5l12.5 15.5l-5 31.5t-3 25.5t-0.5 30.5t0.5 48.5zM592 273
q-2 56 -11.5 85t-37.5 43q-5 3 -17 7.5t-29 4.5q-8 0 -18.5 -1.5t-22 -7t-23 -15.5t-20.5 -27q-7 -13 -11.5 -27t-7 -26.5t-3.5 -22t-1 -13.5h202zM389 237q0 -24 1.5 -51t8 -52.5t19.5 -47.5t37 -37q15 -9 33 -13.5t35 -4.5t29.5 3t17.5 5q29 10 48.5 29t37.5 42l27 -16
q-8 -13 -21 -31.5t-33.5 -35t-50.5 -28.5t-72 -12q-27 0 -49 5t-39.5 12.5t-30.5 16t-21 14.5q-11 9 -20.5 19.5t-18.5 21.5q-6 -6 -15.5 -16.5t-23 -22t-31 -22t-40.5 -17.5q-7 -2 -23.5 -6t-36.5 -4q-14 0 -34 4t-38 16.5t-30.5 36t-12.5 62.5q0 6 0.5 16.5t4 23.5
t10.5 27t20 26q29 27 85 42.5t141 33.5v55q-1 15 -2.5 23.5t-3.5 15.5q-6 17 -18 26.5t-24.5 13.5t-23 4.5t-13.5 0.5h-11t-15.5 -2.5t-16.5 -7t-15 -13.5q-3 -3 -6.5 -9t-5.5 -16q-2 -12 -2.5 -20.5t-8.5 -18.5q-9 -12 -20.5 -13.5t-17.5 -1.5h-7t-12 1.5t-13.5 4.5
t-10.5 9q-5 6 -5.5 11.5t-0.5 8.5q0 11 8 26q4 8 12 18t25 21q18 13 46.5 24.5t78.5 11.5q5 0 17 -0.5t28 -3t33 -8.5t33 -17q10 -6 31 -26l12 10l12 10q14 9 43.5 22.5t74.5 13.5q61 0 106.5 -33t64.5 -91q3 -9 5.5 -17.5t4 -18t2.5 -22.5t2 -31h-300z" />
    <glyph glyph-name="dotlessi" unicode="&#x131;" horiz-adv-x="271" 
d="M181 82q0 -1 0.5 -12.5t5.5 -19.5q7 -11 23 -14.5t41 -5.5v-30h-228l1 31q25 2 40 4.5t23 12.5q3 5 4.5 9.5t2.5 15.5v256q0 9 -1 16.5t-6 15.5q-10 16 -30 17.5t-39 1.5v31q35 3 58 7t40 8.5t31.5 10t33.5 13.5v-368z" />
    <glyph glyph-name="oslash" unicode="&#xf8;" horiz-adv-x="542" 
d="M165 76q6 -8 14 -17.5t20 -18t29 -14.5t41 -6q6 0 21.5 1.5t32.5 9.5q23 11 44 37.5t30 80.5q4 23 4.5 45t0.5 29v11.5t-1 22.5t-2 28t-4 28q-2 8 -4 15t-4 15zM373 371q-14 15 -26 25q-17 13 -36.5 18.5t-40.5 5.5q-9 0 -21.5 -1.5t-27 -7.5t-28.5 -17.5t-25 -30.5
q-15 -26 -23 -61.5t-8 -96.5q0 -20 1 -34.5t3 -26t4.5 -21t5.5 -19.5zM465 437l-34 -41q14 -14 21.5 -24t16.5 -27q16 -29 22.5 -57.5t6.5 -62.5q0 -11 -1.5 -33t-9 -49t-23.5 -56t-44 -53q-23 -19 -44 -27.5t-31 -11.5q-24 -7 -45 -8t-29 -1q-30 0 -52.5 4t-39.5 10
t-30 13.5t-24 15.5l-38 -46l-23 18l38 46l-10 12t-10 13q-15 20 -23 41.5t-11.5 41t-4.5 35t-1 23.5q0 12 2.5 40.5t14.5 60.5q18 48 48 75.5t62 41.5t60.5 17.5t43.5 3.5q27 0 47.5 -4t37 -9.5t28.5 -12.5l22 -13l35 41z" />
    <glyph glyph-name="oe" unicode="&#x153;" horiz-adv-x="833" 
d="M699 274q-1 20 -2.5 43.5t-9.5 43.5q-3 7 -9 16t-16.5 17t-25 13.5t-35.5 5.5q-8 0 -25 -2.5t-34 -16.5q-14 -11 -23 -25t-14 -30t-7.5 -33t-4.5 -33zM265 419q-29 -1 -54.5 -14t-41.5 -38q-13 -20 -19.5 -45.5t-9.5 -49t-3 -40.5v-19q0 -30 5 -65.5t19 -63.5
q3 -6 11 -17.5t23 -23.5q22 -17 42 -20t31 -3q32 0 51.5 10t28.5 18q26 23 40 63.5t14 110.5q0 16 -1 35.5t-4.5 39t-9.5 38t-16 33.5q-3 5 -11.5 14.5t-22.5 18.5q-23 14 -42 16.5t-30 1.5zM492 237q0 -4 -0.5 -22.5t2.5 -43t10.5 -51t24.5 -46.5q8 -10 18 -17.5t21 -12.5
q29 -13 62 -13q21 0 38.5 5t30.5 12t22 15t14 13q8 8 14.5 17t13.5 17l27 -16q-5 -9 -10.5 -17.5t-12.5 -16.5q-8 -9 -21 -22t-32.5 -24.5t-45.5 -19.5t-59 -8q-8 0 -22.5 1t-33 5.5t-39 13.5t-39.5 24q-8 6 -13 11.5t-18 18.5q-7 -8 -16 -16.5l-17 -15.5q-17 -13 -54 -28.5
t-92 -15.5q-12 0 -34 2t-48 11t-52.5 26.5t-48.5 49.5q-14 20 -27 53t-13 87q0 10 1.5 34t10 52.5t26.5 58t51 52.5q21 15 43 23t41.5 12.5t35 5.5t23.5 1t23 -1t33 -5t38.5 -12t40.5 -22q11 -8 20.5 -16.5t19.5 -18.5q5 5 12.5 13.5t20.5 18.5q19 14 38.5 22.5t36.5 13
t31 5.5t21 1q8 0 26 -1.5t40 -9.5q12 -5 27.5 -13.5t31 -23t29 -36t22.5 -51.5q5 -15 7 -31t4 -48h-304z" />
    <glyph glyph-name="germandbls" unicode="&#xdf;" horiz-adv-x="562" 
d="M238 428q27 0 51 2.5t49 17.5q20 12 30.5 28t15.5 31.5t5.5 29t0.5 19.5q0 29 -7 60t-30 52q-16 14 -34.5 19.5t-38.5 5.5q-7 0 -24.5 -2t-34.5 -13q-14 -9 -22 -20t-12 -24.5t-5.5 -27.5t-2.5 -29v-495q0 -19 2 -28.5t11 -16.5t35 -8v-29h-206v30h16t16 1q9 1 16.5 2.5
t12.5 8.5q7 8 8 20t1 33v419q0 4 0.5 13.5t1.5 22t4 27t8 28.5q11 29 30 51t43.5 36.5t53 22t58.5 7.5q50 0 81.5 -15.5t46.5 -27.5q7 -5 17.5 -15t20 -24.5t16.5 -34.5t7 -45q0 -18 -6.5 -43t-35.5 -54q-12 -11 -21.5 -18t-14.5 -10q-12 -7 -24.5 -11.5t-24.5 -9.5
q29 -11 50 -22t45 -31q35 -30 49.5 -66t14.5 -82q0 -36 -9 -73t-29 -67q-5 -8 -17 -22t-32 -28q-29 -20 -52.5 -25t-38.5 -5q-27 0 -42.5 7.5t-24.5 15.5q-4 3 -12 12.5t-8 25.5q0 15 10.5 25t25.5 10q8 0 13 -2t7 -3q11 -7 17 -17t14 -21q5 -7 13.5 -14t18.5 -7q5 0 11 3
t12 13q8 12 13 33t8 43.5t4 44t1 35.5v20.5t-5.5 48.5t-17.5 56t-36 44q-20 12 -46 16.5t-71 6.5v39z" />
    <glyph glyph-name="Adieresis" unicode="&#xc4;" horiz-adv-x="750" 
d="M239 790q-11 10 -13 21t-2 16q0 22 15.5 36.5t36.5 14.5q22 0 37 -15t15 -37q0 -23 -15.5 -37.5t-36.5 -14.5q-5 0 -16 2.5t-21 13.5zM450 790q-10 10 -12.5 21t-2.5 16q0 22 15.5 36.5t37.5 14.5t37 -15t15 -37q-1 -23 -16.5 -37.5t-36.5 -14.5q-5 0 -15.5 2.5
t-21.5 13.5zM240 292h216l-54 139q-7 17 -13.5 35l-12.5 36q-7 18 -13.5 36.5l-12.5 36.5zM397 715l232 -577l13.5 -31t15.5 -30q11 -16 23.5 -25t24.5 -13t22 -5t17 -2v-32h-296v32h25q9 0 20.5 1t21.5 4.5t17 10.5t7 21q0 7 -3.5 17.5t-9.5 25.5l-57 143h-244l-49 -128
l-10.5 -29t-3.5 -21q0 -24 21 -32.5t60 -12.5v-32h-233v32q5 0 15 1.5t21 4.5q18 5 31 13.5t22 20t15.5 25.5l13.5 30l235 588h33z" />
    <glyph glyph-name="Aring" unicode="&#xc5;" horiz-adv-x="750" 
d="M240 292h216l-54 139q-7 17 -13.5 35l-12.5 36q-7 18 -13.5 36.5l-12.5 36.5zM397 715l232 -577l13.5 -31t15.5 -30q11 -16 23.5 -25t24.5 -13t22 -5t17 -2v-32h-296v32h25q9 0 20.5 1t21.5 4.5t17 10.5t7 21q0 7 -3.5 17.5t-9.5 25.5l-57 143h-244l-49 -128l-10.5 -29
t-3.5 -21q0 -24 21 -32.5t60 -12.5v-32h-233v32q5 0 15 1.5t21 4.5q18 5 31 13.5t22 20t15.5 25.5l13.5 30l235 588h33zM337 788q5 -4 14.5 -10t25.5 -6q24 0 40 17t16 40t-16.5 39t-39.5 16t-39.5 -16.5t-16.5 -39.5q0 -5 2.5 -17t13.5 -23zM312 764q-6 6 -16 23t-10 42
q0 38 26.5 64t64.5 26q19 0 35.5 -7t29 -19.5t19.5 -29t7 -35.5t-7 -35.5t-19.5 -29t-29 -19.5t-35.5 -7q-9 0 -28 4.5t-37 22.5z" />
    <glyph glyph-name="Odieresis" unicode="&#xd6;" horiz-adv-x="854" 
d="M416 691q-9 0 -24 -1.5t-33 -6t-38 -13.5t-40 -24q-22 -16 -41.5 -40t-34.5 -58t-23.5 -79.5t-8.5 -103.5q0 -7 0.5 -24t2.5 -39.5t5.5 -49t10.5 -51.5q9 -35 23 -61t29 -44t30.5 -30t29.5 -19q38 -20 71.5 -24t47.5 -4q11 0 33 2t48.5 10t55 24t51.5 45q28 34 48 98.5
t20 164.5q0 61 -8.5 107.5t-24 81.5t-36.5 59t-45 40q-20 13 -56 27t-93 13zM419 724q19 0 51 -2t70.5 -12.5t80 -32.5t80.5 -62q15 -15 32.5 -37.5t32.5 -54.5t25 -73.5t10 -94.5q0 -35 -5 -67t-16 -65q-8 -22 -23.5 -54t-44 -64.5t-71 -61.5t-103.5 -45q-14 -4 -44.5 -9.5
t-70.5 -5.5q-15 0 -41.5 2t-59.5 10t-70 24t-72 44q-18 15 -40.5 39t-42 59t-33 81.5t-13.5 106.5q0 20 3.5 61.5t23.5 91.5q8 21 25.5 51t47.5 61t73.5 58t103.5 41q23 5 45 7.5t46 3.5zM286 790q-10 10 -12.5 21t-2.5 16q1 22 16 36.5t37 14.5t37 -15t15 -37
q-1 -23 -16.5 -37.5t-36.5 -14.5q-5 0 -15.5 2.5t-21.5 13.5zM498 790q-11 10 -13 21t-2 16q0 22 15.5 36.5t36.5 14.5q22 0 37 -15t15 -37q0 -23 -15.5 -37.5t-36.5 -14.5q-5 0 -16 2.5t-21 13.5z" />
    <glyph glyph-name="Udieresis" unicode="&#xdc;" horiz-adv-x="792" 
d="M321 706v-32q-19 -1 -33 -2t-24.5 -4t-18 -8t-13.5 -14q-11 -16 -12 -57v-339q0 -26 1 -55t9 -54q10 -30 30 -52t46 -35.5t56 -20t59 -6.5q47 0 95 16.5t79 54.5q15 19 23 40t11.5 43.5t3.5 45.5v46v290v13.5t-1 13.5q-2 33 -9.5 48t-24.5 23q-14 8 -31 9t-32 3v33h240
v-32q-12 -2 -23 -3.5t-22 -5.5q-19 -7 -29.5 -18.5t-16 -26t-7 -30.5t-1.5 -33v-287q-1 -27 -1.5 -47.5t-2 -36.5t-4.5 -29.5t-7 -26.5q-8 -24 -20.5 -42.5t-25.5 -31t-25 -21t-20 -12.5q-41 -23 -81.5 -31.5t-86.5 -8.5q-45 0 -80.5 6t-62.5 16t-47 23.5t-35 27.5
q-32 29 -47 67q-8 19 -11 38t-4 57v364q-1 18 -1.5 30t-2.5 20q-5 17 -15.5 25.5t-23.5 12t-28 4t-28 1.5v31h305zM283 790q-4 4 -10 13t-5 24q0 21 15 36t37 15t37 -15t15 -37t-15.5 -37t-37.5 -15q-5 0 -15.5 2.5t-20.5 13.5zM494 790q-4 4 -9.5 13t-5.5 24q0 21 15 36
t37 15t37 -15t15 -37t-15 -37t-37 -15q-5 0 -16 2.5t-21 13.5z" />
    <glyph glyph-name="adieresis" unicode="&#xe4;" horiz-adv-x="479" 
d="M299 248l-27 -9.5l-27 -9.5l-13.5 -4l-13.5 -4q-4 -1 -14.5 -4t-23.5 -9.5t-25 -17.5t-19 -28q-6 -15 -6 -34q0 -3 0.5 -11t4.5 -17q5 -13 20 -28t48 -15q30 0 52 12.5t44 29.5v149zM385 87q1 -15 6 -28.5t24 -13.5q8 0 12.5 2t6.5 4q11 7 16.5 17t10.5 31h31
q-2 -10 -6 -22.5t-9 -21.5q-3 -7 -9.5 -17t-17 -19.5t-26.5 -16t-37 -6.5q-37 0 -54.5 15.5t-24.5 29.5q-3 8 -4 15t-3 15l-22 -21t-37 -26q-30 -19 -50.5 -23.5t-37.5 -4.5q-53 0 -83 30t-30 83q0 27 6.5 46t16 32t20.5 21.5t21 13.5q33 17 64 23t66 14q31 7 64 20v52
q0 27 -4 38q-2 8 -7 17t-14 16.5t-23 12.5t-34 5q-5 0 -13 -0.5t-17 -3.5t-18 -9.5t-16 -18.5q-4 -8 -5 -12t-3 -17l-2.5 -13t-6.5 -15t-14.5 -12t-24.5 -5q-29 0 -38 13t-9 25q0 8 4.5 19t15.5 25q18 21 41.5 32.5t46 17t40 6t24.5 0.5q67 0 104 -21.5t50 -49.5q5 -8 6 -16
l3 -25v-253zM98 543q-11 11 -13 21.5t-2 15.5q0 23 15.5 37.5t36.5 14.5q22 0 37 -15t15 -37q0 -23 -15.5 -37.5t-36.5 -14.5q-5 0 -16 2.5t-21 12.5zM309 543q-11 11 -13 21.5t-2 15.5q0 23 15.5 37.5t36.5 14.5q22 0 37 -15t15 -37q0 -23 -15.5 -37.5t-36.5 -14.5
q-5 0 -16 2.5t-21 12.5z" />
    <glyph glyph-name="aring" unicode="&#xe5;" horiz-adv-x="479" 
d="M299 248l-27 -9.5l-27 -9.5l-13.5 -4l-13.5 -4q-4 -1 -14.5 -4t-23.5 -9.5t-25 -17.5t-19 -28q-6 -15 -6 -34q0 -3 0.5 -11t4.5 -17q5 -13 20 -28t48 -15q30 0 52 12.5t44 29.5v149zM385 87q1 -15 6 -28.5t24 -13.5q8 0 12.5 2t6.5 4q11 7 16.5 17t10.5 31h31
q-2 -10 -6 -22.5t-9 -21.5q-3 -7 -9.5 -17t-17 -19.5t-26.5 -16t-37 -6.5q-37 0 -54.5 15.5t-24.5 29.5q-3 8 -4 15t-3 15l-22 -21t-37 -26q-30 -19 -50.5 -23.5t-37.5 -4.5q-53 0 -83 30t-30 83q0 27 6.5 46t16 32t20.5 21.5t21 13.5q33 17 64 23t66 14q31 7 64 20v52
q0 27 -4 38q-2 8 -7 17t-14 16.5t-23 12.5t-34 5q-5 0 -13 -0.5t-17 -3.5t-18 -9.5t-16 -18.5q-4 -8 -5 -12t-3 -17l-2.5 -13t-6.5 -15t-14.5 -12t-24.5 -5q-29 0 -38 13t-9 25q0 8 4.5 19t15.5 25q18 21 41.5 32.5t46 17t40 6t24.5 0.5q67 0 104 -21.5t50 -49.5q5 -8 6 -16
l3 -25v-253zM197 540q4 -4 13.5 -10t26.5 -6q23 0 39.5 17t16.5 40q-1 23 -17.5 39.5t-39.5 16.5t-39.5 -16.5t-16.5 -40.5q0 -5 3 -17t14 -23zM172 516q-6 6 -16.5 23t-10.5 42q0 38 27 64.5t65 26.5q38 -1 64.5 -27.5t26.5 -64.5q-1 -38 -27.5 -64.5t-64.5 -26.5
q-9 0 -27.5 4.5t-36.5 22.5z" />
    <glyph glyph-name="odieresis" unicode="&#xf6;" horiz-adv-x="542" 
d="M270 419q-11 0 -26.5 -2.5t-32 -11t-31.5 -25t-25 -43.5q-7 -18 -10.5 -38t-5 -38t-2 -31t-0.5 -17q0 -5 0.5 -21.5t4 -39t12 -46.5t24.5 -44q14 -17 31 -28q9 -5 23.5 -9.5t38.5 -4.5q42 0 68.5 19t40.5 48.5t19 64.5t5 67q0 3 -0.5 17t-2.5 33t-6 40.5t-12 38.5
q-2 4 -7.5 14t-14.5 20q-36 39 -91 37zM274 452q24 0 43.5 -4t27.5 -6q40 -11 69 -32t48 -50t28 -64.5t9 -74.5q0 -10 -1 -27.5t-6.5 -40t-16.5 -47t-31 -47.5q-23 -27 -48.5 -42t-49.5 -21.5t-44 -8t-32 -1.5q-11 0 -37.5 2t-57.5 13q-47 18 -74 48.5t-40 62.5t-16 60.5
t-3 42.5q0 55 14 90t27 54q24 35 57 55.5t73 29.5q20 5 36.5 6.5t24.5 1.5zM132 543q-10 11 -12.5 21.5t-2.5 15.5q1 23 16.5 37.5t36.5 14.5q22 0 37 -15t15 -37q-1 -23 -16 -37.5t-37 -14.5q-5 0 -15.5 2.5t-21.5 12.5zM344 543q-11 11 -13 21.5t-2 15.5q0 23 15.5 37.5
t36.5 14.5q22 0 37 -15t15 -37q0 -23 -15.5 -37.5t-36.5 -14.5q-5 0 -16 2.5t-21 12.5z" />
    <glyph glyph-name="udieresis" unicode="&#xfc;" horiz-adv-x="542" 
d="M170 440v-316q2 -23 7.5 -42.5t27.5 -32.5q14 -8 27 -10t18 -2q13 0 34.5 5t47.5 23q11 8 16.5 13t14.5 14v263q-1 12 -4 23t-14 19t-28.5 9t-30.5 2v32h163v-365q1 -8 2.5 -16t7.5 -15q8 -9 25 -10.5l41 -3.5l-1 -30q-25 0 -42.5 -0.5t-33.5 -2t-33 -3.5l-42 -5
q-6 30 -9 62q-8 -6 -21 -17t-31.5 -21t-42.5 -17.5t-53 -7.5q-38 0 -72.5 17t-50.5 54q-5 12 -7 24.5t-3 38.5v234q-1 13 -2 19t-4 12q-8 12 -24 15.5t-42 5.5v32h159zM117 543q-4 4 -9.5 13.5t-5.5 23.5q1 22 16 37t37 15t37 -15t15 -37t-15.5 -37t-37.5 -15
q-5 0 -15.5 2.5t-21.5 12.5zM329 543q-4 4 -9.5 13.5t-5.5 23.5q0 22 15 37t37 15t37 -15t15 -37t-15 -37t-37 -15q-5 0 -16 2.5t-21 12.5z" />
    <glyph glyph-name="degree" unicode="&#xb0;" horiz-adv-x="354" 
d="M176 688q-35 -1 -60.5 -26t-25.5 -62q0 -18 7 -33.5t18.5 -27t27.5 -18.5t34 -7q37 0 61.5 25.5t24.5 61.5q0 37 -25 62t-62 25zM177 748q31 0 57.5 -11.5t46.5 -31.5t31.5 -47t11.5 -57q0 -8 -2 -23.5t-10 -34.5q-17 -41 -54 -65t-81 -24q-31 0 -57.5 11.5t-46.5 31.5
t-31.5 47t-11.5 57t11.5 57t31.5 47t47 31.5t57 11.5z" />
    <glyph glyph-name="registered" unicode="&#xae;" horiz-adv-x="833" 
d="M741 352q0 13 -1.5 34t-8 47t-19 55t-34.5 59q-12 16 -33.5 38.5t-53.5 42.5t-75 34.5t-98 14.5q-13 0 -33.5 -1.5t-46 -8t-54.5 -19t-58 -33.5q-16 -12 -39 -33.5t-44 -54t-35.5 -76t-14.5 -98.5q0 -65 24 -123q18 -46 49 -83t70.5 -63.5t85.5 -40.5t96 -14q15 0 43.5 3
t65.5 16q49 17 88.5 47.5t67 70.5t43 87.5t15.5 98.5zM773 351q0 -16 -2.5 -41.5t-11.5 -56t-26 -64.5t-45 -67q-35 -42 -75 -67t-77 -37.5t-68.5 -16.5t-50.5 -4q-60 0 -115.5 19t-102.5 54q-17 13 -41 37t-45.5 59t-36.5 82t-15 106q0 44 8.5 80.5t21 65t26.5 49t25 33.5
q14 16 37.5 38t57.5 41.5t79 33.5t102 14q85 0 159.5 -36.5t126.5 -106.5q35 -48 52.5 -102t16.5 -113zM397 395q16 0 27 0.5t19.5 1.5t15.5 3t15 6q29 13 36.5 32t7.5 31q0 5 -1.5 15.5t-9.5 22.5q-15 22 -36.5 27t-45.5 5q-2 0 -15 -0.5t-25 -3.5q-17 -5 -20 -19.5
t-4 -42.5v-78h36zM361 351v-121q0 -18 1 -29.5t6 -18.5t15.5 -10.5t29.5 -6.5v-33q-44 2 -86.5 1.5t-85.5 -1.5l1 33q11 2 22.5 3.5t17.5 12.5q4 6 4.5 19.5t0.5 30.5v261q0 6 0.5 12.5t-0.5 12.5q-2 14 -12.5 19t-33.5 7l1 34q26 -1 51 -1.5t51 -0.5q24 1 48 1.5t48 0.5
q18 0 36 -1t35.5 -5.5t33.5 -13t28 -23.5q16 -19 19.5 -36.5t3.5 -26.5q0 -33 -14.5 -53t-33.5 -31.5t-36.5 -16t-24.5 -5.5q5 -1 10 -3.5t13 -8.5q17 -15 24 -32.5t13 -38.5l9 -39q5 -22 10.5 -37t18.5 -15q9 0 14.5 6.5t9.5 15.5t6 18.5t3 15.5l31 -6q-5 -26 -11.5 -47
t-23.5 -42q-5 -5 -9.5 -10t-11.5 -8q-8 -5 -15.5 -6t-11.5 -1q-3 0 -9 1t-13.5 3.5t-15.5 7t-14 12.5q-9 11 -15.5 28t-12 36t-9.5 37t-8 31q-6 22 -10.5 32t-13.5 18q-11 11 -23 14t-26 4h-35z" />
    <glyph glyph-name="copyright" unicode="&#xa9;" horiz-adv-x="833" 
d="M497 126l-42.5 -4t-42.5 -2q-32 0 -58 5.5t-45.5 14.5t-33.5 20t-23 21q-21 23 -31.5 52t-15.5 55.5t-5.5 46.5t-0.5 26q0 9 1 35t9 53q21 71 76 100.5t125 29.5q19 0 38 -2l38 -4l22 -2q15 -2 28.5 -3t40.5 -1l6 -66t7 -65h-25q-5 23 -11.5 44t-22.5 40q-11 14 -31 26
t-60 12q-6 0 -15.5 -0.5t-21.5 -3.5t-25.5 -9t-25.5 -17q-6 -5 -15.5 -15.5t-17.5 -27.5t-14.5 -45.5t-6.5 -71.5q0 -23 2.5 -51.5t9 -57t19.5 -53.5t34 -41q12 -9 24.5 -14t24 -7t21 -2.5t14.5 -0.5q6 0 15.5 0.5t21.5 3.5t24.5 9.5t24.5 18.5q2 2 9.5 11.5t12.5 20.5
t8 23.5t5 35.5h24q0 -32 0.5 -64t0.5 -64q-19 -1 -37.5 -3t-38.5 -5zM740 352q0 13 -1.5 34.5t-8 47.5t-19.5 55.5t-35 59.5q-12 16 -33.5 38t-53 42t-74.5 34t-97 14q-13 0 -33.5 -1.5t-46 -8t-54.5 -19t-58 -33.5q-16 -12 -39 -33.5t-44 -54t-35.5 -76t-14.5 -98.5
q0 -65 24 -123q18 -46 49 -83t70.5 -63.5t85.5 -40.5t96 -14q25 0 52 4.5t51 12.5q50 16 90 46.5t68.5 71t44.5 88.5t16 100zM773 351q0 -16 -3 -41.5t-12 -57t-26 -66.5t-47 -69q-51 -58 -120.5 -89t-147.5 -31q-76 0 -145 30t-120 86q-32 34 -50 70t-27 68.5t-11.5 59
t-2.5 43.5q0 44 8.5 80.5t21 65t26.5 49t25 33.5q14 16 37.5 38t57.5 41.5t79 33.5t102 14q14 0 37 -2t51.5 -8.5t60 -20.5t63.5 -38q18 -13 42.5 -37t47 -60t38 -84t15.5 -108z" />
    <glyph glyph-name="trademark" unicode="&#x2122;" horiz-adv-x="771" 
d="M282 621l-9 24q-10 22 -22.5 25t-23.5 3h-29v-221q0 -5 0.5 -8.5t0.5 -7.5q0 -16 4.5 -21.5t21.5 -7.5l19 -2l-1 -31q-26 1 -51.5 1.5t-51.5 -0.5q-13 0 -25.5 -0.5t-25.5 -0.5v31l18 1q14 3 18 5q8 5 9 15t1 26v221h-29q-10 0 -14.5 -0.5t-9.5 -2.5q-14 -6 -20 -22
t-10 -28l-30 1q2 21 2.5 42.5t1.5 42.5q26 0 52 -0.5t52 -0.5q45 -1 88.5 -0.5t88.5 1.5q1 -22 1.5 -43t2.5 -43zM418 454q0 -16 1.5 -26.5t8.5 -15.5q5 -5 13 -5.5t9 -0.5l8 -1v-31q-59 1 -117 0v31l8 1q19 3 23.5 12t4.5 37v208l-3 4q-8 5 -11.5 6t-16.5 2v31q15 -1 30 -1
h30q8 0 16.5 0.5t16.5 0.5l100 -247l105 247q23 -1 46.5 -0.5t46.5 0.5v-31h-8q-14 -2 -22.5 -7.5t-8.5 -30.5v-183q0 -15 0.5 -26t5.5 -16t12 -5.5t8 -0.5l7 -1v-31q-19 1 -38 1.5t-38 0.5q-13 -1 -25 -1t-25 -1v31l7 1q20 1 23 9t3 18v176l-98 -235h-23l-99 237v-157z" />
    <glyph glyph-name="plusminus" unicode="&#xb1;" horiz-adv-x="667" 
d="M41 0v59h585v-59h-585zM305 123v256h-264v59h264v256h59v-256h262v-59h-262v-256h-59z" />
    <glyph glyph-name="mu" unicode="&#xb5;" horiz-adv-x="562" 
d="M531 138q2 -6 7.5 -25t5.5 -41q0 -15 -3.5 -30t-11 -27t-20 -19t-30.5 -7q-12 0 -25 4.5t-25 14.5t-22.5 27t-17.5 41q-2 -4 -12.5 -17.5t-22.5 -25.5q-22 -22 -51 -35t-61 -13q-22 0 -39.5 6.5t-30.5 15.5t-22 18t-13 14q-5 5 -7 8t-7 12q-1 -16 -1.5 -49.5t10.5 -78.5
q1 -3 4.5 -17t8.5 -26l6.5 -14.5t10.5 -19.5q16 -28 26.5 -44t10.5 -32q0 -17 -10.5 -28t-27.5 -11q-23 0 -38 17.5t-26 55.5q-10 36 -13 69.5t-3 70.5q0 21 2 68t10 104l-6 41.5t-5 40.5q-2 23 -3.5 46.5t-3.5 46.5q-1 17 -1.5 34.5t-0.5 34.5q0 39 6 57q6 22 17.5 29.5
t22.5 7.5q3 0 9 -1.5t11 -6.5q8 -7 12 -17t5.5 -19.5t1.5 -16.5v-8q0 -20 -1.5 -40t-3.5 -40l-6 -47l-6 -48q-2 -23 -4.5 -46t-7.5 -46q5 -11 9 -21t12 -21q14 -20 35 -33t47 -13q17 0 28.5 4t16.5 7q19 10 33 26.5t22.5 33t13 30t5.5 18.5q6 23 10.5 66t3.5 103
q0 12 -0.5 24t-0.5 24q0 1 0.5 18t2.5 30q0 3 2 9.5t6 13t11.5 12t19.5 5.5q18 0 27.5 -10.5t14 -25t5.5 -30t1 -27.5q0 -9 -1 -37t-5.5 -65t-14 -78.5t-27.5 -78.5q6 -19 17.5 -31t16.5 -15q3 -2 8.5 -4t14.5 -2q23 0 35 18q2 3 3.5 7t3.5 12q1 5 1.5 9.5t0.5 12.5v8.5
t-2 11.5z" />
    <glyph glyph-name="logicalnot" unicode="&#xac;" horiz-adv-x="667" 
d="M0 262v59h667v-321h-60v262h-607z" />
    <glyph glyph-name="divide" unicode="&#xf7;" horiz-adv-x="667" 
d="M0 261v59h667v-59h-667zM381 420q0 -20 -13.5 -32.5t-33.5 -12.5q-19 0 -32 13t-13 33q1 20 14 32.5t33 13.5q19 -1 32.5 -14t12.5 -33zM381 160q0 -19 -13 -32t-33 -13t-33 13t-13 33q0 5 1 8.5t2 5.5q2 8 11.5 19.5t32.5 11.5q19 0 32.5 -13t12.5 -33z" />
    <glyph glyph-name="Ccedilla" unicode="&#xc7;" horiz-adv-x="750" 
d="M389 -3l-18 -56q23 -6 44.5 -16t33.5 -33q8 -15 8 -35q0 -7 -1.5 -17t-8.5 -23q-14 -27 -41 -40.5t-56 -13.5t-51 9t-46 23l16 24q23 -11 37 -16t27 -4q23 0 41 15t18 39q0 5 -1 11t-6 15q-9 17 -24 24.5t-32 14.5l27 79h33zM690 705l10 -255l-32 1q-5 15 -9.5 30
t-9.5 30q-2 6 -7.5 18.5t-14.5 29t-21 34t-27 32.5q-23 22 -47.5 34.5t-47 18.5t-41 7.5t-28.5 1.5q-12 0 -38 -2.5t-55 -16.5q-27 -12 -54 -36.5t-48.5 -62.5t-34.5 -90.5t-13 -119.5q0 -69 17 -133t64 -116q8 -8 28 -26t51 -31q14 -6 37.5 -11.5t59.5 -5.5q48 0 85.5 12
t65 29t46 36.5t29.5 33.5q15 20 23.5 36t13.5 24l37 -29q-11 -23 -17.5 -32.5l-14.5 -20.5l-23 -27.5t-38 -36.5t-53.5 -37t-68.5 -29q-14 -4 -40.5 -8t-64.5 -4q-72 0 -132.5 19.5t-114.5 68.5q-60 55 -86 122.5t-26 147.5q0 16 2 44.5t11 64.5t26.5 75t48.5 76
q10 12 30 31t52 39q12 7 30 16.5t41.5 17.5t53 13.5t65.5 5.5q43 0 79 -8t64.5 -19.5t49.5 -24l35 -20.5q3 6 6 11t5.5 10.5l5.5 12.5t7 19h28z" />
    <glyph glyph-name="Eacute" unicode="&#xc9;" horiz-adv-x="646" 
d="M486 891q7 0 7 -3t-2 -4l-4 -2l-227 -113q-2 -1 -3.5 -1.5t-6.5 -0.5q-8 0 -8 8q0 4 2 6t3 4l97 106h142zM546 706l20 -174h-32q-15 46 -27 71t-30 40q-22 20 -48 23t-53 4h-137v-278h67q20 1 37 4t33 17q17 16 21.5 37t6.5 41h31v-240h-32q0 2 -1 19.5t-6 32.5
q-6 21 -19 31.5t-27 15t-26.5 5.5t-17.5 1h-67v-232q0 -30 8.5 -48.5t39.5 -29.5q23 -8 45.5 -9t46.5 -1q5 0 26 0.5t41 4.5q28 5 47.5 16t33 23.5t21.5 25.5t13 23q2 4 7.5 17t10.5 28q4 11 6.5 22.5t4.5 22.5h30l-13 -219h-578v34h17t17 1q15 2 32.5 5.5t26.5 17.5
q8 11 9.5 26.5l2.5 26.5v484q0 17 -3 35.5t-18 29.5q-13 9 -30.5 10.5t-47.5 3.5v32h511z" />
    <glyph glyph-name="Ntilde" unicode="&#xd1;" horiz-adv-x="792" 
d="M568 866q-10 -14 -22 -29t-26.5 -28t-31.5 -21t-36 -8q-23 0 -51.5 10.5t-48.5 16.5q-2 1 -16.5 5t-28.5 4q-23 0 -37 -9.5t-30 -25.5l-13 11q6 11 13 19q3 4 11.5 14t21.5 21t30.5 19.5t38.5 8.5q22 0 44.5 -7.5t42.5 -15.5q2 -1 19 -6.5t33 -5.5q25 0 40.5 11.5
t31.5 27.5zM766 706v-35q-5 0 -16 -0.5t-25 -4.5q-21 -5 -33 -16t-17.5 -25.5t-7 -32t-1.5 -35.5v-563h-47l-371 518l-39 57l-16 26l-16 26v-471v-7.5t0.5 -16t1.5 -20t4 -19.5q6 -22 20.5 -33t30.5 -15.5t29 -5t18 -0.5v-33h-253l1 34q29 2 43 5.5t27 12.5q25 18 29.5 46
t5.5 55v461q-1 8 -2 15t-5 14q-11 20 -32.5 24t-59.5 6v33h203l307 -428l22.5 -31.5t22.5 -32.5l16.5 -26l17.5 -26v403q-1 14 -1.5 28t-5.5 27q-5 16 -15 26t-22.5 15.5t-26.5 7.5l-29 4v33h242z" />
    <glyph glyph-name="aacute" unicode="&#xe1;" horiz-adv-x="479" 
d="M403 642q7 0 7 -3q-1 -3 -3 -4t-3 -1l-227 -114q-2 0 -4 -1t-6 -1q-8 0 -8 8q0 4 2 6.5t3 3.5l96 106h143zM299 248l-27 -9.5l-27 -9.5l-13.5 -4l-13.5 -4q-4 -1 -14.5 -4t-23.5 -9.5t-25 -17.5t-19 -28q-6 -15 -6 -34q0 -3 0.5 -11t4.5 -17q5 -13 20 -28t48 -15
q30 0 52 12.5t44 29.5v149zM385 87q1 -15 6 -28.5t24 -13.5q8 0 12.5 2t6.5 4q11 7 16.5 17t10.5 31h31q-2 -10 -6 -22.5t-9 -21.5q-3 -7 -9.5 -17t-17 -19.5t-26.5 -16t-37 -6.5q-37 0 -54.5 15.5t-24.5 29.5q-3 8 -4 15t-3 15l-22 -21t-37 -26q-30 -19 -50.5 -23.5
t-37.5 -4.5q-53 0 -83 30t-30 83q0 27 6.5 46t16 32t20.5 21.5t21 13.5q33 17 64 23t66 14q31 7 64 20v52q0 27 -4 38q-2 8 -7 17t-14 16.5t-23 12.5t-34 5q-5 0 -13 -0.5t-17 -3.5t-18 -9.5t-16 -18.5q-4 -8 -5 -12t-3 -17l-2.5 -13t-6.5 -15t-14.5 -12t-24.5 -5
q-29 0 -38 13t-9 25q0 8 4.5 19t15.5 25q18 21 41.5 32.5t46 17t40 6t24.5 0.5q67 0 104 -21.5t50 -49.5q5 -8 6 -16l3 -25v-253z" />
    <glyph glyph-name="agrave" unicode="&#xe0;" horiz-adv-x="479" 
d="M313 535l3.5 -3.5t1.5 -6.5q0 -7 -8 -7q-4 0 -10 2l-227 113q-6 4 -5 6q0 3 7 3h142zM299 248l-27 -9.5l-27 -9.5l-13.5 -4l-13.5 -4q-4 -1 -14.5 -4t-23.5 -9.5t-25 -17.5t-19 -28q-6 -15 -6 -34q0 -3 0.5 -11t4.5 -17q5 -13 20 -28t48 -15q30 0 52 12.5t44 29.5v149z
M385 87q1 -15 6 -28.5t24 -13.5q8 0 12.5 2t6.5 4q11 7 16.5 17t10.5 31h31q-2 -10 -6 -22.5t-9 -21.5q-3 -7 -9.5 -17t-17 -19.5t-26.5 -16t-37 -6.5q-37 0 -54.5 15.5t-24.5 29.5q-3 8 -4 15t-3 15l-22 -21t-37 -26q-30 -19 -50.5 -23.5t-37.5 -4.5q-53 0 -83 30t-30 83
q0 27 6.5 46t16 32t20.5 21.5t21 13.5q33 17 64 23t66 14q31 7 64 20v52q0 27 -4 38q-2 8 -7 17t-14 16.5t-23 12.5t-34 5q-5 0 -13 -0.5t-17 -3.5t-18 -9.5t-16 -18.5q-4 -8 -5 -12t-3 -17l-2.5 -13t-6.5 -15t-14.5 -12t-24.5 -5q-29 0 -38 13t-9 25q0 8 4.5 19t15.5 25
q18 21 41.5 32.5t46 17t40 6t24.5 0.5q67 0 104 -21.5t50 -49.5q5 -8 6 -16l3 -25v-253z" />
    <glyph glyph-name="acircumflex" unicode="&#xe2;" horiz-adv-x="479" 
d="M365 544q2 -1 5.5 -4.5t3.5 -9.5q0 -3 -2.5 -8t-10.5 -5q-4 0 -13 4l-111 50l-107 -52q-2 -1 -4.5 -2.5t-7.5 -1.5q-7 1 -9 5.5t-2 6.5q0 6 7 13l123 104zM299 248l-27 -9.5l-27 -9.5l-13.5 -4l-13.5 -4q-4 -1 -14.5 -4t-23.5 -9.5t-25 -17.5t-19 -28q-6 -15 -6 -34
q0 -3 0.5 -11t4.5 -17q5 -13 20 -28t48 -15q30 0 52 12.5t44 29.5v149zM385 87q1 -15 6 -28.5t24 -13.5q8 0 12.5 2t6.5 4q11 7 16.5 17t10.5 31h31q-2 -10 -6 -22.5t-9 -21.5q-3 -7 -9.5 -17t-17 -19.5t-26.5 -16t-37 -6.5q-37 0 -54.5 15.5t-24.5 29.5q-3 8 -4 15t-3 15
l-22 -21t-37 -26q-30 -19 -50.5 -23.5t-37.5 -4.5q-53 0 -83 30t-30 83q0 27 6.5 46t16 32t20.5 21.5t21 13.5q33 17 64 23t66 14q31 7 64 20v52q0 27 -4 38q-2 8 -7 17t-14 16.5t-23 12.5t-34 5q-5 0 -13 -0.5t-17 -3.5t-18 -9.5t-16 -18.5q-4 -8 -5 -12t-3 -17l-2.5 -13
t-6.5 -15t-14.5 -12t-24.5 -5q-29 0 -38 13t-9 25q0 8 4.5 19t15.5 25q18 21 41.5 32.5t46 17t40 6t24.5 0.5q67 0 104 -21.5t50 -49.5q5 -8 6 -16l3 -25v-253z" />
    <glyph glyph-name="atilde" unicode="&#xe3;" horiz-adv-x="479" 
d="M411 620l-22 -29.5t-26 -28.5t-31 -21t-36 -8q-23 0 -51.5 10.5t-49.5 17.5q-2 1 -16.5 5t-27.5 4q-23 -1 -37.5 -10.5t-29.5 -24.5l-14 11q4 5 7 9.5t7 9.5q3 4 11.5 14t21.5 21t30.5 19.5t38.5 8.5q22 0 44.5 -8l42.5 -15q2 -1 19 -6.5t33 -5.5q25 0 40.5 11t31.5 27z
M299 248l-27 -9.5l-27 -9.5l-13.5 -4l-13.5 -4q-4 -1 -14.5 -4t-23.5 -9.5t-25 -17.5t-19 -28q-6 -15 -6 -34q0 -3 0.5 -11t4.5 -17q5 -13 20 -28t48 -15q30 0 52 12.5t44 29.5v149zM385 87q1 -15 6 -28.5t24 -13.5q8 0 12.5 2t6.5 4q11 7 16.5 17t10.5 31h31
q-2 -10 -6 -22.5t-9 -21.5q-3 -7 -9.5 -17t-17 -19.5t-26.5 -16t-37 -6.5q-37 0 -54.5 15.5t-24.5 29.5q-3 8 -4 15t-3 15l-22 -21t-37 -26q-30 -19 -50.5 -23.5t-37.5 -4.5q-53 0 -83 30t-30 83q0 27 6.5 46t16 32t20.5 21.5t21 13.5q33 17 64 23t66 14q31 7 64 20v52
q0 27 -4 38q-2 8 -7 17t-14 16.5t-23 12.5t-34 5q-5 0 -13 -0.5t-17 -3.5t-18 -9.5t-16 -18.5q-4 -8 -5 -12t-3 -17l-2.5 -13t-6.5 -15t-14.5 -12t-24.5 -5q-29 0 -38 13t-9 25q0 8 4.5 19t15.5 25q18 21 41.5 32.5t46 17t40 6t24.5 0.5q67 0 104 -21.5t50 -49.5q5 -8 6 -16
l3 -25v-253z" />
    <glyph glyph-name="ccedilla" unicode="&#xe7;" horiz-adv-x="458" 
d="M243 -3l-18 -56q23 -6 44.5 -16t33.5 -33q8 -15 8 -35q0 -7 -1.5 -17t-8.5 -23q-14 -27 -41 -40.5t-56 -13.5t-51 9t-46 23l17 24q23 -11 36.5 -16t26.5 -4q23 0 41 15t18 39q0 5 -1 11t-6 15q-9 17 -24 24.5t-31 14.5l26 79h33zM435 100q-8 -19 -13.5 -28.5t-11.5 -17.5
q-18 -25 -40.5 -39t-44.5 -20.5t-39.5 -8t-26.5 -1.5q-13 0 -38.5 3t-56.5 17q-44 19 -68.5 48.5t-36.5 60t-14.5 58t-2.5 41.5q0 32 4.5 54t8.5 34q23 71 80 111t130 40q50 0 80 -15t44 -28q1 -2 5 -6t8.5 -10t8 -14.5t3.5 -17.5q-1 -11 -8.5 -24.5t-33.5 -13.5
q-14 0 -22 4t-13 6q0 1 -1.5 14t-4.5 22q-8 23 -27 33.5t-42 10.5q-29 0 -53 -15t-39 -38q-11 -17 -21 -48t-10 -79q0 -2 0.5 -18t4.5 -38.5t12.5 -48.5t24 -47.5t40.5 -36t61 -14.5q6 0 17.5 1t25 5.5t28 13t26.5 23.5q7 8 13 18t11 21z" />
    <glyph glyph-name="eacute" unicode="&#xe9;" horiz-adv-x="479" 
d="M403 642q7 0 7 -3q-1 -3 -3 -4t-3 -1l-227 -114q-2 0 -4 -1t-6 -1q-8 0 -8 8q0 4 2 6.5t3 3.5l96 106h143zM346 274q-1 20 -3 45t-10 45q-3 7 -9.5 15.5t-16.5 16t-25 13t-34 5.5q-9 0 -26 -2.5t-34 -16.5q-28 -23 -36.5 -56t-12.5 -65h207zM137 237q0 -24 1.5 -50t7 -51
t18 -46.5t35.5 -37.5q9 -7 28 -15t48 -8q8 0 22 1.5t32 9.5q27 11 45 29t35 40l27 -16l-15 -21t-15 -20q-20 -24 -41.5 -37t-42 -19.5t-37.5 -8t-29 -1.5q-10 0 -25.5 1t-34.5 6t-40 15t-42 28q-27 23 -41.5 49t-21.5 50.5t-8 44.5t-1 32q0 10 1 27t5.5 38t13.5 44.5
t26 46.5q7 10 20.5 24.5t34 28t48.5 22.5t64 9q8 0 29.5 -2t44.5 -12q10 -5 25 -14t30.5 -24t28.5 -37.5t21 -52.5q3 -11 4.5 -22.5t2 -22t1 -18t0.5 -9.5z" />
    <glyph glyph-name="egrave" unicode="&#xe8;" horiz-adv-x="479" 
d="M313 535l3.5 -3.5t1.5 -6.5q0 -7 -8 -7q-4 0 -10 2l-227 113q-6 4 -5 6q0 3 7 3h142zM346 274q-1 20 -3 45t-10 45q-3 7 -9.5 15.5t-16.5 16t-25 13t-34 5.5q-9 0 -26 -2.5t-34 -16.5q-28 -23 -36.5 -56t-12.5 -65h207zM137 237q0 -24 1.5 -50t7 -51t18 -46.5t35.5 -37.5
q9 -7 28 -15t48 -8q8 0 22 1.5t32 9.5q27 11 45 29t35 40l27 -16l-15 -21t-15 -20q-20 -24 -41.5 -37t-42 -19.5t-37.5 -8t-29 -1.5q-10 0 -25.5 1t-34.5 6t-40 15t-42 28q-27 23 -41.5 49t-21.5 50.5t-8 44.5t-1 32q0 10 1 27t5.5 38t13.5 44.5t26 46.5q7 10 20.5 24.5
t34 28t48.5 22.5t64 9q8 0 29.5 -2t44.5 -12q10 -5 25 -14t30.5 -24t28.5 -37.5t21 -52.5q3 -11 4.5 -22.5t2 -22t1 -18t0.5 -9.5z" />
    <glyph glyph-name="ecircumflex" unicode="&#xea;" horiz-adv-x="479" 
d="M376 544q2 -1 5.5 -4.5t3.5 -9.5q0 -3 -2.5 -8t-10.5 -5q-5 0 -14 4l-111 50l-107 -52q-2 -1 -4.5 -2.5t-6.5 -1.5q-8 1 -9.5 5.5t-1.5 6.5q0 7 7 13l122 104zM346 274q-1 20 -3 45t-10 45q-3 7 -9.5 15.5t-16.5 16t-25 13t-34 5.5q-9 0 -26 -2.5t-34 -16.5
q-28 -23 -36.5 -56t-12.5 -65h207zM137 237q0 -24 1.5 -50t7 -51t18 -46.5t35.5 -37.5q9 -7 28 -15t48 -8q8 0 22 1.5t32 9.5q27 11 45 29t35 40l27 -16l-15 -21t-15 -20q-20 -24 -41.5 -37t-42 -19.5t-37.5 -8t-29 -1.5q-10 0 -25.5 1t-34.5 6t-40 15t-42 28
q-27 23 -41.5 49t-21.5 50.5t-8 44.5t-1 32q0 10 1 27t5.5 38t13.5 44.5t26 46.5q7 10 20.5 24.5t34 28t48.5 22.5t64 9q8 0 29.5 -2t44.5 -12q10 -5 25 -14t30.5 -24t28.5 -37.5t21 -52.5q3 -11 4.5 -22.5t2 -22t1 -18t0.5 -9.5z" />
    <glyph glyph-name="edieresis" unicode="&#xeb;" horiz-adv-x="479" 
d="M107 543q-11 11 -13 21.5t-2 15.5q0 23 15.5 37.5t36.5 14.5q22 0 37 -15t15 -37q0 -23 -15.5 -37.5t-36.5 -14.5q-5 0 -16 2.5t-21 12.5zM318 543q-10 11 -12.5 21.5t-2.5 15.5q0 23 15.5 37.5t37.5 14.5t36.5 -15t14.5 -37q0 -23 -15.5 -37.5t-36.5 -14.5
q-5 0 -15.5 2.5t-21.5 12.5zM346 274q-1 20 -3 45t-10 45q-3 7 -9.5 15.5t-16.5 16t-25 13t-34 5.5q-9 0 -26 -2.5t-34 -16.5q-28 -23 -36.5 -56t-12.5 -65h207zM137 237q0 -24 1.5 -50t7 -51t18 -46.5t35.5 -37.5q9 -7 28 -15t48 -8q8 0 22 1.5t32 9.5q27 11 45 29t35 40
l27 -16l-15 -21t-15 -20q-20 -24 -41.5 -37t-42 -19.5t-37.5 -8t-29 -1.5q-10 0 -25.5 1t-34.5 6t-40 15t-42 28q-27 23 -41.5 49t-21.5 50.5t-8 44.5t-1 32q0 10 1 27t5.5 38t13.5 44.5t26 46.5q7 10 20.5 24.5t34 28t48.5 22.5t64 9q8 0 29.5 -2t44.5 -12q10 -5 25 -14
t30.5 -24t28.5 -37.5t21 -52.5q3 -11 4.5 -22.5t2 -22t1 -18t0.5 -9.5z" />
    <glyph glyph-name="iacute" unicode="&#xed;" horiz-adv-x="271" 
d="M299 642q7 0 7 -3q-1 -3 -3 -4t-3 -1l-227 -114q-2 0 -4 -1t-6 -1q-8 0 -8 8q0 4 2 6.5t3 3.5l96 106h143zM181 82q0 -1 0.5 -12.5t5.5 -19.5q7 -11 23 -14.5t41 -5.5v-30h-228l1 31q25 2 40 4.5t23 12.5q3 5 4.5 9.5t2.5 15.5v256q0 9 -1 16.5t-6 15.5q-10 16 -30 17.5
t-39 1.5v31q35 3 58 7t40 8.5t31.5 10t33.5 13.5v-368z" />
    <glyph glyph-name="igrave" unicode="&#xec;" horiz-adv-x="271" 
d="M209 535q1 -1 3 -3.5t2 -6.5q0 -7 -8 -7q-2 0 -5 0.5t-5 1.5l-227 113q-6 4 -5 6q0 3 7 3h142zM181 82q0 -1 0.5 -12.5t5.5 -19.5q7 -11 23 -14.5t41 -5.5v-30h-228l1 31q25 2 40 4.5t23 12.5q3 5 4.5 9.5t2.5 15.5v256q0 9 -1 16.5t-6 15.5q-10 16 -30 17.5t-39 1.5v31
q35 3 58 7t40 8.5t31.5 10t33.5 13.5v-368z" />
    <glyph glyph-name="icircumflex" unicode="&#xee;" horiz-adv-x="271" 
d="M261 544q2 -1 5.5 -4.5t3.5 -9.5q0 -3 -2.5 -8t-10.5 -5q-5 0 -13 4l-111 50l-107 -52q-2 -1 -4.5 -2.5t-7.5 -1.5q-7 1 -9 5.5t-2 6.5q0 6 7 13l123 104zM181 82q0 -1 0.5 -12.5t5.5 -19.5q7 -11 23 -14.5t41 -5.5v-30h-228l1 31q25 2 40 4.5t23 12.5q3 5 4.5 9.5
t2.5 15.5v256q0 9 -1 16.5t-6 15.5q-10 16 -30 17.5t-39 1.5v31q35 3 58 7t40 8.5t31.5 10t33.5 13.5v-368z" />
    <glyph glyph-name="idieresis" unicode="&#xef;" horiz-adv-x="271" 
d="M-8 543q-10 11 -12.5 21.5t-2.5 15.5q1 23 16 37.5t37 14.5t37 -15t15 -37q-1 -23 -16 -37.5t-37 -14.5q-5 0 -15.5 2.5t-21.5 12.5zM204 543q-11 11 -13 21.5t-2 15.5q0 23 15.5 37.5t36.5 14.5q22 0 37 -15t15 -37q0 -23 -15.5 -37.5t-36.5 -14.5q-5 0 -16 2.5
t-21 12.5zM181 82q0 -1 0.5 -12.5t5.5 -19.5q7 -11 23 -14.5t41 -5.5v-30h-228l1 31q25 2 40 4.5t23 12.5q3 5 4.5 9.5t2.5 15.5v256q0 9 -1 16.5t-6 15.5q-10 16 -30 17.5t-39 1.5v31q35 3 58 7t40 8.5t31.5 10t33.5 13.5v-368z" />
    <glyph glyph-name="ntilde" unicode="&#xf1;" horiz-adv-x="562" 
d="M453 620l-22 -29.5t-26 -28.5t-31 -21t-37 -8q-23 0 -51 10.5t-49 17.5q-2 1 -16.5 5t-28.5 4q-23 -1 -37 -10.5t-29 -24.5l-14 11q7 11 14 19l11 14t21 21t30.5 19.5t38.5 8.5q22 0 44.5 -8l42.5 -15q2 -1 19.5 -6.5t33.5 -5.5q25 0 40 11t31 27zM473 72q0 -9 1 -14
t3 -9q7 -12 23.5 -15.5t42.5 -4.5v-29h-228v29q8 1 16.5 1.5t16.5 2.5q4 0 13.5 2.5t17.5 11.5q5 5 5.5 11t0.5 14v225q-1 26 -6.5 49.5t-30.5 39.5q-12 8 -25.5 11t-27.5 3q-23 0 -42 -6.5t-33.5 -15t-24.5 -17.5t-15 -14v-272q1 -28 16.5 -36t55.5 -10v-29h-229l1 29
q13 0 32.5 2.5t29.5 13.5q6 8 7 16t1 16v263v9.5t-5 13.5q-8 14 -25 16t-46 2l1 30q30 4 50 8.5t35 9t27.5 9.5t28.5 12l6.5 -22.5t4 -15t2 -12.5t2.5 -14l15.5 11.5l15.5 11.5q7 5 19.5 12.5t30 14t38.5 11.5t47 5q28 0 49.5 -7.5t36 -18.5t23.5 -23.5t14 -23.5
q6 -16 7 -30.5l2 -30.5v-246z" />
    <glyph glyph-name="oacute" unicode="&#xf3;" horiz-adv-x="542" 
d="M434 642q7 0 7 -3t-2.5 -4t-3.5 -1l-227 -114q-2 0 -4 -1t-6 -1q-8 0 -8 8q0 4 2 6.5t3 3.5l97 106h142zM270 419q-11 0 -26.5 -2.5t-32 -11t-31.5 -25t-25 -43.5q-7 -18 -10.5 -38t-5 -38t-2 -31t-0.5 -17q0 -5 0.5 -21.5t4 -39t12 -46.5t24.5 -44q14 -17 31 -28
q9 -5 23.5 -9.5t38.5 -4.5q42 0 68.5 19t40.5 48.5t19 64.5t5 67q0 3 -0.5 17t-2.5 33t-6 40.5t-12 38.5q-2 4 -7.5 14t-14.5 20q-36 39 -91 37zM274 452q24 0 43.5 -4t27.5 -6q40 -11 69 -32t48 -50t28 -64.5t9 -74.5q0 -10 -1 -27.5t-6.5 -40t-16.5 -47t-31 -47.5
q-23 -27 -48.5 -42t-49.5 -21.5t-44 -8t-32 -1.5q-11 0 -37.5 2t-57.5 13q-47 18 -74 48.5t-40 62.5t-16 60.5t-3 42.5q0 55 14 90t27 54q24 35 57 55.5t73 29.5q20 5 36.5 6.5t24.5 1.5z" />
    <glyph glyph-name="ograve" unicode="&#xf2;" horiz-adv-x="542" 
d="M345 535q1 -1 3 -3.5t2 -6.5q0 -7 -9 -7q-4 0 -10 2l-227 113q-5 5 -5 6q0 3 7 3h142zM270 419q-11 0 -26.5 -2.5t-32 -11t-31.5 -25t-25 -43.5q-7 -18 -10.5 -38t-5 -38t-2 -31t-0.5 -17q0 -5 0.5 -21.5t4 -39t12 -46.5t24.5 -44q14 -17 31 -28q9 -5 23.5 -9.5
t38.5 -4.5q42 0 68.5 19t40.5 48.5t19 64.5t5 67q0 3 -0.5 17t-2.5 33t-6 40.5t-12 38.5q-2 4 -7.5 14t-14.5 20q-36 39 -91 37zM274 452q24 0 43.5 -4t27.5 -6q40 -11 69 -32t48 -50t28 -64.5t9 -74.5q0 -10 -1 -27.5t-6.5 -40t-16.5 -47t-31 -47.5q-23 -27 -48.5 -42
t-49.5 -21.5t-44 -8t-32 -1.5q-11 0 -37.5 2t-57.5 13q-47 18 -74 48.5t-40 62.5t-16 60.5t-3 42.5q0 55 14 90t27 54q24 35 57 55.5t73 29.5q20 5 36.5 6.5t24.5 1.5z" />
    <glyph glyph-name="ocircumflex" unicode="&#xf4;" horiz-adv-x="542" 
d="M397 544q1 -1 5 -4.5t4 -9.5q0 -3 -2.5 -8t-10.5 -5q-5 0 -14 4l-111 50l-107 -52q-2 -1 -4.5 -2.5t-6.5 -1.5q-8 1 -10 5.5t-2 6.5q0 6 8 13l122 104zM270 419q-11 0 -26.5 -2.5t-32 -11t-31.5 -25t-25 -43.5q-7 -18 -10.5 -38t-5 -38t-2 -31t-0.5 -17q0 -5 0.5 -21.5
t4 -39t12 -46.5t24.5 -44q14 -17 31 -28q9 -5 23.5 -9.5t38.5 -4.5q42 0 68.5 19t40.5 48.5t19 64.5t5 67q0 3 -0.5 17t-2.5 33t-6 40.5t-12 38.5q-2 4 -7.5 14t-14.5 20q-36 39 -91 37zM274 452q24 0 43.5 -4t27.5 -6q40 -11 69 -32t48 -50t28 -64.5t9 -74.5
q0 -10 -1 -27.5t-6.5 -40t-16.5 -47t-31 -47.5q-23 -27 -48.5 -42t-49.5 -21.5t-44 -8t-32 -1.5q-11 0 -37.5 2t-57.5 13q-47 18 -74 48.5t-40 62.5t-16 60.5t-3 42.5q0 55 14 90t27 54q24 35 57 55.5t73 29.5q20 5 36.5 6.5t24.5 1.5z" />
    <glyph glyph-name="otilde" unicode="&#xf5;" horiz-adv-x="542" 
d="M443 620l-22 -29.5t-26.5 -28.5t-31.5 -21t-36 -8q-23 0 -51.5 10.5l-48.5 17.5q-2 1 -16.5 5t-28.5 4q-23 -1 -37 -10.5t-30 -24.5l-13 11q3 5 6 9.5t7 9.5q3 4 11.5 14t21.5 21t30.5 19.5t38.5 8.5q22 0 44.5 -8l42.5 -15q2 -1 19 -6.5t33 -5.5q25 0 40.5 11t31.5 27z
M270 419q-11 0 -26.5 -2.5t-32 -11t-31.5 -25t-25 -43.5q-7 -18 -10.5 -38t-5 -38t-2 -31t-0.5 -17q0 -5 0.5 -21.5t4 -39t12 -46.5t24.5 -44q14 -17 31 -28q9 -5 23.5 -9.5t38.5 -4.5q42 0 68.5 19t40.5 48.5t19 64.5t5 67q0 3 -0.5 17t-2.5 33t-6 40.5t-12 38.5
q-2 4 -7.5 14t-14.5 20q-36 39 -91 37zM274 452q24 0 43.5 -4t27.5 -6q40 -11 69 -32t48 -50t28 -64.5t9 -74.5q0 -10 -1 -27.5t-6.5 -40t-16.5 -47t-31 -47.5q-23 -27 -48.5 -42t-49.5 -21.5t-44 -8t-32 -1.5q-11 0 -37.5 2t-57.5 13q-47 18 -74 48.5t-40 62.5t-16 60.5
t-3 42.5q0 55 14 90t27 54q24 35 57 55.5t73 29.5q20 5 36.5 6.5t24.5 1.5z" />
    <glyph glyph-name="uacute" unicode="&#xfa;" horiz-adv-x="542" 
d="M434 642q7 0 7 -3t-2.5 -4t-3.5 -1l-227 -114q-2 0 -4 -1t-6 -1q-8 0 -8 8q0 4 2 6.5t3 3.5l97 106h142zM170 440v-316q2 -23 7.5 -42.5t27.5 -32.5q14 -8 27 -10t18 -2q13 0 34.5 5t47.5 23q11 8 16.5 13t14.5 14v263q-1 12 -4 23t-14 19t-28.5 9t-30.5 2v32h163v-365
q1 -8 2.5 -16t7.5 -15q8 -9 25 -10.5l41 -3.5l-1 -30q-25 0 -42.5 -0.5t-33.5 -2t-33 -3.5l-42 -5q-6 30 -9 62q-8 -6 -21 -17t-31.5 -21t-42.5 -17.5t-53 -7.5q-38 0 -72.5 17t-50.5 54q-5 12 -7 24.5t-3 38.5v234q-1 13 -2 19t-4 12q-8 12 -24 15.5t-42 5.5v32h159z" />
    <glyph glyph-name="ugrave" unicode="&#xf9;" horiz-adv-x="542" 
d="M345 535q1 -1 3 -3.5t2 -6.5q0 -7 -9 -7q-4 0 -10 2l-227 113q-5 5 -5 6q0 3 7 3h142zM170 440v-316q2 -23 7.5 -42.5t27.5 -32.5q14 -8 27 -10t18 -2q13 0 34.5 5t47.5 23q11 8 16.5 13t14.5 14v263q-1 12 -4 23t-14 19t-28.5 9t-30.5 2v32h163v-365q1 -8 2.5 -16
t7.5 -15q8 -9 25 -10.5l41 -3.5l-1 -30q-25 0 -42.5 -0.5t-33.5 -2t-33 -3.5l-42 -5q-6 30 -9 62q-8 -6 -21 -17t-31.5 -21t-42.5 -17.5t-53 -7.5q-38 0 -72.5 17t-50.5 54q-5 12 -7 24.5t-3 38.5v234q-1 13 -2 19t-4 12q-8 12 -24 15.5t-42 5.5v32h159z" />
    <glyph glyph-name="ucircumflex" unicode="&#xfb;" horiz-adv-x="542" 
d="M397 544q1 -1 5 -4.5t4 -9.5q0 -3 -2.5 -8t-10.5 -5q-5 0 -14 4l-111 50l-107 -52q-2 -1 -4.5 -2.5t-6.5 -1.5q-8 1 -10 5.5t-2 6.5q0 6 8 13l122 104zM170 440v-316q2 -23 7.5 -42.5t27.5 -32.5q14 -8 27 -10t18 -2q13 0 34.5 5t47.5 23q11 8 16.5 13t14.5 14v263
q-1 12 -4 23t-14 19t-28.5 9t-30.5 2v32h163v-365q1 -8 2.5 -16t7.5 -15q8 -9 25 -10.5l41 -3.5l-1 -30q-25 0 -42.5 -0.5t-33.5 -2t-33 -3.5l-42 -5q-6 30 -9 62q-8 -6 -21 -17t-31.5 -21t-42.5 -17.5t-53 -7.5q-38 0 -72.5 17t-50.5 54q-5 12 -7 24.5t-3 38.5v234
q-1 13 -2 19t-4 12q-8 12 -24 15.5t-42 5.5v32h159z" />
    <glyph glyph-name="Agrave" unicode="&#xc0;" horiz-adv-x="750" 
d="M449 784q1 -1 3 -3.5t2 -6.5q0 -7 -8 -7q-6 0 -10 2l-228 113q-5 5 -5 6q0 3 7 3h142zM240 292h216l-54 139q-7 17 -13.5 35l-12.5 36q-7 18 -13.5 36.5l-12.5 36.5zM397 715l232 -577l13.5 -31t15.5 -30q11 -16 23.5 -25t24.5 -13t22 -5t17 -2v-32h-296v32h25
q9 0 20.5 1t21.5 4.5t17 10.5t7 21q0 7 -3.5 17.5t-9.5 25.5l-57 143h-244l-49 -128l-10.5 -29t-3.5 -21q0 -24 21 -32.5t60 -12.5v-32h-233v32q5 0 15 1.5t21 4.5q18 5 31 13.5t22 20t15.5 25.5l13.5 30l235 588h33z" />
    <glyph glyph-name="Atilde" unicode="&#xc3;" horiz-adv-x="750" 
d="M547 866q-10 -14 -22 -29t-26.5 -28t-31.5 -21t-36 -8q-23 0 -51.5 10.5t-48.5 16.5q-2 1 -16.5 5t-28.5 4q-23 0 -37 -9.5t-30 -25.5l-13 11q3 5 6.5 9.5t6.5 9.5q3 4 11.5 14t21.5 21t30.5 19.5t38.5 8.5q22 0 44.5 -7.5t42.5 -15.5q2 -1 19.5 -6.5t33.5 -5.5
q24 0 39.5 11.5t31.5 27.5zM240 292h216l-54 139q-7 17 -13.5 35l-12.5 36q-7 18 -13.5 36.5l-12.5 36.5zM397 715l232 -577l13.5 -31t15.5 -30q11 -16 23.5 -25t24.5 -13t22 -5t17 -2v-32h-296v32h25q9 0 20.5 1t21.5 4.5t17 10.5t7 21q0 7 -3.5 17.5t-9.5 25.5l-57 143
h-244l-49 -128l-10.5 -29t-3.5 -21q0 -24 21 -32.5t60 -12.5v-32h-233v32q5 0 15 1.5t21 4.5q18 5 31 13.5t22 20t15.5 25.5l13.5 30l235 588h33z" />
    <glyph glyph-name="Otilde" unicode="&#xd5;" horiz-adv-x="854" 
d="M599 866q-10 -14 -22 -29t-26.5 -28t-31.5 -21t-36 -8q-23 0 -51.5 10.5t-48.5 16.5q-2 1 -16.5 5t-28.5 4q-23 0 -37 -9.5t-30 -25.5l-13 11q3 5 6.5 9.5t6.5 9.5q3 4 11.5 14t21.5 21t30.5 19.5t38.5 8.5q22 0 44.5 -7.5t42.5 -15.5q2 -1 19.5 -6.5t33.5 -5.5
q24 0 39.5 11.5t31.5 27.5zM416 691q-9 0 -24 -1.5t-33 -6t-38 -13.5t-40 -24q-22 -16 -41.5 -40t-34.5 -58t-23.5 -79.5t-8.5 -103.5q0 -7 0.5 -24t2.5 -39.5t5.5 -49t10.5 -51.5q9 -35 23 -61t29 -44t30.5 -30t29.5 -19q38 -20 71.5 -24t47.5 -4q11 0 33 2t48.5 10t55 24
t51.5 45q28 34 48 98.5t20 164.5q0 61 -8.5 107.5t-24 81.5t-36.5 59t-45 40q-20 13 -56 27t-93 13zM419 724q19 0 51 -2t70.5 -12.5t80 -32.5t80.5 -62q15 -15 32.5 -37.5t32.5 -54.5t25 -73.5t10 -94.5q0 -35 -5 -67t-16 -65q-8 -22 -23.5 -54t-44 -64.5t-71 -61.5
t-103.5 -45q-14 -4 -44.5 -9.5t-70.5 -5.5q-15 0 -41.5 2t-59.5 10t-70 24t-72 44q-18 15 -40.5 39t-42 59t-33 81.5t-13.5 106.5q0 20 3.5 61.5t23.5 91.5q8 21 25.5 51t47.5 61t73.5 58t103.5 41q23 5 45 7.5t46 3.5z" />
    <glyph glyph-name="ydieresis" unicode="&#xff;" horiz-adv-x="521" 
d="M117 543q-10 11 -12.5 21.5t-2.5 15.5q1 23 16 37.5t37 14.5t37 -15t15 -37q-1 -23 -16.5 -37.5t-36.5 -14.5q-5 0 -15.5 2.5t-21.5 12.5zM329 543q-11 11 -13 21.5t-2 15.5q0 23 15.5 37.5t36.5 14.5q22 0 37 -15t15 -37q0 -23 -15.5 -37.5t-36.5 -14.5q-5 0 -16 2.5
t-21 12.5zM214 440v-29q-9 0 -18 -1t-17 -6q-2 -1 -6.5 -5t-4.5 -13q0 -5 2.5 -10t6.5 -14l110 -243l112 248q7 17 7 22q0 9 -6 13.5t-14 6.5t-16.5 2h-12.5v29h153v-29q-2 -1 -13.5 -1.5t-21.5 -4.5q-17 -7 -24.5 -19t-9.5 -17l-8 -16l-177 -394l-39 -83t-40 -82
q-8 -15 -17 -30t-21 -27t-27.5 -19.5t-34.5 -7.5q-17 0 -34 9.5t-17 30.5q0 8 3 15t5 9q5 -1 8 -1h9q17 1 42.5 12t49.5 43q21 26 44.5 71.5t55.5 115.5l-168 356q-8 15 -16 22.5t-16 11.5t-16.5 5t-15.5 1v29h203z" />
    <glyph glyph-name="Ydieresis" unicode="&#x178;" horiz-adv-x="729" 
d="M224 790q-11 10 -13 21t-2 16q0 22 15.5 36.5t36.5 14.5q22 0 37 -15t15 -37q0 -23 -15.5 -37.5t-36.5 -14.5q-5 0 -16 2.5t-21 13.5zM435 790q-10 10 -12.5 21t-2.5 16q0 22 15.5 36.5t37.5 14.5t36.5 -15t14.5 -37q0 -23 -15.5 -37.5t-36.5 -14.5q-5 0 -15.5 2.5
t-21.5 13.5zM313 706v-33h-15t-18.5 -0.5t-18.5 -1.5t-14 -4q-2 -2 -7 -6.5t-5 -14.5q0 -6 2.5 -11.5l7.5 -16.5l151 -263l154 256q1 2 6.5 11t5.5 19q-1 9 -6 15.5t-22 10.5q-10 2 -27.5 3t-42.5 3v33h253v-33q-20 -2 -34 -4.5t-24 -6t-18 -8t-16 -11.5
q-12 -11 -18.5 -19.5t-14.5 -21.5l-175 -289v-208q0 -19 2.5 -28.5t7.5 -18.5q7 -10 19 -15.5t26 -7.5t27.5 -2.5t23.5 -0.5v-32h-318v32q7 1 13.5 1.5t13.5 0.5q16 1 34 3.5t30 16.5q8 8 11 21t4 36v200l-187 300q-12 19 -23.5 30.5t-24 18t-28.5 9t-38 4.5v33h303z" />
    <glyph glyph-name="Acircumflex" unicode="&#xc2;" horiz-adv-x="750" 
d="M501 791q2 -1 5.5 -4t3.5 -9q0 -3 -2.5 -8.5t-10.5 -5.5q-5 0 -14 4l-111 50l-107 -52q-2 -1 -4.5 -2t-6.5 -1q-8 0 -9.5 4.5t-1.5 6.5q0 7 7 13l122 104zM240 292h216l-54 139q-7 17 -13.5 35l-12.5 36q-7 18 -13.5 36.5l-12.5 36.5zM397 715l232 -577l13.5 -31
t15.5 -30q11 -16 23.5 -25t24.5 -13t22 -5t17 -2v-32h-296v32h25q9 0 20.5 1t21.5 4.5t17 10.5t7 21q0 7 -3.5 17.5t-9.5 25.5l-57 143h-244l-49 -128l-10.5 -29t-3.5 -21q0 -24 21 -32.5t60 -12.5v-32h-233v32q5 0 15 1.5t21 4.5q18 5 31 13.5t22 20t15.5 25.5l13.5 30
l235 588h33z" />
    <glyph glyph-name="Ecircumflex" unicode="&#xca;" horiz-adv-x="646" 
d="M449 791q2 -1 5.5 -4t3.5 -9q0 -3 -2.5 -8.5t-10.5 -5.5q-5 0 -14 4l-111 50l-107 -52q-2 -1 -4.5 -2t-6.5 -1q-8 0 -10 4.5t-2 6.5q1 4 2 6.5t6 6.5l122 104zM546 706l20 -174h-32q-15 46 -27 71t-30 40q-22 20 -48 23t-53 4h-137v-278h67q20 1 37 4t33 17
q17 16 21.5 37t6.5 41h31v-240h-32q0 2 -1 19.5t-6 32.5q-6 21 -19 31.5t-27 15t-26.5 5.5t-17.5 1h-67v-232q0 -30 8.5 -48.5t39.5 -29.5q23 -8 45.5 -9t46.5 -1q5 0 26 0.5t41 4.5q28 5 47.5 16t33 23.5t21.5 25.5t13 23q2 4 7.5 17t10.5 28q4 11 6.5 22.5t4.5 22.5h30
l-13 -219h-578v34h17t17 1q15 2 32.5 5.5t26.5 17.5q8 11 9.5 26.5l2.5 26.5v484q0 17 -3 35.5t-18 29.5q-13 9 -30.5 10.5t-47.5 3.5v32h511z" />
    <glyph glyph-name="Aacute" unicode="&#xc1;" horiz-adv-x="750" 
d="M538 891q7 0 7 -3t-2 -4t-3 -2l-228 -113q-2 -1 -3.5 -1.5t-6.5 -0.5q-8 0 -8 8q0 4 2 6t3 4l97 106h142zM240 292h216l-54 139q-7 17 -13.5 35l-12.5 36q-7 18 -13.5 36.5l-12.5 36.5zM397 715l232 -577l13.5 -31t15.5 -30q11 -16 23.5 -25t24.5 -13t22 -5t17 -2v-32
h-296v32h25q9 0 20.5 1t21.5 4.5t17 10.5t7 21q0 7 -3.5 17.5t-9.5 25.5l-57 143h-244l-49 -128l-10.5 -29t-3.5 -21q0 -24 21 -32.5t60 -12.5v-32h-233v32q5 0 15 1.5t21 4.5q18 5 31 13.5t22 20t15.5 25.5l13.5 30l235 588h33z" />
    <glyph glyph-name="Edieresis" unicode="&#xcb;" horiz-adv-x="646" 
d="M182 790q-10 10 -12.5 21t-2.5 16q0 22 15.5 36.5t37.5 14.5t36.5 -15t14.5 -37q0 -23 -15.5 -37.5t-36.5 -14.5q-5 0 -15.5 2.5t-21.5 13.5zM394 790q-11 10 -13 21t-2 16q0 22 15.5 36.5t36.5 14.5q22 0 37 -15t15 -37q0 -23 -15.5 -37.5t-37.5 -14.5q-5 0 -15.5 2.5
t-20.5 13.5zM546 706l20 -174h-32q-15 46 -27 71t-30 40q-22 20 -48 23t-53 4h-137v-278h67q20 1 37 4t33 17q17 16 21.5 37t6.5 41h31v-240h-32q0 2 -1 19.5t-6 32.5q-6 21 -19 31.5t-27 15t-26.5 5.5t-17.5 1h-67v-232q0 -30 8.5 -48.5t39.5 -29.5q23 -8 45.5 -9t46.5 -1
q5 0 26 0.5t41 4.5q28 5 47.5 16t33 23.5t21.5 25.5t13 23q2 4 7.5 17t10.5 28q4 11 6.5 22.5t4.5 22.5h30l-13 -219h-578v34h17t17 1q15 2 32.5 5.5t26.5 17.5q8 11 9.5 26.5l2.5 26.5v484q0 17 -3 35.5t-18 29.5q-13 9 -30.5 10.5t-47.5 3.5v32h511z" />
    <glyph glyph-name="Egrave" unicode="&#xc8;" horiz-adv-x="646" 
d="M397 784q1 -1 3 -3.5t2 -6.5q0 -7 -8 -7q-6 0 -10 2l-228 113q-5 5 -5 6q0 3 7 3h142zM546 706l20 -174h-32q-15 46 -27 71t-30 40q-22 20 -48 23t-53 4h-137v-278h67q20 1 37 4t33 17q17 16 21.5 37t6.5 41h31v-240h-32q0 2 -1 19.5t-6 32.5q-6 21 -19 31.5t-27 15
t-26.5 5.5t-17.5 1h-67v-232q0 -30 8.5 -48.5t39.5 -29.5q23 -8 45.5 -9t46.5 -1q5 0 26 0.5t41 4.5q28 5 47.5 16t33 23.5t21.5 25.5t13 23q2 4 7.5 17t10.5 28q4 11 6.5 22.5t4.5 22.5h30l-13 -219h-578v34h17t17 1q15 2 32.5 5.5t26.5 17.5q8 11 9.5 26.5l2.5 26.5v484
q0 17 -3 35.5t-18 29.5q-13 9 -30.5 10.5t-47.5 3.5v32h511z" />
    <glyph glyph-name="Iacute" unicode="&#xcd;" horiz-adv-x="375" 
d="M351 891q7 0 7 -3q-1 -3 -3 -4t-3 -2l-227 -113q-4 -2 -10 -2q-8 0 -8 8q0 4 2 6t3 4l96 106h143zM341 706v-33q-31 -1 -49.5 -2.5t-31.5 -10.5q-9 -7 -13 -17.5t-5.5 -20t-1 -17t0.5 -8.5v-479v-22t2.5 -21t8.5 -18.5t17 -14.5q13 -7 33.5 -7.5t43.5 -0.5v-34h-318v34
h13.5t13.5 1q15 0 34.5 2.5t30.5 16.5q10 12 12 29.5t3 46.5v469q-1 23 -4 33.5t-12 20.5q-11 13 -29.5 16t-55.5 5v32h307z" />
    <glyph glyph-name="Icircumflex" unicode="&#xce;" horiz-adv-x="375" 
d="M313 791q2 -1 5.5 -4t3.5 -9q0 -3 -2.5 -8.5t-10.5 -5.5q-5 0 -13 4l-111 50l-107 -52q-2 -1 -4.5 -2t-7.5 -1q-7 0 -9 4.5t-2 6.5q0 6 7 13l123 104zM341 706v-33q-31 -1 -49.5 -2.5t-31.5 -10.5q-9 -7 -13 -17.5t-5.5 -20t-1 -17t0.5 -8.5v-479v-22t2.5 -21t8.5 -18.5
t17 -14.5q13 -7 33.5 -7.5t43.5 -0.5v-34h-318v34h13.5t13.5 1q15 0 34.5 2.5t30.5 16.5q10 12 12 29.5t3 46.5v469q-1 23 -4 33.5t-12 20.5q-11 13 -29.5 16t-55.5 5v32h307z" />
    <glyph glyph-name="Idieresis" unicode="&#xcf;" horiz-adv-x="375" 
d="M47 790q-11 10 -13 21t-2 16q0 22 15.5 36.5t36.5 14.5q22 0 37 -15t15 -37q0 -23 -15.5 -37.5t-36.5 -14.5q-5 0 -16 2.5t-21 13.5zM258 790q-11 10 -13 21t-2 16q0 22 15.5 36.5t37.5 14.5t36.5 -15t14.5 -37q0 -23 -15.5 -37.5t-36.5 -14.5q-5 0 -16 2.5t-21 13.5z
M341 706v-33q-31 -1 -49.5 -2.5t-31.5 -10.5q-9 -7 -13 -17.5t-5.5 -20t-1 -17t0.5 -8.5v-479v-22t2.5 -21t8.5 -18.5t17 -14.5q13 -7 33.5 -7.5t43.5 -0.5v-34h-318v34h13.5t13.5 1q15 0 34.5 2.5t30.5 16.5q10 12 12 29.5t3 46.5v469q-1 23 -4 33.5t-12 20.5
q-11 13 -29.5 16t-55.5 5v32h307z" />
    <glyph glyph-name="Igrave" unicode="&#xcc;" horiz-adv-x="375" 
d="M261 784q1 -1 3 -3.5t2 -6.5q0 -7 -8 -7q-2 0 -5 0.5t-5 1.5l-227 113q-6 4 -5 6q0 3 7 3h142zM341 706v-33q-31 -1 -49.5 -2.5t-31.5 -10.5q-9 -7 -13 -17.5t-5.5 -20t-1 -17t0.5 -8.5v-479v-22t2.5 -21t8.5 -18.5t17 -14.5q13 -7 33.5 -7.5t43.5 -0.5v-34h-318v34h13.5
t13.5 1q15 0 34.5 2.5t30.5 16.5q10 12 12 29.5t3 46.5v469q-1 23 -4 33.5t-12 20.5q-11 13 -29.5 16t-55.5 5v32h307z" />
    <glyph glyph-name="Oacute" unicode="&#xd3;" horiz-adv-x="854" 
d="M590 891q7 0 7 -3t-2 -4t-3 -2l-228 -113q-2 -1 -3.5 -1.5t-6.5 -0.5q-8 0 -8 8q0 4 2 6t3 4l97 106h142zM416 691q-9 0 -24 -1.5t-33 -6t-38 -13.5t-40 -24q-22 -16 -41.5 -40t-34.5 -58t-23.5 -79.5t-8.5 -103.5q0 -7 0.5 -24t2.5 -39.5t5.5 -49t10.5 -51.5
q9 -35 23 -61t29 -44t30.5 -30t29.5 -19q38 -20 71.5 -24t47.5 -4q11 0 33 2t48.5 10t55 24t51.5 45q28 34 48 98.5t20 164.5q0 61 -8.5 107.5t-24 81.5t-36.5 59t-45 40q-20 13 -56 27t-93 13zM419 724q19 0 51 -2t70.5 -12.5t80 -32.5t80.5 -62q15 -15 32.5 -37.5
t32.5 -54.5t25 -73.5t10 -94.5q0 -35 -5 -67t-16 -65q-8 -22 -23.5 -54t-44 -64.5t-71 -61.5t-103.5 -45q-14 -4 -44.5 -9.5t-70.5 -5.5q-15 0 -41.5 2t-59.5 10t-70 24t-72 44q-18 15 -40.5 39t-42 59t-33 81.5t-13.5 106.5q0 20 3.5 61.5t23.5 91.5q8 21 25.5 51t47.5 61
t73.5 58t103.5 41q23 5 45 7.5t46 3.5z" />
    <glyph glyph-name="Ocircumflex" unicode="&#xd4;" horiz-adv-x="854" 
d="M553 791q2 -1 5.5 -4t3.5 -9q0 -3 -2.5 -8.5t-10.5 -5.5q-5 0 -14 4l-111 50l-107 -52q-3 -3 -11 -3q-7 0 -9 4.5t-2 6.5q0 7 7 13l122 104zM416 691q-9 0 -24 -1.5t-33 -6t-38 -13.5t-40 -24q-22 -16 -41.5 -40t-34.5 -58t-23.5 -79.5t-8.5 -103.5q0 -7 0.5 -24
t2.5 -39.5t5.5 -49t10.5 -51.5q9 -35 23 -61t29 -44t30.5 -30t29.5 -19q38 -20 71.5 -24t47.5 -4q11 0 33 2t48.5 10t55 24t51.5 45q28 34 48 98.5t20 164.5q0 61 -8.5 107.5t-24 81.5t-36.5 59t-45 40q-20 13 -56 27t-93 13zM419 724q19 0 51 -2t70.5 -12.5t80 -32.5
t80.5 -62q15 -15 32.5 -37.5t32.5 -54.5t25 -73.5t10 -94.5q0 -35 -5 -67t-16 -65q-8 -22 -23.5 -54t-44 -64.5t-71 -61.5t-103.5 -45q-14 -4 -44.5 -9.5t-70.5 -5.5q-15 0 -41.5 2t-59.5 10t-70 24t-72 44q-18 15 -40.5 39t-42 59t-33 81.5t-13.5 106.5q0 20 3.5 61.5
t23.5 91.5q8 21 25.5 51t47.5 61t73.5 58t103.5 41q23 5 45 7.5t46 3.5z" />
    <glyph glyph-name="Ograve" unicode="&#xd2;" horiz-adv-x="854" 
d="M501 784q1 -1 3 -3.5t2 -6.5q0 -7 -8 -7q-6 0 -10 2l-228 113q-5 5 -5 6q0 3 7 3h142zM416 691q-9 0 -24 -1.5t-33 -6t-38 -13.5t-40 -24q-22 -16 -41.5 -40t-34.5 -58t-23.5 -79.5t-8.5 -103.5q0 -7 0.5 -24t2.5 -39.5t5.5 -49t10.5 -51.5q9 -35 23 -61t29 -44t30.5 -30
t29.5 -19q38 -20 71.5 -24t47.5 -4q11 0 33 2t48.5 10t55 24t51.5 45q28 34 48 98.5t20 164.5q0 61 -8.5 107.5t-24 81.5t-36.5 59t-45 40q-20 13 -56 27t-93 13zM419 724q19 0 51 -2t70.5 -12.5t80 -32.5t80.5 -62q15 -15 32.5 -37.5t32.5 -54.5t25 -73.5t10 -94.5
q0 -35 -5 -67t-16 -65q-8 -22 -23.5 -54t-44 -64.5t-71 -61.5t-103.5 -45q-14 -4 -44.5 -9.5t-70.5 -5.5q-15 0 -41.5 2t-59.5 10t-70 24t-72 44q-18 15 -40.5 39t-42 59t-33 81.5t-13.5 106.5q0 20 3.5 61.5t23.5 91.5q8 21 25.5 51t47.5 61t73.5 58t103.5 41q23 5 45 7.5
t46 3.5z" />
    <glyph glyph-name="Uacute" unicode="&#xda;" horiz-adv-x="792" 
d="M559 891q7 0 7 -3t-2.5 -4t-3.5 -2l-227 -113q-4 -2 -10 -2q-8 0 -8 8q0 4 2 6t3 4l97 106h142zM321 706v-32q-19 -1 -33 -2t-24.5 -4t-18 -8t-13.5 -14q-11 -16 -12 -57v-339q0 -26 1 -55t9 -54q10 -30 30 -52t46 -35.5t56 -20t59 -6.5q47 0 95 16.5t79 54.5
q15 19 23 40t11.5 43.5t3.5 45.5v46v290v13.5t-1 13.5q-2 33 -9.5 48t-24.5 23q-14 8 -31 9t-32 3v33h240v-32q-12 -2 -23 -3.5t-22 -5.5q-19 -7 -29.5 -18.5t-16 -26t-7 -30.5t-1.5 -33v-287q-1 -27 -1.5 -47.5t-2 -36.5t-4.5 -29.5t-7 -26.5q-8 -24 -20.5 -42.5t-25.5 -31
t-25 -21t-20 -12.5q-41 -23 -81.5 -31.5t-86.5 -8.5q-45 0 -80.5 6t-62.5 16t-47 23.5t-35 27.5q-32 29 -47 67q-8 19 -11 38t-4 57v364q-1 18 -1.5 30t-2.5 20q-5 17 -15.5 25.5t-23.5 12t-28 4t-28 1.5v31h305z" />
    <glyph glyph-name="Ucircumflex" unicode="&#xdb;" horiz-adv-x="792" 
d="M522 791q1 -1 5 -4t4 -9q0 -3 -2.5 -8.5t-10.5 -5.5q-5 0 -14 4l-111 50l-107 -52q-2 -1 -4.5 -2t-6.5 -1q-8 0 -10 4.5t-2 6.5q0 6 8 13l122 104zM321 706v-32q-19 -1 -33 -2t-24.5 -4t-18 -8t-13.5 -14q-11 -16 -12 -57v-339q0 -26 1 -55t9 -54q10 -30 30 -52t46 -35.5
t56 -20t59 -6.5q47 0 95 16.5t79 54.5q15 19 23 40t11.5 43.5t3.5 45.5v46v290v13.5t-1 13.5q-2 33 -9.5 48t-24.5 23q-14 8 -31 9t-32 3v33h240v-32q-12 -2 -23 -3.5t-22 -5.5q-19 -7 -29.5 -18.5t-16 -26t-7 -30.5t-1.5 -33v-287q-1 -27 -1.5 -47.5t-2 -36.5t-4.5 -29.5
t-7 -26.5q-8 -24 -20.5 -42.5t-25.5 -31t-25 -21t-20 -12.5q-41 -23 -81.5 -31.5t-86.5 -8.5q-45 0 -80.5 6t-62.5 16t-47 23.5t-35 27.5q-32 29 -47 67q-8 19 -11 38t-4 57v364q-1 18 -1.5 30t-2.5 20q-5 17 -15.5 25.5t-23.5 12t-28 4t-28 1.5v31h305z" />
    <glyph glyph-name="Ugrave" unicode="&#xd9;" horiz-adv-x="792" 
d="M470 784q1 -1 3 -3.5t2 -6.5q0 -7 -9 -7q-4 0 -10 2l-227 113q-5 5 -5 6q0 3 7 3h142zM321 706v-32q-19 -1 -33 -2t-24.5 -4t-18 -8t-13.5 -14q-11 -16 -12 -57v-339q0 -26 1 -55t9 -54q10 -30 30 -52t46 -35.5t56 -20t59 -6.5q47 0 95 16.5t79 54.5q15 19 23 40
t11.5 43.5t3.5 45.5v46v290v13.5t-1 13.5q-2 33 -9.5 48t-24.5 23q-14 8 -31 9t-32 3v33h240v-32q-12 -2 -23 -3.5t-22 -5.5q-19 -7 -29.5 -18.5t-16 -26t-7 -30.5t-1.5 -33v-287q-1 -27 -1.5 -47.5t-2 -36.5t-4.5 -29.5t-7 -26.5q-8 -24 -20.5 -42.5t-25.5 -31t-25 -21
t-20 -12.5q-41 -23 -81.5 -31.5t-86.5 -8.5q-45 0 -80.5 6t-62.5 16t-47 23.5t-35 27.5q-32 29 -47 67q-8 19 -11 38t-4 57v364q-1 18 -1.5 30t-2.5 20q-5 17 -15.5 25.5t-23.5 12t-28 4t-28 1.5v31h305z" />
    <glyph glyph-name="quotedbl" unicode="&#x22;" horiz-adv-x="396" 
d="M94 445l-33 243q0 2 -1 8.5t1 14.5q2 13 8 20.5t13 11.5t14 5t11 1q3 0 9.5 -1t13.5 -6q16 -10 17 -23.5t1 -18.5l-35 -255h-19zM281 445l-32 243q-1 2 -1.5 8.5t0.5 14.5q2 13 8 20.5t13 11.5t14 5t11 1t10 -1t14 -6q16 -10 17 -23.5t1 -18.5l-36 -255h-19z" />
    <glyph glyph-name="exclam" unicode="!" 
d="M124 13q-11 11 -14 23.5t-3 17.5q0 25 17.5 42t41.5 17q25 0 42 -17.5t17 -41.5q0 -25 -17.5 -42t-41.5 -17q-6 0 -18 3t-24 15zM184 219q0 -3 -2.5 -12.5t-15.5 -9.5q-13 1 -15.5 10.5t-3.5 11.5l-30 404q0 6 0.5 16t5.5 19.5t15.5 16.5t30.5 7q19 0 29 -7.5t14.5 -17.5
t5 -20t0.5 -15z" />
    <glyph glyph-name="Grave" unicode="&#xf6ce;" 
d="M126 784q1 -1 3 -3.5t2 -6.5q0 -7 -8 -7q-6 0 -10 2l-227 113q-6 4 -6 6q0 3 7 3h142z" />
    <glyph glyph-name="Acute" unicode="&#xf6c9;" 
d="M215 891q7 0 7 -3t-2 -4t-3 -2l-228 -113q-2 -1 -3.5 -1.5t-6.5 -0.5q-8 0 -8 8q1 4 2.5 6t2.5 4l97 106h142z" />
    <glyph glyph-name="Circumflex" 
d="M178 791q2 -1 5.5 -4t3.5 -9q0 -3 -2.5 -8.5t-10.5 -5.5q-5 0 -14 4l-111 50l-107 -52q-3 -3 -11 -3q-7 0 -9 4.5t-2 6.5q0 7 7 13l122 104z" />
    <glyph glyph-name="Tilde" 
d="M224 866q-10 -14 -22 -29t-26.5 -28t-31.5 -21t-36 -8q-23 0 -51.5 10.5t-48.5 16.5q-2 1 -16.5 5t-28.5 4q-23 0 -37 -9.5t-30 -25.5l-13 11q3 5 6.5 9.5t6.5 9.5q3 4 11.5 14t21.5 21t30.5 19.5t38.5 8.5q22 0 44.5 -7.5t42.5 -15.5q2 -1 19.5 -6.5t33.5 -5.5
q24 0 39.5 11.5t31.5 27.5z" />
    <glyph glyph-name="Dieresis" unicode="&#xf6cb;" 
d="M-89 790q-10 10 -12.5 21t-2.5 16q1 22 16 36.5t37 14.5t37 -15t15 -37q-1 -23 -16 -37.5t-37 -14.5q-5 0 -15.5 2.5t-21.5 13.5zM123 790q-11 10 -13 21t-2 16q0 22 15.5 36.5t36.5 14.5q22 0 37 -15t15 -37q0 -23 -15.5 -37.5t-36.5 -14.5q-5 0 -16 2.5t-21 13.5z" />
    <glyph glyph-name="Caron" unicode="&#xf6ca;" 
d="M-81 864q-2 1 -5.5 4t-3.5 9q0 3 2.5 8.5t10.5 5.5q5 0 13 -4l111 -50l108 52q3 3 11 3q7 0 9 -4.5t2 -6.5q0 -6 -7 -13l-123 -104z" />
    <glyph glyph-name="minus" unicode="&#x2212;" horiz-adv-x="667" 
d="M0 262v59h667v-59h-667z" />
    <glyph glyph-name="brokenbar" unicode="&#xa6;" horiz-adv-x="229" 
d="M85 689h59v-381h-59v381zM144 190v-381h-59v381h59z" />
    <glyph glyph-name="multiply" unicode="&#xd7;" horiz-adv-x="667" 
d="M333 249l-207 -207l-42 41l207 208l-207 206l42 42l207 -207l208 207l41 -42l-207 -206l207 -208l-41 -41z" />
    <glyph glyph-name="onefitted" unicode="&#xf6dc;" horiz-adv-x="417" 
d="M360 0h-281v29q32 0 49.5 2.5t30.5 13.5q14 13 16 28.5l4 32.5v496h-88v30l41.5 7.5t37.5 9.5t35.5 14.5t36.5 21.5q6 5 12.5 9.5t8.5 4.5t2.5 -2t0.5 -3v-588q1 -11 1.5 -21t4.5 -20q5 -14 15 -21t22.5 -10.5t26 -4t24.5 -0.5v-29z" />
    </font>
</defs>
</svg>
