<?xml version="1.0" standalone="no"?>
<!DOCTYPE svg PUBLIC "-//W3C//DTD SVG 20010904//EN"
 "http://www.w3.org/TR/2001/REC-SVG-20010904/DTD/svg10.dtd">
<svg version="1.0" xmlns="http://www.w3.org/2000/svg"
 width="2457.000000pt" height="2457.000000pt" viewBox="0 0 2457.000000 2457.000000"
 preserveAspectRatio="xMidYMid meet">
<metadata>
Created by potrace 1.14, written by Peter Selinger 2001-2017
</metadata>
<g transform="translate(0.000000,2457.000000) scale(0.100000,-0.100000)"
fill="#000000" stroke="none">
<path d="M17967 22285 c-177 -34 -330 -116 -457 -244 -164 -167 -250 -373
-250 -600 0 -336 183 -630 483 -776 222 -108 484 -115 715 -20 235 96 533 66
754 -77 177 -115 301 -285 364 -503 55 -191 129 -310 299 -485 141 -145 199
-235 246 -380 59 -180 50 -402 -23 -577 -47 -113 -101 -189 -219 -305 -224
-221 -308 -417 -297 -697 4 -108 10 -140 38 -223 42 -127 104 -231 193 -325
84 -88 158 -141 271 -193 129 -60 200 -74 361 -74 123 1 151 4 230 28 577 174
808 844 460 1331 -54 75 -128 146 -226 218 -139 102 -217 205 -266 352 -22 67
-26 98 -26 195 -1 80 5 135 17 180 39 145 127 281 236 367 30 24 83 66 117 93
128 102 226 252 279 425 24 80 27 106 27 235 0 129 -3 155 -26 233 -93 303
-308 535 -582 626 -231 77 -450 59 -675 -54 -117 -59 -209 -85 -315 -92 -207
-13 -406 65 -544 212 -101 109 -148 210 -176 379 -50 316 -216 548 -481 677
-158 77 -362 105 -527 74z"/>
<path d="M17991 19865 c-276 -60 -493 -227 -611 -470 -48 -98 -76 -207 -89
-345 -13 -128 -31 -191 -83 -292 -79 -152 -224 -276 -393 -334 -71 -25 -94
-28 -205 -28 -109 0 -134 4 -195 26 -304 112 -380 127 -543 108 -362 -44 -649
-292 -743 -645 -31 -114 -31 -308 0 -420 69 -254 242 -463 474 -570 141 -65
306 -93 449 -75 396 48 693 329 762 722 57 325 296 583 621 669 113 30 309 30
415 0 185 -53 322 -64 462 -37 164 32 306 105 431 225 119 113 179 210 233
371 26 79 28 96 28 250 0 159 -1 168 -32 260 -80 239 -259 436 -483 531 -149
63 -352 85 -498 54z"/>
<path d="M22805 19869 c-277 -55 -503 -227 -621 -474 -68 -140 -79 -194 -79
-380 0 -140 3 -169 23 -235 93 -296 323 -519 612 -595 101 -26 279 -31 381
-11 328 67 583 306 670 631 31 113 31 316 1 430 -47 173 -151 336 -290 451
-74 61 -234 144 -327 169 -72 19 -299 28 -370 14z"/>
<path d="M18000 17276 c-88 -20 -130 -35 -219 -82 -214 -112 -356 -286 -428
-521 -23 -77 -26 -106 -27 -233 0 -108 4 -161 17 -209 57 -208 161 -363 332
-491 224 -169 328 -356 328 -590 0 -234 -104 -421 -328 -590 -171 -128 -275
-283 -332 -491 -13 -48 -17 -101 -17 -209 1 -127 4 -156 27 -233 74 -242 226
-422 450 -532 124 -61 189 -76 338 -82 272 -11 480 74 667 272 66 70 90 104
135 197 73 149 92 229 91 388 -1 157 -18 229 -90 378 -49 102 -65 123 -147
206 -51 50 -124 116 -163 146 -128 98 -206 212 -255 370 -19 58 -24 98 -24
180 0 218 98 410 279 550 39 30 112 96 163 146 82 83 98 104 147 206 72 149
89 221 90 378 1 188 -46 342 -152 496 -116 171 -320 306 -524 348 -91 19 -277
20 -358 2z"/>
<path d="M13245 15996 c-95 -19 -222 -67 -297 -112 -34 -21 -95 -70 -136 -108
-185 -175 -272 -377 -272 -626 0 -245 85 -446 261 -616 85 -82 163 -135 258
-174 126 -52 194 -64 341 -64 116 1 147 5 223 28 207 62 346 163 489 353 78
104 149 165 258 222 104 54 185 74 305 75 123 1 183 -13 302 -70 104 -50 197
-128 270 -229 104 -143 244 -258 381 -314 128 -53 195 -65 342 -65 116 1 148
5 223 28 380 114 627 439 627 826 0 386 -247 712 -627 826 -75 23 -107 27
-223 28 -147 0 -214 -12 -341 -64 -106 -44 -175 -94 -304 -220 -133 -129 -180
-165 -288 -215 -116 -56 -214 -77 -352 -78 -142 -1 -230 17 -352 73 -116 54
-163 88 -293 215 -162 157 -249 212 -417 260 -110 32 -274 41 -378 21z"/>
<path d="M20230 15995 c-373 -77 -642 -369 -691 -752 -49 -381 198 -775 567
-904 368 -128 758 -2 996 323 198 271 505 376 799 274 142 -49 252 -136 368
-291 241 -322 639 -437 1012 -294 101 39 188 96 278 183 176 170 261 371 261
616 0 250 -87 451 -273 626 -352 335 -913 306 -1235 -64 -105 -121 -275 -224
-433 -262 -114 -27 -284 -27 -396 0 -171 41 -278 105 -447 269 -67 65 -150
137 -185 159 -171 111 -421 158 -621 117z"/>
<path d="M15855 13479 c-352 -47 -632 -296 -726 -644 -17 -63 -22 -108 -22
-210 0 -102 5 -147 22 -210 70 -259 234 -457 474 -571 116 -55 214 -76 352
-77 140 0 245 21 371 77 43 19 117 42 164 52 281 56 583 -92 718 -354 53 -102
71 -165 83 -296 14 -144 40 -242 94 -351 121 -244 353 -416 629 -464 84 -15
261 -14 348 3 204 39 405 162 524 319 104 139 156 280 179 484 23 209 71 322
190 451 159 173 394 252 613 208 45 -9 118 -32 162 -51 165 -71 304 -93 459
-75 201 25 363 102 507 245 174 172 256 368 256 610 1 402 -267 741 -660 837
-110 27 -285 29 -385 4 -324 -78 -575 -327 -648 -641 -41 -178 -51 -215 -79
-274 -80 -168 -224 -316 -387 -400 -71 -36 -186 -69 -284 -81 -109 -14 -235
-3 -341 30 -175 53 -382 53 -583 0 -105 -28 -136 -32 -245 -32 -148 0 -239 20
-366 82 -243 118 -409 336 -459 606 -57 302 -234 534 -500 655 -130 59 -320
87 -460 68z"/>
<path d="M7461 12910 c-201 -53 -368 -219 -428 -426 -14 -51 -17 -127 -22
-546 l-6 -487 -92 63 c-442 301 -1027 360 -1524 151 -441 -185 -789 -576 -923
-1036 -82 -285 -82 -613 1 -899 90 -313 281 -598 536 -804 l85 -68 -60 -50
c-501 -417 -703 -1092 -513 -1715 148 -485 529 -878 1014 -1047 157 -55 281
-77 491 -86 144 -7 206 -14 281 -33 665 -172 965 -944 589 -1516 -103 -157
-237 -273 -411 -356 -154 -72 -236 -90 -424 -90 -136 0 -173 4 -245 23 -107
29 -252 97 -339 159 -216 154 -379 426 -406 677 -3 28 -8 70 -11 94 l-5 42
-45 0 c-56 0 -155 -33 -216 -72 -65 -41 -151 -136 -181 -201 -40 -84 -50 -138
-45 -247 5 -93 8 -105 52 -197 213 -441 624 -756 1126 -865 90 -19 134 -22
315 -22 231 0 325 14 510 75 537 179 950 641 1065 1193 100 479 -23 983 -330
1356 -67 82 -178 190 -247 242 l-52 40 72 58 c284 228 494 578 563 936 115
606 -112 1207 -603 1591 l-52 41 90 78 c259 223 440 530 522 886 21 93 21 101
24 1586 l4 1492 -43 -1 c-24 0 -76 -9 -117 -19z m-1209 -1759 c186 -49 352
-145 479 -278 88 -92 137 -164 190 -278 69 -148 83 -215 83 -415 0 -204 -14
-269 -89 -427 -174 -369 -550 -593 -954 -570 -145 9 -256 38 -386 102 -266
130 -456 362 -531 650 -23 86 -27 120 -27 245 0 123 4 159 26 241 103 390 403
669 800 745 101 19 309 12 409 -15z m33 -2610 c549 -132 883 -696 734 -1241
-30 -110 -109 -263 -184 -357 -117 -146 -278 -260 -452 -319 -482 -163 -1001
50 -1223 501 -84 171 -118 355 -99 538 47 464 401 832 862 897 89 13 269 3
362 -19z"/>
<path d="M2110 11776 c-537 -78 -997 -415 -1230 -901 -241 -504 -202 -1108
100 -1570 242 -369 600 -612 1040 -706 154 -33 456 -34 617 -1 252 51 505 167
697 321 l39 31 36 -65 c20 -36 55 -87 78 -114 89 -103 250 -185 388 -198 l65
-6 0 874 c0 727 -3 891 -15 974 -102 677 -609 1209 -1283 1346 -129 26 -401
34 -532 15z m395 -611 c379 -66 693 -356 797 -735 20 -73 23 -108 23 -250 0
-142 -3 -177 -23 -250 -98 -357 -367 -623 -730 -722 -115 -32 -353 -32 -476 0
-97 24 -245 90 -323 143 -217 147 -367 374 -424 644 -17 77 -17 293 0 370 88
415 402 726 808 799 105 19 242 19 348 1z"/>
<path d="M8600 10304 c-215 -46 -404 -232 -455 -446 -13 -54 -15 -326 -15
-1975 l0 -1913 40 0 c113 0 269 65 367 154 79 72 136 159 171 261 l27 80 3
1928 2 1927 -37 -1 c-21 0 -67 -7 -103 -15z"/>
<path d="M12870 8928 c0 -881 4 -1433 10 -1503 53 -563 384 -1048 885 -1295
155 -76 247 -109 399 -142 87 -19 131 -22 321 -22 190 0 234 3 321 22 503 109
914 432 1129 886 108 226 144 379 152 631 6 199 -3 302 -43 459 -74 295 -220
544 -452 768 -545 526 -1382 594 -2017 164 l-95 -65 0 485 c0 540 -1 546 -67
678 -50 99 -162 210 -263 260 -74 36 -185 65 -247 66 l-33 0 0 -1392z m1760
-373 c338 -51 615 -259 762 -571 69 -148 82 -214 82 -419 0 -167 -2 -186 -27
-266 -37 -121 -69 -189 -133 -287 -145 -217 -373 -370 -633 -424 -136 -28
-338 -21 -466 16 -409 120 -696 472 -729 896 -15 183 40 412 138 577 65 111
195 248 300 318 218 145 455 199 706 160z"/>
<path d="M20713 10305 c-212 -46 -383 -202 -448 -408 l-25 -78 0 -1925 0
-1924 43 0 c62 0 151 25 237 67 96 47 201 150 252 248 73 141 68 -22 68 2114
l0 1921 -32 -1 c-18 0 -61 -7 -95 -14z"/>
<path d="M10630 9169 c-871 -99 -1508 -871 -1431 -1735 36 -406 203 -754 499
-1036 220 -208 478 -343 785 -410 88 -19 132 -22 322 -22 190 0 234 3 321 22
638 139 1118 619 1256 1256 19 87 22 132 22 321 1 243 -13 334 -76 520 -117
346 -371 664 -683 855 -302 185 -669 268 -1015 229z m320 -614 c216 -33 404
-128 561 -284 121 -121 202 -260 255 -436 37 -127 45 -328 16 -465 -82 -398
-384 -700 -782 -782 -137 -29 -338 -21 -465 16 -375 112 -633 393 -717 781 -7
34 -12 118 -11 195 1 109 6 153 26 230 131 503 611 823 1117 745z"/>
<path d="M17996 9169 c-396 -42 -773 -236 -1037 -535 -493 -557 -539 -1385
-111 -1994 83 -118 269 -305 385 -387 172 -121 396 -218 611 -265 87 -19 131
-22 321 -22 190 0 234 3 321 22 247 54 500 172 679 317 l41 33 34 -67 c49 -94
155 -198 250 -244 88 -43 175 -67 242 -67 l48 0 0 798 c0 800 -6 979 -36 1127
-163 811 -925 1371 -1748 1284z m400 -629 c421 -107 719 -449 763 -874 47
-458 -232 -894 -666 -1042 -134 -46 -223 -58 -378 -51 -240 10 -430 87 -622
254 -125 109 -247 307 -292 473 -32 116 -43 247 -32 359 48 468 401 835 866
901 90 13 270 3 361 -20z"/>
<path d="M21806 4283 c-3 -16 -12 -68 -21 -118 -26 -150 -16 -135 -90 -135
l-65 0 0 -75 0 -75 59 0 60 0 4 -472 c2 -328 7 -484 15 -509 17 -52 52 -100
92 -127 33 -22 42 -24 140 -20 146 6 150 9 150 108 l0 79 -64 -6 c-35 -3 -76
-3 -91 1 -53 13 -55 33 -55 511 l0 435 95 0 95 0 0 75 0 75 -95 0 -95 0 0 140
0 140 -64 0 c-62 0 -65 -1 -70 -27z"/>
<path d="M9602 4037 c-49 -15 -124 -87 -160 -154 l-31 -58 -1 103 0 102 -85 0
-85 0 0 -630 0 -630 89 0 90 0 3 433 c4 423 4 433 27 499 25 72 75 139 122
163 37 20 142 19 179 0 37 -19 65 -72 79 -150 7 -37 11 -224 11 -502 l0 -443
89 0 90 0 3 438 c4 479 5 487 67 584 38 60 91 88 167 88 109 0 157 -50 174
-182 5 -40 10 -265 10 -500 l0 -428 90 0 90 0 0 448 c0 251 -5 484 -10 531
-19 150 -65 232 -153 276 -43 21 -64 25 -141 25 -67 0 -102 -5 -132 -19 -57
-26 -119 -84 -152 -142 -15 -27 -30 -49 -33 -49 -4 0 -9 13 -12 28 -11 55 -69
125 -126 155 -48 24 -65 27 -140 26 -47 -1 -101 -6 -119 -12z"/>
<path d="M11279 4027 c-37 -12 -87 -40 -112 -60 -51 -42 -102 -133 -116 -209
l-8 -47 51 -6 c28 -3 71 -7 95 -8 l43 -2 12 47 c27 102 80 137 209 138 156 0
212 -60 224 -240 l6 -87 -164 -7 c-189 -7 -238 -16 -320 -52 -71 -32 -130 -93
-167 -172 -25 -53 -27 -66 -27 -197 0 -132 2 -143 28 -200 35 -75 78 -121 142
-151 67 -32 208 -34 287 -4 67 25 138 88 182 162 34 59 46 64 46 18 0 -47 30
-116 65 -150 31 -30 43 -35 100 -38 36 -2 85 -1 110 2 l45 7 0 74 0 75 -30 -6
c-46 -10 -78 3 -97 39 -16 28 -19 75 -23 427 -6 381 -7 397 -29 452 -30 77
-106 159 -173 189 -45 20 -73 24 -183 26 -115 3 -138 1 -196 -20z m401 -696
c0 -173 -80 -330 -198 -387 -56 -28 -178 -31 -218 -5 -48 30 -74 93 -74 183 0
206 83 261 403 267 l87 1 0 -59z"/>
<path d="M12710 4041 c-75 -24 -143 -83 -191 -166 l-29 -50 0 103 0 102 -85 0
-85 0 0 -630 0 -630 89 0 90 0 3 423 c4 405 5 425 26 489 45 136 122 198 244
198 74 0 108 -12 147 -54 49 -52 53 -95 58 -593 l5 -463 89 0 89 0 0 443 c0
246 -5 479 -10 525 -14 108 -42 181 -88 229 -61 63 -102 78 -222 80 -58 1
-116 -1 -130 -6z"/>
<path d="M13819 4027 c-37 -12 -87 -40 -112 -60 -51 -42 -102 -133 -116 -209
l-8 -47 51 -6 c28 -3 71 -7 95 -8 l43 -2 12 47 c27 102 80 137 209 138 156 0
212 -60 224 -240 l6 -87 -164 -7 c-189 -7 -238 -16 -320 -52 -71 -32 -130 -93
-167 -172 -25 -53 -27 -66 -27 -197 0 -132 2 -143 28 -200 35 -75 78 -121 142
-151 67 -32 208 -34 287 -4 67 25 138 88 182 162 34 59 46 64 46 18 0 -47 30
-116 65 -150 31 -30 43 -35 100 -38 36 -2 85 -1 110 2 l45 7 0 74 0 75 -30 -6
c-46 -10 -78 3 -97 39 -16 28 -19 75 -23 427 -6 381 -7 397 -29 452 -30 77
-106 159 -173 189 -45 20 -73 24 -183 26 -115 3 -138 1 -196 -20z m401 -696
c0 -173 -80 -330 -198 -387 -56 -28 -178 -31 -218 -5 -48 30 -74 93 -74 183 0
206 83 261 403 267 l87 1 0 -59z"/>
<path d="M15045 4022 c-163 -78 -235 -269 -235 -627 0 -267 41 -440 128 -536
65 -73 108 -92 218 -97 150 -7 241 37 316 152 l40 61 -5 -160 c-4 -179 -18
-238 -70 -301 -43 -51 -97 -74 -181 -74 -92 0 -148 26 -187 88 -16 25 -29 54
-29 63 0 28 -11 29 -104 12 l-87 -16 6 -31 c12 -58 65 -154 106 -191 23 -21
67 -49 98 -64 52 -24 66 -26 196 -26 133 0 143 1 203 29 120 55 196 172 221
336 7 48 12 311 14 733 l2 657 -87 0 -88 0 0 -67 c0 -38 -3 -78 -6 -91 -6 -20
-9 -18 -36 24 -38 61 -83 101 -143 130 -41 20 -66 24 -140 24 -78 0 -98 -4
-150 -28z m278 -155 c38 -16 98 -81 126 -135 43 -84 55 -158 56 -332 0 -176
-10 -231 -60 -330 -25 -50 -91 -115 -131 -130 -14 -6 -51 -10 -83 -10 -120 0
-184 68 -216 229 -25 123 -17 448 13 541 42 128 100 179 205 180 32 0 72 -6
90 -13z"/>
<path d="M16405 4037 c-172 -57 -281 -212 -316 -447 -17 -119 -7 -372 19 -471
43 -163 125 -275 241 -332 65 -31 69 -32 206 -32 137 0 142 1 207 32 84 39
150 105 189 186 16 34 29 67 29 72 0 6 -36 22 -79 37 l-80 26 -12 -30 c-43
-104 -128 -158 -248 -158 -123 1 -195 49 -247 166 -25 57 -54 184 -54 239 l0
35 376 0 377 0 -8 110 c-14 229 -60 364 -157 467 -29 30 -75 65 -107 80 -50
24 -69 28 -176 30 -79 2 -134 -2 -160 -10z m272 -180 c87 -46 143 -154 143
-278 l0 -59 -280 0 -280 0 0 23 c1 49 31 162 55 203 27 46 69 83 132 116 31
16 52 19 118 15 48 -2 93 -10 112 -20z"/>
<path d="M17762 4037 c-49 -15 -124 -87 -160 -154 l-31 -58 -1 103 0 102 -85
0 -85 0 0 -630 0 -630 89 0 90 0 3 433 c4 423 4 433 27 499 25 72 75 139 122
163 37 20 142 19 179 0 37 -19 65 -72 79 -150 7 -37 11 -224 11 -502 l0 -443
89 0 90 0 3 438 c4 479 5 487 67 584 38 60 91 88 167 88 109 0 157 -50 174
-182 5 -40 10 -265 10 -500 l0 -428 90 0 90 0 0 448 c0 251 -5 484 -10 531
-19 150 -65 232 -153 276 -43 21 -64 25 -141 25 -67 0 -102 -5 -132 -19 -57
-26 -119 -84 -152 -142 -15 -27 -30 -49 -33 -49 -4 0 -9 13 -12 28 -11 55 -69
125 -126 155 -48 24 -65 27 -140 26 -47 -1 -101 -6 -119 -12z"/>
<path d="M19485 4037 c-172 -57 -281 -212 -316 -447 -17 -119 -7 -372 19 -471
43 -163 125 -275 241 -332 65 -31 69 -32 206 -32 137 0 142 1 207 32 84 39
150 105 189 186 16 34 29 67 29 72 0 6 -36 22 -79 37 l-80 26 -12 -30 c-43
-104 -128 -158 -248 -158 -123 1 -195 49 -247 166 -25 57 -54 184 -54 239 l0
35 376 0 377 0 -8 110 c-14 229 -60 364 -157 467 -29 30 -75 65 -107 80 -50
24 -69 28 -176 30 -79 2 -134 -2 -160 -10z m272 -180 c87 -46 143 -154 143
-278 l0 -59 -280 0 -280 0 0 23 c1 49 31 162 55 203 27 46 69 83 132 116 31
16 52 19 118 15 48 -2 93 -10 112 -20z"/>
<path d="M20860 4041 c-75 -24 -143 -83 -191 -166 l-29 -50 0 103 0 102 -85 0
-85 0 0 -630 0 -630 89 0 90 0 3 423 c4 405 5 425 26 489 45 136 122 198 244
198 74 0 108 -12 147 -54 49 -52 53 -95 58 -593 l5 -463 89 0 89 0 0 443 c0
246 -5 479 -10 525 -14 108 -42 181 -88 229 -61 63 -102 78 -222 80 -58 1
-116 -1 -130 -6z"/>
</g>
</svg>
