<?xml version="1.0" encoding="UTF-8" standalone="no"?>
<!DOCTYPE svg PUBLIC "-//W3C//DTD SVG 1.1//EN" "http://www.w3.org/Graphics/SVG/1.1/DTD/svg11.dtd">
<svg width="100%" height="100%" viewBox="0 0 32 32" version="1.1" xmlns="http://www.w3.org/2000/svg" xmlns:xlink="http://www.w3.org/1999/xlink" xml:space="preserve" xmlns:serif="http://www.serif.com/" style="fill-rule:evenodd;clip-rule:evenodd;stroke-linejoin:round;stroke-miterlimit:2;">
    <path d="M16,15L16.018,15C16.297,15.005 16.547,15.124 16.726,15.311L19.707,18.293C20.098,18.684 20.098,19.316 19.707,19.707C19.512,19.902 19.256,20 19,20C18.744,20 18.488,19.902 18.293,19.707L17,18.414L17,27C17,27.553 16.553,28 16,28C15.447,28 15,27.553 15,27L15,18.414L13.707,19.707C13.316,20.098 12.684,20.098 12.293,19.707C11.902,19.316 11.902,18.684 12.293,18.293L15.274,15.311C15.453,15.124 15.703,15.005 15.982,15L16,15ZM25,26L22,26C21.447,26 21,25.553 21,25C21,24.447 21.447,24 22,24L25,24C27.757,24 30,21.757 30,19C30,16.243 27.757,14 25,14L24,14C23.447,14 23,13.553 23,13C23,9.141 19.859,6 16,6C12.141,6 9,9.141 9,13C9,13.553 8.553,14 8,14L7,14C4.243,14 2,16.243 2,19C2,21.757 4.243,24 7,24L10,24C10.553,24 11,24.447 11,25C11,25.553 10.553,26 10,26L7,26C3.141,26 0,22.859 0,19C0,15.141 3.141,12 7,12L7.056,12C7.555,7.506 11.375,4 16,4C20.625,4 24.445,7.506 24.944,12L25,12C28.859,12 32,15.141 32,19C32,22.859 28.859,26 25,26Z" style="fill:rgb(251,146,60);fill-rule:nonzero;"/>
</svg>
