<?xml version="1.0" encoding="UTF-8" standalone="no"?>
<!DOCTYPE svg PUBLIC "-//W3C//DTD SVG 1.1//EN" "http://www.w3.org/Graphics/SVG/1.1/DTD/svg11.dtd">
<svg width="320" height="96" viewBox="0 0 320 96" version="1.1" xmlns="http://www.w3.org/2000/svg" xmlns:xlink="http://www.w3.org/1999/xlink" xml:space="preserve" xmlns:serif="http://www.serif.com/" style="fill-rule:evenodd;clip-rule:evenodd;stroke-linecap:round;stroke-linejoin:round;stroke-miterlimit:1.5;">
    <g transform="matrix(8.87167e-17,1.44885,-0.737836,4.51794e-17,26.7582,-6.86264)">
        <path d="M16.213,12.419L19.118,18.229L13.308,18.229L16.213,12.419Z" style="fill:white;stroke:rgb(164,164,164);stroke-width:0.83px;"/>
    </g>
    <g transform="matrix(-8.87167e-17,1.44885,0.737836,4.51794e-17,5.09669,25.0215)">
        <path d="M16.213,12.419L19.118,18.229L13.308,18.229L16.213,12.419Z" style="fill:white;stroke:rgb(164,164,164);stroke-width:0.83px;"/>
    </g>
    <g transform="matrix(0.729215,0,0,0.734799,13.9151,3.29363)">
        <path d="M48.859,12.419L48.859,19.406L41.872,19.406L48.859,12.419Z" style="fill:rgb(85,87,91);stroke:black;stroke-width:1.3px;"/>
    </g>
    <g transform="matrix(-0.729215,0,0,0.734799,82.0775,35.1778)">
        <path d="M48.859,12.419L48.859,19.406L41.872,19.406L48.859,12.419Z" style="fill:rgb(85,87,91);stroke:black;stroke-width:1.3px;"/>
    </g>
    <g transform="matrix(0.0333583,0,0,0.0333583,8,69.9708)">
        <path d="M433.139,67.108L201.294,298.953C195.045,305.202 184.913,305.202 178.664,298.953L78.861,199.15L0,278.011L150.547,428.56C161.005,439.018 175.189,444.893 189.978,444.893C204.766,444.893 218.951,439.017 229.408,428.56L512,145.968L433.139,67.108Z" style="fill:rgb(165,235,120);fill-rule:nonzero;"/>
        <path d="M485.921,119.888L187.59,418.22C179.336,426.473 168.957,432.102 157.743,434.611C167.106,441.246 178.351,444.891 189.978,444.891C204.766,444.891 218.951,439.015 229.408,428.558L512,145.966L485.921,119.888Z" style="fill-opacity:0.1;fill-rule:nonzero;"/>
    </g>
    <g transform="matrix(0.0250856,0,0,0.0250856,41.7534,73.0985)">
        <path d="M384.955,256L505.235,135.72C514.254,126.701 514.254,112.078 505.235,103.06L408.94,6.765C399.921,-2.254 385.298,-2.254 376.28,6.765L256,127.045L135.718,6.765C126.699,-2.254 112.076,-2.254 103.058,6.765L6.764,103.058C-2.255,112.077 -2.255,126.7 6.764,135.718L127.044,255.998L6.764,376.28C-2.255,385.299 -2.255,399.922 6.764,408.94L103.059,505.234C112.078,514.253 126.701,514.253 135.719,505.234L255.999,384.954L376.279,505.234C385.298,514.253 399.921,514.253 408.939,505.234L505.234,408.94C514.253,399.921 514.253,385.298 505.234,376.28L384.955,256Z" style="fill:rgb(255,100,101);fill-rule:nonzero;"/>
    </g>
    <path d="M93.723,16.557L79.545,16.557L79.545,0.427" style="fill:none;stroke:black;stroke-width:1px;stroke-linecap:square;"/>
    <g transform="matrix(-1,0,0,1,160.081,31.9394)">
        <path d="M93.723,16.557L79.545,16.557L79.545,0.427" style="fill:none;stroke:black;stroke-width:1px;stroke-linecap:square;"/>
    </g>
    <g transform="matrix(-1,0,0,1,192.089,31.9394)">
        <path d="M93.723,16.557L79.545,16.557L79.545,0.427" style="fill:none;stroke:black;stroke-width:1px;stroke-linecap:square;"/>
    </g>
    <g transform="matrix(-8.87167e-17,1.44885,0.737836,4.51794e-17,101.237,25.0057)">
        <path d="M16.213,12.419L19.118,18.229L13.308,18.229L16.213,12.419Z" style="fill:white;stroke:rgb(164,164,164);stroke-width:0.83px;"/>
    </g>
    <g transform="matrix(1,0,0,1,31.9757,-0.065261)">
        <path d="M93.723,16.557L79.545,16.557L79.545,0.427" style="fill:none;stroke:black;stroke-width:1px;stroke-linecap:square;"/>
    </g>
    <g transform="matrix(8.87167e-17,1.44885,-0.737836,4.51794e-17,122.827,-6.99901)">
        <path d="M16.213,12.419L19.118,18.229L13.308,18.229L16.213,12.419Z" style="fill:white;stroke:rgb(164,164,164);stroke-width:0.83px;"/>
    </g>
    <g transform="matrix(1,0,0,1,63.95,-0.065261)">
        <path d="M93.723,16.557L79.545,16.557L79.545,0.427" style="fill:none;stroke:black;stroke-width:1px;stroke-linecap:square;"/>
    </g>
    <g transform="matrix(0.729215,6.16298e-33,0,0.734799,109.842,3.29363)">
        <path d="M48.859,12.419L48.859,19.406L41.872,19.406L48.859,12.419Z" style="fill:rgb(85,87,91);stroke:black;stroke-width:1.3px;"/>
    </g>
    <g transform="matrix(-1,0,0,1,224.036,31.9394)">
        <path d="M93.723,16.557L79.545,16.557L79.545,0.427" style="fill:none;stroke:black;stroke-width:1px;stroke-linecap:square;"/>
    </g>
    <g transform="matrix(-0.729215,0,0,0.734799,178.073,35.1778)">
        <path d="M48.859,12.419L48.859,19.406L41.872,19.406L48.859,12.419Z" style="fill:rgb(85,87,91);stroke:black;stroke-width:1.3px;"/>
    </g>
    <g transform="matrix(1.03758e-16,1.6945,-0.790336,4.83941e-17,142.498,-56.1986)">
        <path d="M80.583,74.589C80.517,74.417 80.418,74.318 80.314,74.318C80.21,74.318 80.112,74.417 80.045,74.589L77.242,81.815C77.155,82.038 77.137,82.349 77.194,82.612C77.252,82.876 77.375,83.044 77.511,83.044L83.118,83.044C83.253,83.044 83.377,82.876 83.434,82.612C83.492,82.349 83.473,82.038 83.386,81.815L80.583,74.589Z" style="fill:white;"/>
        <path d="M80.764,74.265C80.653,73.978 80.488,73.812 80.314,73.812C80.14,73.812 79.975,73.978 79.864,74.265C79.864,74.265 77.06,81.491 77.06,81.491C76.915,81.866 76.884,82.386 76.98,82.827C77.077,83.268 77.284,83.55 77.511,83.55C77.511,83.55 83.118,83.55 83.118,83.55C83.345,83.55 83.551,83.268 83.648,82.827C83.744,82.386 83.713,81.866 83.568,81.491C83.568,81.491 80.764,74.265 80.764,74.265ZM80.583,74.589C80.517,74.417 80.418,74.318 80.314,74.318C80.21,74.318 80.112,74.417 80.045,74.589L77.242,81.815C77.155,82.038 77.137,82.349 77.194,82.612C77.252,82.876 77.375,83.044 77.511,83.044L83.118,83.044C83.253,83.044 83.377,82.876 83.434,82.612C83.492,82.349 83.473,82.038 83.386,81.815L80.583,74.589Z" style="fill:rgb(184,184,184);"/>
    </g>
    <g transform="matrix(8.25824e-17,1.34867,-0.629036,3.85174e-17,129.806,-28.4234)">
        <path d="M80.314,75.068L83.118,82.294L77.511,82.294L80.314,75.068Z" style="fill:rgb(70,109,67);"/>
    </g>
    <g transform="matrix(0.0363032,0,0,0.0363032,232.956,6.80529)">
        <path d="M336.761,62.173L51.116,62.173C22.885,62.173 0,85.059 0,113.289L0,398.934C0,427.165 22.885,450.05 51.116,450.05L336.761,450.05C364.992,450.05 387.877,427.165 387.877,398.934L387.877,113.289C387.877,85.059 364.992,62.173 336.761,62.173Z" style="fill:rgb(180,187,204);fill-rule:nonzero;"/>
        <path d="M313.395,113.929L74.482,113.929C61.93,113.929 51.756,124.104 51.756,136.655L51.756,375.566C51.756,388.118 61.931,398.292 74.482,398.292L313.393,398.292C325.945,398.292 336.119,388.117 336.119,375.566L336.119,136.656C336.121,124.105 325.945,113.929 313.395,113.929Z" style="fill:white;fill-rule:nonzero;"/>
        <path d="M74.653,159.553C74.653,147.001 84.828,136.827 97.379,136.827L336.119,136.827L336.119,136.656C336.119,124.104 325.944,113.93 313.393,113.93L74.482,113.93C61.93,113.93 51.756,124.105 51.756,136.656L51.756,375.567C51.756,388.119 61.931,398.293 74.482,398.293L74.653,398.293L74.653,159.553Z" style="fill-opacity:0.1;fill-rule:nonzero;"/>
        <path d="M236.938,371.327C227.732,371.327 218.799,367.753 212.103,361.225L95.321,247.391C81.249,233.673 80.961,211.146 94.678,197.073C108.394,182.999 130.922,182.714 144.995,196.43L230.367,279.648C264.553,230.917 335.859,145.269 457.228,67.57C473.784,56.973 495.786,61.805 506.38,78.353C516.977,94.904 512.148,116.91 495.598,127.506C332.584,231.866 269.103,351.024 268.481,352.216C263.275,362.185 253.662,369.107 242.556,370.882C240.683,371.181 238.806,371.327 236.938,371.327Z" style="fill:rgb(165,235,120);fill-rule:nonzero;"/>
    </g>
    <g transform="matrix(0.0363032,0,0,0.0363032,200.96,6.80529)">
        <path d="M336.761,62.173L51.116,62.173C22.885,62.173 0,85.059 0,113.289L0,398.934C0,427.165 22.885,450.05 51.116,450.05L336.761,450.05C364.992,450.05 387.877,427.165 387.877,398.934L387.877,113.289C387.877,85.059 364.992,62.173 336.761,62.173Z" style="fill:rgb(180,187,204);fill-rule:nonzero;"/>
        <path d="M313.395,113.929L74.482,113.929C61.93,113.929 51.756,124.104 51.756,136.655L51.756,375.566C51.756,388.118 61.931,398.292 74.482,398.292L313.393,398.292C325.945,398.292 336.119,388.117 336.119,375.566L336.119,136.656C336.121,124.105 325.945,113.929 313.395,113.929Z" style="fill:white;fill-rule:nonzero;"/>
        <path d="M74.653,159.553C74.653,147.001 84.828,136.827 97.379,136.827L336.119,136.827L336.119,136.656C336.119,124.104 325.944,113.93 313.393,113.93L74.482,113.93C61.93,113.93 51.756,124.105 51.756,136.656L51.756,375.567C51.756,388.119 61.931,398.293 74.482,398.293L74.653,398.293L74.653,159.553Z" style="fill-opacity:0.1;fill-rule:nonzero;"/>
        <g transform="matrix(27.5458,0,0,27.5458,-5535.61,-187.457)">
            <path d="M212.351,13.536C212.351,12.886 211.823,12.357 211.172,12.357L205.482,12.357C204.832,12.357 204.303,12.886 204.303,13.536L204.303,19.107C204.303,19.758 204.832,20.286 205.482,20.286L211.172,20.286C211.823,20.286 212.351,19.758 212.351,19.107L212.351,13.536Z" style="fill:rgb(165,235,120);"/>
        </g>
    </g>
    <g transform="matrix(0.0363032,0,0,0.0363032,169.03,6.80529)">
        <path d="M336.761,62.173L51.116,62.173C22.885,62.173 0,85.059 0,113.289L0,398.934C0,427.165 22.885,450.05 51.116,450.05L336.761,450.05C364.992,450.05 387.877,427.165 387.877,398.934L387.877,113.289C387.877,85.059 364.992,62.173 336.761,62.173Z" style="fill:rgb(180,187,204);fill-rule:nonzero;"/>
        <path d="M313.395,113.929L74.482,113.929C61.93,113.929 51.756,124.104 51.756,136.655L51.756,375.566C51.756,388.118 61.931,398.292 74.482,398.292L313.393,398.292C325.945,398.292 336.119,388.117 336.119,375.566L336.119,136.656C336.121,124.105 325.945,113.929 313.395,113.929Z" style="fill:white;fill-rule:nonzero;"/>
        <path d="M74.653,159.553C74.653,147.001 84.828,136.827 97.379,136.827L336.119,136.827L336.119,136.656C336.119,124.104 325.944,113.93 313.393,113.93L74.482,113.93C61.93,113.93 51.756,124.105 51.756,136.656L51.756,375.567C51.756,388.119 61.931,398.293 74.482,398.293L74.653,398.293L74.653,159.553Z" style="fill-opacity:0.1;fill-rule:nonzero;"/>
    </g>
    <g transform="matrix(0.0363032,0,0,0.0363032,232.956,38.7064)">
        <path d="M336.761,62.173L51.116,62.173C22.885,62.173 0,85.059 0,113.289L0,398.934C0,427.165 22.885,450.05 51.116,450.05L336.761,450.05C364.992,450.05 387.877,427.165 387.877,398.934L387.877,113.289C387.877,85.059 364.992,62.173 336.761,62.173Z" style="fill:rgb(225,172,106);fill-rule:nonzero;"/>
        <path d="M313.395,113.929L74.482,113.929C61.93,113.929 51.756,124.104 51.756,136.655L51.756,375.566C51.756,388.118 61.931,398.292 74.482,398.292L313.393,398.292C325.945,398.292 336.119,388.117 336.119,375.566L336.119,136.656C336.121,124.105 325.945,113.929 313.395,113.929Z" style="fill:white;fill-rule:nonzero;"/>
        <path d="M74.653,159.553C74.653,147.001 84.828,136.827 97.379,136.827L336.119,136.827L336.119,136.656C336.119,124.104 325.944,113.93 313.393,113.93L74.482,113.93C61.93,113.93 51.756,124.105 51.756,136.656L51.756,375.567C51.756,388.119 61.931,398.293 74.482,398.293L74.653,398.293L74.653,159.553Z" style="fill-opacity:0.1;fill-rule:nonzero;"/>
        <path d="M236.938,371.327C227.732,371.327 218.799,367.753 212.103,361.225L95.321,247.391C81.249,233.673 80.961,211.146 94.678,197.073C108.394,182.999 130.922,182.714 144.995,196.43L230.367,279.648C264.553,230.917 335.859,145.269 457.228,67.57C473.784,56.973 495.786,61.805 506.38,78.353C516.977,94.904 512.148,116.91 495.598,127.506C332.584,231.866 269.103,351.024 268.481,352.216C263.275,362.185 253.662,369.107 242.556,370.882C240.683,371.181 238.806,371.327 236.938,371.327Z" style="fill:rgb(165,235,120);fill-rule:nonzero;"/>
    </g>
    <g transform="matrix(0.0363032,0,0,0.0363032,200.96,38.7064)">
        <path d="M336.761,62.173L51.116,62.173C22.885,62.173 0,85.059 0,113.289L0,398.934C0,427.165 22.885,450.05 51.116,450.05L336.761,450.05C364.992,450.05 387.877,427.165 387.877,398.934L387.877,113.289C387.877,85.059 364.992,62.173 336.761,62.173Z" style="fill:rgb(225,172,106);fill-rule:nonzero;"/>
        <path d="M313.395,113.929L74.482,113.929C61.93,113.929 51.756,124.104 51.756,136.655L51.756,375.566C51.756,388.118 61.931,398.292 74.482,398.292L313.393,398.292C325.945,398.292 336.119,388.117 336.119,375.566L336.119,136.656C336.121,124.105 325.945,113.929 313.395,113.929Z" style="fill:white;fill-rule:nonzero;"/>
        <path d="M74.653,159.553C74.653,147.001 84.828,136.827 97.379,136.827L336.119,136.827L336.119,136.656C336.119,124.104 325.944,113.93 313.393,113.93L74.482,113.93C61.93,113.93 51.756,124.105 51.756,136.656L51.756,375.567C51.756,388.119 61.931,398.293 74.482,398.293L74.653,398.293L74.653,159.553Z" style="fill-opacity:0.1;fill-rule:nonzero;"/>
        <g transform="matrix(27.5458,0,0,27.5458,-5535.61,-187.457)">
            <path d="M212.351,13.536C212.351,12.886 211.823,12.357 211.172,12.357L205.482,12.357C204.832,12.357 204.303,12.886 204.303,13.536L204.303,19.107C204.303,19.758 204.832,20.286 205.482,20.286L211.172,20.286C211.823,20.286 212.351,19.758 212.351,19.107L212.351,13.536Z" style="fill:rgb(165,235,120);"/>
        </g>
    </g>
    <g transform="matrix(0.0363032,0,0,0.0363032,169.03,38.7064)">
        <path d="M336.761,62.173L51.116,62.173C22.885,62.173 0,85.059 0,113.289L0,398.934C0,427.165 22.885,450.05 51.116,450.05L336.761,450.05C364.992,450.05 387.877,427.165 387.877,398.934L387.877,113.289C387.877,85.059 364.992,62.173 336.761,62.173Z" style="fill:rgb(225,172,106);fill-rule:nonzero;"/>
        <path d="M313.395,113.929L74.482,113.929C61.93,113.929 51.756,124.104 51.756,136.655L51.756,375.566C51.756,388.118 61.931,398.292 74.482,398.292L313.393,398.292C325.945,398.292 336.119,388.117 336.119,375.566L336.119,136.656C336.121,124.105 325.945,113.929 313.395,113.929Z" style="fill:white;fill-rule:nonzero;"/>
        <path d="M74.653,159.553C74.653,147.001 84.828,136.827 97.379,136.827L336.119,136.827L336.119,136.656C336.119,124.104 325.944,113.93 313.393,113.93L74.482,113.93C61.93,113.93 51.756,124.105 51.756,136.656L51.756,375.567C51.756,388.119 61.931,398.293 74.482,398.293L74.653,398.293L74.653,159.553Z" style="fill-opacity:0.1;fill-rule:nonzero;"/>
    </g>
    <g transform="matrix(0.0288611,0,0,0.0288611,104.795,73.3716)">
        <path d="M128,0C110.4,0 96,14.4 96,32L96,480C96,497.6 110.4,512 128,512L448,512C465.6,512 480,497.6 480,480L480,128L352,0L128,0Z" style="fill:rgb(239,241,243);fill-rule:nonzero;stroke:rgb(188,188,188);stroke-width:13.86px;stroke-linecap:butt;stroke-miterlimit:2;"/>
        <path d="M384,128L480,128L352,0L352,96C352,113.6 366.4,128 384,128Z" style="fill:rgb(176,183,189);fill-rule:nonzero;"/>
        <path d="M480,224L384,128L480,128L480,224Z" style="fill:rgb(202,209,216);fill-rule:nonzero;"/>
    </g>
    <g transform="matrix(2.12539e-18,-0.0347103,0.0347103,2.12539e-18,264.023,24.1874)">
        <path d="M145.501,81.529L145.501,76.547C145.501,59.864 131.977,46.341 115.295,46.341L30.206,46.341C13.524,46.341 0,59.865 0,76.548L0,450.556C0,458.897 6.762,465.659 15.103,465.659L436.885,465.659L436.885,111.736C436.885,95.053 423.361,81.53 406.679,81.53L145.501,81.529Z" style="fill:rgb(219,113,13);fill-rule:nonzero;"/>
        <path d="M481.79,153.435L88.806,153.435C74.468,153.435 62.105,163.515 59.218,177.56L1.684,457.466C4.193,462.328 9.255,465.659 15.103,465.659L453.931,465.659C469.328,465.659 482.261,454.078 483.955,438.774L511.813,186.963C513.793,169.075 499.788,153.435 481.79,153.435Z" style="fill:rgb(252,194,0);fill-rule:nonzero;"/>
    </g>
    <g transform="matrix(0.0390189,0,0,0.0390189,264.778,35.0669)">
        <g transform="matrix(0.758692,0,0,0.758692,21.8583,124.417)">
            <path d="M480,384L32,384C14.32,384 0,369.68 0,352L0,160C0,142.32 14.32,128 32,128L480,128C497.68,128 512,142.32 512,160L512,352C512,369.68 497.68,384 480,384Z" style="fill:rgb(206,237,95);fill-rule:nonzero;"/>
        </g>
        <g transform="matrix(0.758692,0,0,0.758692,21.8583,124.417)">
            <path d="M480,128L32,128C14.32,128 0,142.32 0,160L0,192C0,174.32 14.32,160 32,160L480,160C497.68,160 512,174.32 512,192L512,160C512,142.32 497.68,128 480,128Z" style="fill:rgb(186,219,49);fill-rule:nonzero;"/>
        </g>
        <g transform="matrix(0.842415,0,0,0.704845,30.2563,151.119)">
            <path d="M372.848,32L432,32C440.832,32 448,24.832 448,16C448,7.168 440.832,0 432,0L363.152,0L320,28.77L276.848,0L208,0C199.168,0 192,7.168 192,16C192,24.832 199.168,32 208,32L267.152,32L304,56.559L304,455.426L267.152,480L208,480C199.168,480 192,487.168 192,496C192,504.832 199.168,512 208,512L276.848,512L320,483.23L363.152,512L432,512C440.832,512 448,504.832 448,496C448,487.168 440.832,480 432,480L372.848,480L336,455.441L336,56.559L372.848,32Z" style="fill:rgb(119,149,158);fill-rule:nonzero;"/>
        </g>
        <g transform="matrix(0.842415,0,0,0.704845,30.2563,151.119)">
            <path d="M368,272L272,272C263.168,272 256,264.832 256,256C256,247.168 263.168,240 272,240L368,240C376.832,240 384,247.168 384,256C384,264.832 376.832,272 368,272Z" style="fill:rgb(98,128,140);fill-rule:nonzero;"/>
        </g>
    </g>
    <g transform="matrix(1,0,0,1,-0.497529,0.00403417)">
        <path d="M304,0L304,96" style="fill:none;stroke:black;stroke-width:1px;stroke-linecap:square;"/>
    </g>
</svg>
